<svg version="1.0" xmlns="http://www.w3.org/2000/svg" width="400" height="400" viewBox="0 0 300 300"><path d="M0 150v150h300V0H0v150zm175.7-6c12.4 34.9 22.6 63.6 22.8 63.8.1.2 3.6.8 7.6 1.5 5.6 1 7.5 1.7 7.7 3 .3 1.6-1.5 1.7-24.2 1.7-23.4 0-24.6-.1-24.6-1.9 0-1.6 1-2 6.5-2.6 3.6-.3 6.5-1 6.5-1.3 0-.4-3-9.1-6.7-19.4l-6.8-18.8-22.4.2-22.3.3-5.9 15c-3.2 8.2-6.2 15.8-6.5 16.7-.4 1.4 1 2.5 7 5.2 4.7 2.2 7.6 4.1 7.6 5 0 1.4-2.4 1.6-18 1.6-16.9 0-18-.1-18-1.9 0-1.4 1.9-2.5 7.6-4.7 4.2-1.6 8.2-3.8 8.9-4.9.7-1.1 11.7-29.1 24.6-62.3 16.9-43.8 23.6-60.2 24.7-60 .9.2 9.5 23.1 23.9 63.8z"/><path d="M142.7 110.6c-.6 1.1-19.7 51-20.4 53.6-.5 1.7.9 1.8 20 1.8h20.6l-8.4-24.3c-11.4-33-11.1-32.2-11.8-31.1z"/></svg>