<?xml version="1.0" standalone="no"?>
<!DOCTYPE svg PUBLIC "-//W3C//DTD SVG 20010904//EN"
 "http://www.w3.org/TR/2001/REC-SVG-20010904/DTD/svg10.dtd">
<svg version="1.0" xmlns="http://www.w3.org/2000/svg"
 width="300.000000pt" height="300.000000pt" viewBox="0 0 300.000000 300.000000"
 preserveAspectRatio="xMidYMid meet">
<metadata>
Created by potrace 1.14, written by Peter Selinger 2001-2017
</metadata>
<g transform="translate(0.000000,300.000000) scale(0.100000,-0.100000)"
fill="#000000" stroke="none">
<path d="M0 1500 l0 -1500 1500 0 1500 0 0 1500 0 1500 -1500 0 -1500 0 0
-1500z m1757 60 c124 -349 226 -636 228 -638 1 -2 36 -8 76 -15 56 -10 75 -17
77 -30 3 -16 -15 -17 -242 -17 -234 0 -246 1 -246 19 0 16 10 20 65 26 36 3
65 10 65 13 0 4 -30 91 -67 194 l-68 188 -224 -2 -223 -3 -59 -150 c-32 -82
-62 -158 -65 -167 -4 -14 10 -25 70 -52 47 -22 76 -41 76 -50 0 -14 -24 -16
-180 -16 -169 0 -180 1 -180 19 0 14 19 25 76 47 42 16 82 38 89 49 7 11 117
291 246 623 169 438 236 602 247 600 9 -2 95 -231 239 -638z"/>
<path d="M1427 1894 c-6 -11 -197 -510 -204 -536 -5 -17 9 -18 200 -18 l206 0
-84 243 c-114 330 -111 322 -118 311z"/>
</g>
</svg>
