<svg width="319" height="122" fill="none" xmlns="http://www.w3.org/2000/svg"><path d="M10.64 52.436c3.714-.856 7.315-1.563 10.849-2.532C27.78 48.167 33.983 46.1 40.283 44.5c4.405-1.112 8.961-1.6 13.42-2.518 3.284-.669 6.502-1.638 9.772-2.352 3.962-.864 7.961-1.548 11.923-2.413 5.789-1.262 11.548-2.66 17.344-3.908 4.022-.864 8.089-1.503 12.103-2.39 5.669-1.247 11.277-2.66 16.953-3.96 5.954-1.368 11.893-2.856 17.9-3.953a64.739 64.739 0 0111.705-1.068c1.939 0 3.939 1.053 5.811 1.857 3.811 1.638 7.518 3.547 11.337 5.14 2.465 1.022 5.119 1.579 7.63 2.51 3.007 1.105 5.841 2.48 8.818 3.578 3.496 1.292 7.075 2.36 10.57 3.645a48.03 48.03 0 015.774 2.54c3.285 1.714 6.48 3.6 9.773 5.321a3.46 3.46 0 002.015.15c6.653-1.082 13.389-2.254 19.08-6.012 4.217-2.758 7.991-6.283 11.615-9.823 5.63-5.464 10.6-11.589 17.163-16.098 4.428-3.006 9.186-4.953 14.644-4.9a2.933 2.933 0 001.774-.752c1.714-1.503 3.549-1.6 5.616-.54a5.888 5.888 0 003.255.593c3.21-.421 6.345-.36 8.834 1.901a26.582 26.582 0 013.864 4.968 5.351 5.351 0 004.984 2.525 23.253 23.253 0 013.608.278v.857h-5.382c3.759 2.165 7.465.7 11.216 0-1.293 1.045-2.255 2.157-3.984 2.593-2.406.594-4.548 2.21-6.841 3.314a9.941 9.941 0 01-6.563.752c-2.737-.556-5.571-.646-8.322-1.15-3.902-.752-6.977-2.63-8.398-6.576a114.247 114.247 0 01-1.571-4.6c-.631-1.969-1.503-2.36-4.308-2.104-7.42.661-13.359 4.028-18.223 9.59-3.706 4.246-7.45 8.485-11.411 12.49-4.203 4.27-8.608 8.41-14.126 10.823-2.865 1.248-6.015 1.834-9.119 2.555-1.741.32-3.498.547-5.263.677l-.067.684c3.819 1.646 7.653 3.269 11.457 4.945 3.976 1.751 7.968 3.465 11.878 5.35 4.886 2.36 9.69 4.879 14.539 7.321 5.089 2.563 10.194 5.096 15.261 7.703a5.26 5.26 0 012.3 1.842c.436.841.241 2.014.286 2.578-6.014 1.037-11.457 1.991-16.922 2.908-1.85.308-3.722.511-5.579.752-6.014.879-11.968 1.788-17.952 2.63-1.323.188-1.706.887-1.827 2.135-.496 5.35-1.03 10.71-1.676 16.045a8.53 8.53 0 01-5.917 7.448c-4.623 1.684-9.299 3.157-14.246 3.592-8.209.752-16.411 1.872-24.628 2.075-7.472.188-14.975-.662-22.463-1.03a2943.52 2943.52 0 00-21.388-.999c-7.946-.339-15.915-.339-23.831-.992a333.384 333.384 0 01-25.463-3.127c-4.879-.752-9.607-2.48-14.411-3.758-3.067-.811-6.18-1.503-9.21-2.405-3.999-1.217-7.825-2.818-10.735-6.012a2.48 2.48 0 01-.623-2.81 21.73 21.73 0 001.037-5.886c.173-5.193.068-10.394.21-15.587.046-1.555-1.187-1.736-1.984-2.112-5.849-2.698-11.698-5.478-17.667-7.868-6.382-2.6-12.893-4.878-19.366-7.253-2.135-.797-4.33-1.533-5.645-3.773zm210.61.64c-1.819-1.03-3.624-2.09-5.466-3.06-.36-.188-.902 0-1.36 0v.421l6.871 2.638c2.774 1.285 5.525 2.615 8.322 3.84 1.504.647 3.007 1.113 4.511 1.662l.233-.617c-2.646-1.127-5.3-2.33-8.014-3.382-1.646-.601-3.391-.984-5.097-1.503zM96.508 51.64c-1.503.18-3.007.315-4.51.548-3.496.534-6.992 1.075-10.473 1.699a36.68 36.68 0 00-3.759 1.075c6.631.789 12.517-2.075 18.712-3.367l15.216-1.834-.045-.519a2.383 2.383 0 00-.692-.135c-4.578.519-9.156 1.045-13.727 1.623-.286.03-.489.587-.722.91zm72.997 2.111l-4.999-.939-.083.894h5.105c.331.24.631.64.992.7 3.353.6 6.714 1.104 10.066 1.713 3.662.669 7.308 1.443 10.969 2.104 1.233.226 2.496.24 3.759.354v-.489c-1.421-.398-2.827-.894-4.27-1.165a253.006 253.006 0 00-11.57-1.992c-3.293-.488-6.631-.796-9.969-1.18zm36.988 18.827c-.805-.466-1.414-.864-2.068-1.188a40.876 40.876 0 00-4.142-1.939c-1.917-.691-3.902-1.187-5.856-1.788-.489-.15-.94-.398-1.752-.752l1.977-1.06-14.674-3.757.15-.684c1.3.21 2.616.39 3.909.654 1.895.376 3.759.91 5.668 1.142.489.06 1.083-.752 1.632-1.15-.474-.345-.902-.902-1.421-1.007-2.015-.42-4.067-.646-6.082-1.037-2.676-.511-5.337-1.105-8.006-1.661l.105-.646c1.083.135 2.173.24 3.248.42 3.007.512 6.014 1.098 9.021 1.564.458.067.992-.323 1.503-.496l-.082-.504c-.526-.082-1.053-.158-1.579-.255l-5.338-.985c-3.758-.706-7.57-1.503-11.389-2.082-5.067-.751-10.164-1.217-15.238-1.856a5.438 5.438 0 01-1.504-.706l.196-.399 8.352.7.052-.587c-2.172-.316-4.345-.684-6.525-.947-6.826-.827-13.652-1.699-20.501-2.367-2.18-.21-4.593-1.023-6.54.954-.203.21-.752.15-1.09.15-9.585 0-19.163.309-28.635 1.88-3.511.578-6.932 1.675-10.397 2.54l.135.751 28.86-3.277.136.752a29.319 29.319 0 01-3.233.684c-6.014.601-12.081 1.044-18.103 1.758a85.42 85.42 0 00-9.344 1.82c-3.706.864-7.375 1.878-11.051 2.878a9.025 9.025 0 00-1.7.871l.249.594c3.759-.812 7.518-1.503 11.156-2.48 4.142-1.142 8.217-2.495 12.593-2.315.41.055.816.148 1.21.278v.526c-8.007.113-15.276 3.187-22.877 4.938l.09.549 2.256.413c-.526 1.458-5.39 2.533-.308 4.119a6.015 6.015 0 00-1.594 1.03c-.248.315-.308 1.24-.12 1.36 1.067.668 1.36 1.428.533 2.42a25.044 25.044 0 01-1.932 1.916 1.676 1.676 0 01-.135-.12l.293-4.788-.902-.105c-1.579 2.894.068 6.373-1.504 9.35v-8.373c-1.713 0-2.255.752-2.12 2.06.076.751.188 1.503.234 2.254.12 1.932.218 3.863.323 5.795l-.752.075-1.037-6.193-.654-.15c-.358.883-.627 1.8-.805 2.735-.195 2.052-.173 4.119-.346 6.17a5.117 5.117 0 01-.751 1.556l-.61-.18v-3.593h-.518l-.384 3.134h-.57v-6.764h-.354l-1.09 8.132-.752-.105.804-8.154c-.684.323-1.165.42-1.18.57-.3 3.007-.556 5.976-.812 8.96h-.488v-6.938h-.647c-2.255 2.127-.406 5.149-1.293 7.569h-.504l-.353-5.577h-.752l-.489 7.824-1.443-.707-.346 4.675c.752-.45 1.263-.691 1.707-.992a39.099 39.099 0 0112.945-5.381 91.949 91.949 0 0111.42-1.841 317.976 317.976 0 0115.118-1.353 152.74 152.74 0 0111.277-.338c6.886.06 13.78.127 20.658.458 4.609.225 9.187.917 13.78 1.405 8.886.947 17.802 1.684 26.651 2.916 8.51 1.188 16.96 2.841 25.417 4.412a86.945 86.945 0 019.984 2.45c4.187 1.308 8.322 2.81 12.404 4.427 2.586 1.022 5.037 2.405 7.826 3.757-.128-.428-.263-1.022-.474-1.585-.541-1.428-3.172-2-1.849-4.42l-2.255 1.504-.294-.316 2.391-3.262-.316-.225-2.571 1.743-.301-.338.752-1.969-3.172 1.338.113-2.12-1.421.52-.572-2.488-.398.075-.436 2.036h-.496l-.256-3.57-.421.038-.293 2.255h-.571l-1.173-9.598-.429-.142-1.353 2.9c-.474-1.615-.391-2.645.902-3.562 1.053-.751 2.353-1.54 1.827-3.615l-3.608 2.961-.391-.39 1.661-2.157-3.007-1.639.18-.42 2.797.503.188-.669c-3.631-1.931-7.616-2.908-11.638-3.968a10.282 10.282 0 014.887.39c1.406.61 2.218.52 2.797-.578zM19.233 55.382c.436-.623.55-1.014.752-1.082 3.654-1.09 7.315-2.142 11.141-3.254-2.075-.661-14.524 2.608-15.268 3.938C29.54 59.2 42.35 65.558 55.815 71.398c.3-2.405 1-4.442.691-6.313-.45-2.706 1.166-3.878 2.812-5.156 5.638-4.351 12.51-5.764 19.11-7.673 5.262-1.503 10.72-2.255 16.058-3.517 7.773-1.834 15.712-2.42 23.613-2.766 7.232-.316 14.509.549 21.801.496 13.089-.083 26.125.173 38.905 3.435 3.255.834 6.585 1.435 9.773 2.45 7.179 2.254 14.283 4.764 21.44 7.124 5.661 1.872 11.089 4.156 15.299 8.568 2.526 2.645 5.007 5.306 4.142 9.545-.398 1.969-.24 4.05-.353 6.373l37.476-5.742.075-.48-2.594-1.677c-6.014 3.006-12.336 3.262-18.794 2.743 4.887-.48 9.923-.135 14.442-2.668-1.737.06-3.429.474-5.143.609-4.51.346-4.51.3-4.946-.646 2.654-.459 5.495.21 7.871-1.406-.779.156-1.548.362-2.301.617-1.263.203-1.714-1.09-.751-2.413-3.248-1.338-6.451-2.638-9.638-3.998a6.582 6.582 0 01-1.361-1.075l.346-.549 16.193 7.185.466-.669c-.406-.255-.797-.54-1.218-.751-3.119-1.669-6.172-3.487-9.382-4.953-7.096-3.254-14.283-6.238-21.395-9.514-8.315-3.886-16.584-7.997-24.944-11.913-6.307-2.96-12.63-5.884-19.035-8.62-8.668-3.705-17.373-7.365-26.177-10.725-2.811-1.074-5.894-1.886-9.089-1.217-4.142.864-8.307 1.578-12.456 2.397-1.677.331-3.338.752-5.007 1.113 7.157.834 13.84-1.82 20.899-2.946l-.233 1.803c.511-.204 1.036-.37 1.571-.496.993-.142 2.135-.57 2.962-.248 5.751 2.255 11.45 4.652 17.141 7.05.85.422 1.669.904 2.45 1.443l-.27.398-19.832-8.004-.278.556 5.954 3.375-.286.54a6.236 6.236 0 01-1.143-.322c-1.556-.752-3.052-1.706-4.66-2.353a8.147 8.147 0 00-3.759-.751c-4.398.533-8.766 1.33-13.149 1.999a3.371 3.371 0 01-1.346-.165c-.654-.18-1.3-.654-1.939-.624-1.616.067-3.225.39-4.842.533-1.105.098-2.691.549-3.232 0-1.023-1.022-1.932-.668-2.895-.488-5.262 1-10.524 2.074-15.787 3.111-4.285.842-8.585 1.624-12.87 2.503a4136.853 4136.853 0 00-26.034 5.449c-4.27.91-8.525 1.939-12.78 2.908-3.654.834-7.307 1.676-10.976 2.465-1.173.248-2.631-.09-2.699 1.834 0 .226-.752.511-1.218.616a4425.649 4425.649 0 01-19.892 4.75c-.932.226-1.962.481-3.368.834zM154.47 91.735l-.677-1.097-.406.428a20.045 20.045 0 00-3.15-.954c-1.503-.196-3.112-.143-4.661-.263-.406 0-1.022-.572-1.165-.444-1.571 1.353-3.195.459-4.826.293-1.632-.165-3.458-.864-5.21.451-6.39 4.803-12.878 9.485-19.328 14.22-1.601 1.18-3.18 2.382-5.21 3.908l2.887.458.037.376-3.074.458a54.543 54.543 0 009.126 1.158c13.136.556 26.275 1.057 39.416 1.503 1.864.06 3.548.158 5.488-1.293 5.037-3.758 10.6-6.861 15.937-10.243 1.384-.872 2.707-1.834 4.06-2.759l-.504-.804c-3.947 1.699-7.209 4.652-11.036 6.591-3.826 1.939-7.675 4.074-11.51 6.118l-.263-.391c6.082-5.065 14.231-7.019 19.99-12.844a10.175 10.175 0 00-4.466-.045c-1.075.293-1.984 1.233-2.946 1.909-4.804 3.374-9.601 6.764-14.42 10.108a8.064 8.064 0 01-1.789.692l-.278-.579a113.9 113.9 0 0018.794-13.317 6.12 6.12 0 00-1.15-.384c-3.24-.24-6.488-.45-9.735-.676a9.368 9.368 0 01-1.654-.166c-1.707-.435-3.398-.924-5.202-1.428l.488-1.352-.3-.203-1.632 1.841a4.442 4.442 0 01.203-1.758c.113-.985-.737-.82-1.834.488zm-24.252.549l-.444-.752c-4.097 1.992-7.623 4.945-11.442 7.38-3.819 2.435-7.518 5.171-11.314 7.779 5.315-6.268 12.953-9.425 19.133-14.61-.557-.21-1.143-.399-1.504-.18-7.931 5.095-15.84 10.228-23.861 15.421 2.105 1.503 6.488 1.601 8.156.399 5.468-3.974 10.959-7.93 16.472-11.868 1.586-1.172 3.187-2.382 4.804-3.57zm56.721 6.012c-4.413 1.157-7.871 4.058-11.645 6.336-3.774 2.277-7.518 4.892-11.277 7.35a43 43 0 007.871.413c.479-.051.93-.248 1.293-.563 1.188-.962 2.256-2.112 3.504-2.962 3.285-2.202 6.675-4.238 9.968-6.418 1.316-.872 2.496-1.961 3.759-2.953l-.346-.58a8.956 8.956 0 00-1.962.557c-.864.466-1.616 1.142-2.451 1.683a1116.634 1116.634 0 01-8.893 5.712c-2.406 1.503-4.841 3.006-7.262 4.51l-.361-.534c5.563-4.705 12.517-7.463 17.794-12.573l.008.022zM88.803 86.143l-.113-.811c-2.015.285-4.022.691-6.014.842A60.16 60.16 0 0066.67 89.51a33.081 33.081 0 00-10.712 5.923c-1.023.879-1.106 1.706.037 2.375a255.49 255.49 0 008.57 4.764 5.495 5.495 0 001.82.241c-2.572-1.894-5.015-3.578-7.315-5.434-1.353-1.09-1.263-2.255.248-3.149 1.113-.691 2.548-.857 3.699-1.503 5.976-3.39 12.554-4.69 19.223-5.674 2.157-.368 4.36-.647 6.563-.91zm33.829 6.253l-.278-.871c-.946.182-1.87.462-2.759.834-1.3.699-2.458 1.653-3.759 2.427-5.262 3.224-10.577 6.411-15.847 9.643-.263.158-.579.593-.519.804a1.035 1.035 0 00.752.639 3.807 3.807 0 001.706-.474c4.21-2.59 8.405-5.206 12.585-7.846 2.714-1.736 5.398-3.465 8.089-5.186l.03.03zm66.517 13.528l-.346-.676c-.834.306-1.639.685-2.405 1.135-1.662 1.172-3.195 2.533-4.879 3.667-.843.411-1.735.712-2.654.895v-.331l12.261-8.951c-1.894-.278-15.689 8.771-16.584 10.74 3.195-.752 6.766.601 9.021-2.743.218-.316.752-.436 1.076-.677 1.488-1.045 2.977-2.059 4.473-3.096l.037.037zm-9.555 9.53c-2.082-.338-5.337-1.09-8.638-1.368-8.014-.669-16.043-1.225-24.057-1.608-4.683-.226-9.382-.038-14.073 0h-3.202c.996.43 2.072.643 3.157.624 10.42.225 20.839.27 31.221 1.608 5.548.676 11.217.541 15.592.744zm-75.621-5.058c-2.691-.481-5.187-.887-7.668-1.383-2.48-.496-5.104-1.082-7.66-1.638-2.556-.556-4.947-1.165-7.443-1.639-2.496-.473-4.97-.804-7.457-1.195 9.855 3.871 26.108 6.87 30.228 5.848v.007zm88.973-17.15l-.113.639 1.579.39c3.367.834 6.766 1.503 10.088 2.548a131.785 131.785 0 0112.781 4.554c2.751 1.18 6.532 1.376 7.089 5.6.413-1.226.661-2.203-.564-3.157-3.579-2.796-7.841-4.156-12.028-5.63-4.188-1.472-8.526-2.51-12.781-3.652-1.977-.533-4.029-.879-6.059-1.3l.008.008zm-74.343-1.368l-.481-.7-23.102 13.529.15.548c.571.038 1.3.324 1.699.083 7.27-4.479 14.494-8.98 21.734-13.468v.008zm-25.47 10.409a75.589 75.589 0 0016.915-10.928c-.632-.188-1.369-.42-1.775-.15-4.991 3.277-9.93 6.629-14.87 9.988-.173.105-.143.519-.278 1.082l.008.008zm12.66-10.522l-.279-.691c-.493.08-.975.219-1.436.413-.962.541-1.856 1.218-2.811 1.774-2.722 1.578-5.45 3.156-8.21 4.674-1.105.61-1.653 1.338-1.112 3.007l13.848-9.177zm15.824-2.315c1.684 2.578 4.511 0 6.428 1.368 0 0 .098-.098.15-.098a5.936 5.936 0 011.857.113c1.662.647 2.895 0 3.391-2.142-4.285 0-8.495 0-12.705.053-.474 0-.932.699-1.399 1.075l.339.51 1.939-.879zm-22.102 10.635l.27.451c5.181-2.886 10.593-5.374 15.675-9.222-2.826-.398-3.24-.24-4.886 1.188a30.73 30.73 0 01-2.962 2.254c-2.692 1.781-5.398 3.548-8.104 5.329h.007zM27.383 49.16l.112.653 20.832-5.118-.15-.631a123.243 123.243 0 00-20.794 5.096zm164.638 57.463l-.556-.879-8.638 5.456c3.759 1.503 8.405-.097 9.126-3.051l-4.894 2.706-.346-.594 5.308-3.638zM101.688 91.9l-.226-.751c-.751 0-1.736-.3-2.255.045-3.413 2.12-6.766 4.374-10.066 6.629-.324.218-.429.751-.64 1.142l.34.225 12.847-7.29zm131.47-32.662l-.188.706 17.464 7.26.195-.48a112.489 112.489 0 00-17.471-7.486zm-84.439-11.364l21.576 1.759c-7.127-1.225-14.254-2.856-21.576-1.759zM95.531 92.066c-4.51-.654-6.819.992-7.12 4.84 2.496-1.443 5.015-2.578 7.15-4.84h-.03zm72.636-39.87v-.474c-5.789-.984-11.509-2.525-17.411-2.653l-.113.812 17.524 2.315zm38.175 60.598a40.254 40.254 0 0015.299-3.848l-.151-.564-15.148 4.412zM57.649 81.281c1.135-3.457 1.782-7.027 0-13.37v13.37zm131.199 31.64v-.706l-12.404 1.142.068.707c2.015-.211 4.022-.444 6.014-.624 1.992-.181 4.225-.353 6.322-.519zm-61.307-25.274v-.384h-14.359v.384h14.359zM83.713 56.525c-4.91-.549-8.84.48-9.946 2.563l9.946-2.563zm-9.42 46.859c-2.315-.992-4.014-3.495-7.066-2.961 1.518 3.006 4.743 1.939 7.066 2.961zm108.105-49.723l.113-.563-8.6-1.827-.128.64c2.842.713 5.563 2.073 8.615 1.75zm-82.544 54.277l.27-.834-9.878-1.503-.12.752 9.727 1.585zm-22.268-5.899l-.143.571c1.143 1.563 4.255 2.315 6.082.962l-5.939-1.533zm111.774 2.142c2.255.849 3.262-.511 4.428-1.285.323-.218.488-.684.751-1.045-.481-.135-1.127-.541-1.421-.361-1.21.714-2.3 1.608-3.758 2.691zm5.518 8.477l.037.699 9.022-1.067-.076-.699-8.983 1.067zm10.021-47.874c-1.759-1.638-2.917-.932-4.022-.045-.286.226-.639.752-.549.962.09.21.752.692.955.609 1.173-.406 2.315-.947 3.623-1.526h-.007zm-7.007 43.906c1.451-1.3 3.331-1.909 3.052-4.224-2.608.977-3.277 1.834-3.052 4.224zm-53.511-84.467l-.173-.752-8.269 1.962.135.646 8.307-1.856zm135.898-8.477c-1.173 1.503 1.331 5.26 3.759 5.937l-3.759-5.938zM105.695 32.573c2.932.669 5.706.06 6.728-1.443l-6.728 1.443zm79.643 81.536v.421h8.134v-.421h-8.134zm-84.5-24.05c1.85.075 3.428.564 4.586-1.353-1.729-.105-3.315-.811-4.586 1.383v-.03zM293.503 10.77l-.474.429c2.594 3.975 3.067 4.441 4.842 4.344l-4.368-4.773zm-134.65 14.813l-5.263-2.089c.015 1.729 2.97 2.863 5.263 2.09zm109.398 50.445l.443-.7-5.563-3.284-.353.594 5.473 3.39zM189.42 96.665l-6.014-.97c2.962 1.925 4.653 2.173 6.014.97zm1.744-32.955c2.255.6 3.428-.053 3.811-1.864-1.834-.707-2.653.684-3.811 1.864zm6.014 39.186l-.549-.677c-1.285.97-2.841 1.608-3.834 2.924l.572.691 3.811-2.938zM73.458 66.31l-1.42 2.645c.36.098.752.361 1.083.256 1.458-.511 1.172-1.593.338-2.901zM205.32 45.77c-3.639-3.104-3.639-3.104-5.436-2.766l5.436 2.766zm91.942-25.327l.676-.549-3.059-3.374-.655.578 3.038 3.345zm-84.718 52.345l.136.692c.533 0 1.278.218 1.563-.045a6.947 6.947 0 001.075-1.887l-.609-.518-2.165 1.758zm77.433-54.653l.654-.6-3.173-3.443-.601.549 3.12 3.494zM75.631 95.771l-.225-.15c-.872.931-1.782 1.826-2.579 2.81-.173.218.068.752.12 1.158.414-.158 1.038-.196 1.196-.489.586-1.067 1.007-2.21 1.488-3.33zm6.766-3.405l-1.015-.443-1.616 3.637.804.376 1.827-3.57zm-9.42-34.135l-.39-.504c-1.722.053-2.444 1.27-3.045 2.616l.36.428 3.076-2.54zm150.964 23.508l.872.136.587-3.856-.82-.128-.639 3.848zM87.577 95.463c-2.112.593-2.488 1.788-2.458 3.246l.48.293 1.978-3.54zm-6.112 1.465c2.203.248 2.255-1.225 2.706-2.367l-.518-.414-2.188 2.781zm33.236-7.56l.248.811c1.195-.052 2.579.429 3.052-1.72l-3.3.909zm93.46-21.532c1.301 1.007 2 .045 2.699-.64.173-.172.068-.623.098-.946-.752.3-1.451.579-2.15.917-.241.112-.398.398-.647.669zm9.39 18.037c1.925-.534 1.977-1.586 1.451-2.796l-.616-.173-.835 2.969zM66.828 71.023l.752.285c1.248-.594 1.263-1.548.398-3.247l-1.15 2.961zm127.802-6.847l.458.871 3.007-1.969-.473-.751-2.992 1.849zm-.264 46.017l.647.308c1.443-.526 1.225-1.706 1.113-2.841l-.542-.233-1.218 2.766zm21.862-30.588l-1-.353-1 2.705.963.346 1.037-2.698zm4.037 4.584c1.458-.383 1.722-1.728.654-3.645l-.654 3.645zM60.716 78.275c1.827-.564 1.842-1.594 1.338-2.766l-.579-.15-.759 2.916zm166.232-2.127l-.481-.045v3.231h.481v-3.186zm-20.125-2.676l.271 1.052 2.436-.563a4.782 4.782 0 00-.309-.947c-.804.098-1.601.285-2.398.458zm-97.61 15.858l-.293-.699c-.985-.067-2.082-.383-2.526 1.759l2.819-1.06zm-31.958 7.974l.647.233 1.601-4.314-.519-.195-1.729 4.276zm128.929-35.842h2.677c-1.181-1.698-1.827-1.66-2.677 0zM66.881 75.69l1.082.248.602-3.006-.865-.195-.82 2.953zm226.93-54.713l.639-.639c-.128-1.788-.887-2.48-2.413-1.81l1.774 2.45zm-100.219 88.541l-.383-.316-2.466 2.255c2.383.556 2.157-1.18 2.849-1.939zm-80.161-20.112l-.098-.609c-1.173-.428-2.098-.21-2.692.91l.211.586 2.579-.887z" fill="#9AC8FF"/><path d="M192.716 87.262l-5.766-1.044c-2.443-.451-4.879-.985-7.337-1.353-4.195-.616-8.39-1.3-12.607-1.654-6.766-.563-13.532-.864-20.351-1.315a3.966 3.966 0 01-1.217-.54c.413-.241.841-.752 1.24-.7 6.014.368 12.066.752 18.095 1.218 1.504.105 3.007.428 4.511.406.917 0 1.857-.752 2.729-.684 3.826.443 7.765.668 11.382 1.84 1.578.512 3.112 1.617 4.916 1.955 1.549.293 3.067.751 4.593 1.157l-.188.714zM91.625 78.997c.752-1.458 7.886-2.09 11.322-1.007-3.962 1.33-7.6.691-11.322 1.007zM24.32 55.547c.632-.796 16.772-5.027 18.043-4.223-2.053.579-4.157 1.187-6.225 1.75-2.067.565-4.21 1.068-6.315 1.602l.113.654 8.194-1.714.188.699-2.075.842.248 2.548 2.256 1.27-1.654.653 12.78 6.058-.33.751c-4.21-1.84-8.42-3.697-12.638-5.516s-8.397-3.592-12.585-5.373zm125.901-18.369l-23.59 2.54-.256-.157a4.72 4.72 0 011.346-.752c3.323-.526 6.653-1.06 9.998-1.45 3.601-.421 7.217-.7 10.833-1.023.519-.045 1.045 0 1.572 0l.097.842zm82.693 39.045c2-2.532 4.661-3.059 7.367-3.164 1.703-.017 3.39.321 4.955.992l-12.322 2.172zM143.781 39.45l13.006-2.052c-.211.542-.301 1.09-.444 1.098-4.179.368-8.269 1.736-12.479 1.615l-.083-.66z" fill="#9AC8FF"/><path d="M40.305 57.586c3.465-2.705 7.615-2.412 11.532-3.156l.143.631-11.675 2.525zm11.919-.436l-6.014 1.503-.218-.841 5.894-1.503.338.841zM235.977 76.9l5.262-1.248c-1.037 1.624-3.06 2.082-5.262 1.248zm-80.071 29.289l14.547-9.853.383.556c-4.397 3.931-9.652 6.636-14.426 10.026l-.504-.729zm-22.626-6.27l-10.336 5.847c-.038-.954-.046-.969 4.57-3.668 1.76-1.029 3.571-1.969 5.368-2.946l.398.767zm25.961.408l-6.097 4.216-.511-.752 6.104-4.193.504.729zm-29.468 3.457l5.744-3.202.451.804-5.774 3.194-.421-.796z" fill="#9AC8FF"/></svg>