<svg width="1289" height="1289" fill="none" xmlns="http://www.w3.org/2000/svg"><path d="M794.361 473.061l21.086-18.198 14.153 16.392-21.086 18.198-2.413-2.794 18.513-15.977-9.328-10.804-18.512 15.977-2.413-2.794zm36.425 42.55c-3.781-.81-6.766-2.981-8.957-6.512-2.191-3.532-2.816-7.181-1.875-10.948.978-3.759 3.197-6.709 6.656-8.852 3.552-2.201 7.183-2.874 10.894-2.021 3.734.839 6.703 3.035 8.909 6.59 2.219 3.578 2.879 7.206 1.979 10.884-.9 3.677-3.137 6.623-6.712 8.838-3.459 2.143-7.091 2.817-10.894 2.021zm-7.372-16.468c-.773 2.795-.338 5.516 1.305 8.165 1.643 2.649 3.882 4.237 6.716 4.765 2.872.537 5.631-.015 8.277-1.654 2.739-1.697 4.468-3.91 5.186-6.638.741-2.743.282-5.45-1.375-8.122-1.658-2.672-3.881-4.286-6.668-4.843-2.765-.571-5.517-.008-8.256 1.689-2.646 1.64-4.375 3.852-5.185 6.638zm31.26 42.502l-8.73 16.115-.115.044-1.56-4.101 7.913-14.577-11.761 4.458-1.326-3.488 11.76-4.458-15.608-5.661-1.56-4.101.115-.043 17.243 6.268 8.708-15.712.115-.043 1.531 4.024-8.053 14.324 11.799-4.473 1.326 3.488-11.761 4.458 15.507 5.392 1.516 3.986-.115.044-16.944-5.944zm27.891 50.239l.197 1.089-27.628 4.965-.664-3.672 16.697-3a61.795 61.795 0 013.813-.56c-.706-.373-2.105-1.204-4.199-2.494l-19.843-12.305-.19-1.049 27.628-4.964.657 3.63-16.536 2.972c-1.345.241-2.683.44-4.015.596 1.036.508 2.526 1.379 4.471 2.612l19.612 12.18zm-26.377 23.408c-.153-4.124.991-7.569 3.431-10.336l2.65 1.793c-1.938 2.284-2.847 5.064-2.726 8.341.065 1.748.583 3.192 1.555 4.333s2.223 1.685 3.752 1.63c1.502-.053 2.656-.628 3.463-1.723.807-1.095 1.178-2.517 1.114-4.264l-.143-3.851 3.236-.115.14 3.768c.052 1.42.503 2.512 1.351 3.275.85.79 1.916 1.162 3.2 1.116 1.392-.05 2.465-.608 3.219-1.674.781-1.039 1.141-2.405 1.078-4.099-.089-2.403-.975-4.559-2.659-6.467l2.517-1.813c2.223 2.437 3.392 5.211 3.507 8.325.098 2.648-.545 4.859-1.928 6.631-1.383 1.799-3.152 2.737-5.31 2.814-1.365.049-2.606-.249-3.724-.892-1.09-.645-1.901-1.505-2.433-2.58-.516 1.577-1.358 2.824-2.528 3.741-1.14.943-2.544 1.444-4.209 1.504-2.294.081-4.266-.751-5.917-2.497-1.65-1.745-2.529-4.066-2.636-6.96zm.94 21.838l27.719 2.953-.385 3.668-12.066-1.286-1.612 15.325 12.066 1.285-.386 3.668-27.719-2.952.386-3.668 12.27 1.307 1.611-15.325-12.269-1.307.385-3.668zm-1.692 37.306l-3.324 13.36-3.222-.806 4.215-16.939 27.047 6.765-4.125 16.581-3.222-.806 3.235-13.002-8.432-2.109-2.85 11.451-3.142-.786 2.849-11.451-9.029-2.258zm-9.712 24.031l25.797 10.589-1.397 3.412-11.229-4.609-5.835 14.256 11.229 4.609-1.396 3.412-25.797-10.588 1.397-3.412 11.418 4.687 5.835-14.256-11.418-4.687 1.396-3.413zm-12.927 30.461l23.919 14.34-1.893 3.163-10.412-6.242-7.911 13.215 10.412 6.242-1.894 3.163-23.919-14.34 1.893-3.163 10.588 6.348 7.911-13.216-10.588-6.347 1.894-3.163zm-2.605 54.411l-29.926-7.726-.063-.052 2.473-3.004 6.066 1.601 9.061-11.003-2.734-5.649 2.474-3.004.063.052 13.315 27.9-.729.885zm-4.478-4.433c-.988-1.769-1.748-3.191-2.279-4.266l-4.079-8.402-7.291 8.853 9.026 2.395c1.217.33 2.757.803 4.623 1.42zm-19.341 29.861l-8.109 7.276-18.63-20.756 2.774-2.489 7.507 8.363 4.451-3.994-2.019-13.287 3.109-2.79.083.091 1.976 13.547c1.853-1.002 3.681-1.356 5.485-1.064 1.801.331 3.359 1.229 4.674 2.694 1.626 1.811 2.339 3.853 2.14 6.125-.2 2.311-1.348 4.406-3.441 6.284zm-14.294-5.194l6.74 7.509 5.213-4.678c1.321-1.185 2.066-2.46 2.236-3.825.149-1.346-.297-2.599-1.338-3.759-1.041-1.16-2.239-1.738-3.593-1.735-1.375.021-2.723.625-4.045 1.81l-5.213 4.678zm-36.016 9.47l14.067 24.081-14.72 8.585-1.717-2.939 11.535-6.728-12.35-21.142 3.185-1.857zM734.8 855.844l-22.885-20.79-.032-.076 3.591-1.501 4.622 4.246 13.154-5.499.215-6.269 3.591-1.501.032.076-1.229 30.871-1.059.443zm-1.896-6.008c-.049-2.024-.058-3.635-.027-4.833l.309-9.33-10.584 4.424 6.873 6.328c.922.859 2.065 1.996 3.429 3.411zm-29.648-11.776l6.764 27.048-10.139 2.523c-2.704.672-5.05.355-7.038-.953-1.989-1.308-3.262-3.076-3.819-5.303-.557-2.228-.256-4.345.904-6.352 1.133-2 3.117-3.352 5.954-4.058l6.402-1.593-2.607-10.421 3.579-.891zm-.177 14.494l-6.203 1.543c-1.802.449-3.045 1.279-3.727 2.491-.702 1.245-.881 2.557-.536 3.936.358 1.432 1.167 2.527 2.426 3.284 1.233.763 2.658.944 4.275.542l6.322-1.573-2.557-10.223zm-40.192 22.037l-15.677-26.646-.008-.082 3.877-.365 3.153 5.427 14.199-1.337 2.069-5.918 3.877-.365.007.082-10.354 29.097-1.143.107zm-.024-6.297c.555-1.946 1.025-3.487 1.411-4.621l3.069-8.812-11.424 1.075 4.683 8.083c.626 1.094 1.379 2.519 2.261 4.275zm-24.822-20.006l-1.499 27.829-3.684-.203.653-12.114-15.389-.85-.653 12.113-3.683-.203 1.499-27.829 3.684.203-.664 12.319 15.389.85.664-12.318 3.683.203zm-55.115 21.669l.651-3.338 8.086 1.586 4.679-24.011 3.621.71-4.679 24.012 8.046 1.578-.65 3.338-19.754-3.875zm-37.01-10.933l-1.044-.366 9.261-26.493 3.521 1.235-5.597 16.012a62.158 62.158 0 01-1.387 3.595c.671-.431 2.083-1.238 4.235-2.422l20.461-11.189 1.006.353-9.261 26.493-3.483-1.222 5.544-15.857a66.09 66.09 0 011.454-3.788c-.951.651-2.442 1.517-4.471 2.6l-20.239 11.049zm-20.196-9.27l-9.64-5.106 13.018-24.626 3.298 1.746-5.246 9.923 5.292 2.803 11.769-6.468 3.697 1.958-.058.109-12.027 6.516c1.583 1.395 2.549 2.988 2.9 4.781.315 1.805.012 3.576-.907 5.314-1.136 2.149-2.804 3.521-5.006 4.117-2.238.607-4.601.251-7.09-1.067zm-.082-15.201l-4.71 8.908 6.198 3.283c1.57.832 3.025 1.092 4.364.782 1.316-.323 2.337-1.173 3.064-2.549.728-1.377.855-2.7.383-3.97-.497-1.283-1.531-2.34-3.102-3.172l-6.197-3.282zm-44.232-49.889l-20.731 18.601-14.465-16.117 20.73-18.601 2.466 2.747-18.2 16.331 9.534 10.622 18.2-16.33 2.466 2.747zm-37.185-41.74c3.795.738 6.821 2.852 9.079 6.341 2.258 3.489 2.952 7.126 2.084 10.911-.907 3.776-3.069 6.769-6.487 8.977-3.509 2.268-7.126 3.011-10.853 2.228-3.749-.767-6.76-2.907-9.032-6.419-2.288-3.536-3.017-7.15-2.187-10.844.83-3.694 3.011-6.683 6.543-8.965 3.417-2.209 7.035-2.952 10.853-2.229zm7.685 16.325c.719-2.809.232-5.522-1.461-8.139-1.694-2.616-3.962-4.162-6.806-4.636-2.881-.482-5.629.122-8.244 1.812-2.706 1.749-4.392 3.994-5.057 6.736-.689 2.756-.179 5.454 1.529 8.094 1.708 2.64 3.961 4.212 6.759 4.715 2.775.518 5.515-.097 8.222-1.846 2.614-1.69 4.3-3.935 5.058-6.736zm-32.467-42.728l8.489-16.244.114-.045 1.621 4.077-7.694 14.694 11.692-4.633 1.379 3.467-11.693 4.634 15.691 5.427 1.62 4.078-.114.045-17.334-6.011-8.473 15.84-.114.046-1.59-4.002 7.838-14.442-11.731 4.648-1.378-3.467 11.693-4.634-15.585-5.16-1.575-3.963.114-.046 17.03 5.691zm-28.48-48.588l-.217-1.085 27.531-5.469.732 3.658-16.639 3.305c-1.233.245-2.5.455-3.802.63.712.36 2.127 1.166 4.244 2.418l20.064 11.939.209 1.046-27.531 5.469-.724-3.618 16.479-3.274a66.962 66.962 0 014.003-.67c-1.045-.489-2.551-1.332-4.518-2.53l-19.831-11.819zm25.837-24.105c.228 4.121-.853 7.586-3.243 10.397l-2.682-1.744c1.897-2.319 2.755-5.116 2.574-8.39-.097-1.746-.641-3.181-1.634-4.304-.992-1.124-2.252-1.644-3.78-1.562-1.501.081-2.645.676-3.432 1.786-.787 1.11-1.132 2.538-1.035 4.284l.212 3.847-3.233.174-.208-3.765c-.078-1.419-.549-2.502-1.411-3.249-.864-.774-1.937-1.127-3.219-1.058-1.391.075-2.454.652-3.188 1.732-.763 1.053-1.097 2.426-1.004 4.118.133 2.401 1.058 4.54 2.777 6.418l-2.484 1.858c-2.267-2.396-3.486-5.149-3.658-8.259-.146-2.647.456-4.869 1.807-6.666 1.35-1.824 3.102-2.794 5.258-2.91 1.364-.074 2.611.201 3.74.825 1.101.624 1.928 1.469 2.479 2.534.487-1.586 1.307-2.848 2.459-3.786 1.124-.963 2.518-1.49 4.182-1.58 2.292-.123 4.279.673 5.961 2.389 1.681 1.715 2.602 4.019 2.762 6.911zm-1.375-22.094l-27.767-2.448.319-3.674 12.087 1.065 1.332-15.352-12.087-1.065.319-3.675 27.767 2.448-.319 3.675-12.291-1.084-1.332 15.352 12.291 1.083-.319 3.675zm.768-36.385l3.078-13.419 3.236.746-3.902 17.014-27.167-6.267 3.82-16.654 3.236.746-2.996 13.06 8.47 1.954 2.638-11.502 3.156.728-2.638 11.502 9.069 2.092zm9.424-25.052l-25.989-10.105 1.333-3.438 11.313 4.399 5.567-14.363-11.312-4.398 1.332-3.438 25.989 10.105-1.332 3.438-11.504-4.473-5.568 14.363 11.504 4.473-1.333 3.437zm12.167-30.438l-24.187-13.884 1.833-3.199 10.529 6.044 7.658-13.363-10.528-6.044 1.833-3.199 24.187 13.884-1.833 3.199-10.707-6.146-7.658 13.364 10.706 6.145-1.833 3.199zm1.039-53.893l30.069 7.15.064.051-2.415 3.051-6.096-1.485-8.847 11.176 2.841 5.596-2.415 3.051-.064-.051-13.849-27.64.712-.899zm4.563 4.346c1.021 1.75 1.808 3.157 2.36 4.222l4.24 8.322 7.119-8.992-9.07-2.221c-1.223-.306-2.772-.75-4.649-1.331zm19.416-31.099l7.996-7.401 18.948 20.467-2.736 2.532-7.634-8.247-4.389 4.062 2.224 13.255-3.067 2.838-.083-.09-2.185-13.515c-1.837 1.03-3.66 1.413-5.468 1.149-1.806-.303-3.378-1.177-4.715-2.622-1.653-1.786-2.398-3.816-2.234-6.092.165-2.313 1.279-4.425 3.343-6.336zm14.372 4.973l-6.854-7.404-5.14 4.758c-1.303 1.205-2.029 2.492-2.177 3.859-.129 1.348.337 2.594 1.395 3.738 1.059 1.144 2.266 1.704 3.62 1.679 1.375-.042 2.713-.666 4.016-1.872l5.14-4.758zm35.654-10.096l-14.522-23.809 14.554-8.864 1.772 2.906-11.405 6.946 12.749 20.904-3.148 1.917zm21.163-43.58l23.193 20.446.033.075-3.568 1.555-4.685-4.176-13.07 5.695-.121 6.271-3.568 1.555-.033-.076.767-30.886 1.052-.459zm1.986 5.979c.079 2.023.112 3.634.099 4.832l-.169 9.334 10.516-4.582-6.967-6.224c-.935-.845-2.095-1.965-3.479-3.36zm28.972 11.518l-7.261-26.919 10.091-2.709c2.691-.723 5.042-.448 7.054.823 2.012 1.271 3.317 3.015 3.915 5.232.598 2.217.336 4.339-.786 6.367-1.096 2.021-3.055 3.41-5.878 4.168l-6.371 1.71 2.797 10.372-3.561.956zm-.091-14.495l6.174-1.657c1.794-.482 3.021-1.335 3.681-2.559.679-1.258.833-2.573.463-3.945-.384-1.425-1.213-2.505-2.486-3.239-1.246-.741-2.674-.895-4.284-.463l-6.292 1.689 2.744 10.174zm39.988-22.893l16.16 26.358.009.081-3.868.435-3.252-5.368-14.172 1.595-1.961 5.955-3.869.435-.009-.081 9.822-29.281 1.14-.129zm.14 6.296c-.52 1.957-.962 3.505-1.327 4.646l-2.908 8.867 11.402-1.283-4.829-7.996c-.645-1.083-1.425-2.494-2.338-4.234zm25.223 19.483l.994-27.853 3.686.137-.432 12.124 15.402.57.432-12.124 3.686.137-.993 27.853-3.686-.137.439-12.329-15.401-.57-.44 12.328-3.687-.136zm55.482-22.567l-.601 3.347-8.109-1.467-4.327 24.078-3.63-.658 4.326-24.078-8.068-1.46.601-3.348 19.808 3.586zm36.404 10.021l1.051.347-8.768 26.661-3.543-1.17 5.299-16.113c.393-1.194.833-2.4 1.32-3.62-.663.443-2.06 1.276-4.189 2.5l-20.25 11.566-1.012-.334 8.768-26.66 3.504 1.157-5.248 15.957a65.7 65.7 0 01-1.384 3.814c.939-.668 2.413-1.562 4.422-2.682l20.03-11.423zm21.367 9.309l9.716 4.96-12.644 24.82-3.324-1.696 5.095-10.002-5.333-2.722-11.67 6.645-3.726-1.902.056-.109 11.927-6.698c-1.603-1.37-2.594-2.949-2.972-4.737-.341-1.799-.066-3.575.827-5.327 1.103-2.166 2.751-3.563 4.943-4.192 2.229-.64 4.597-.32 7.105.96zm.312 15.199l4.574-8.98-6.246-3.188c-1.583-.808-3.041-1.047-4.376-.716-1.31.343-2.318 1.208-3.025 2.595-.706 1.387-.814 2.712-.322 3.975.516 1.276 1.566 2.317 3.149 3.125l6.246 3.189z" fill="#233550"/><circle opacity=".1" cx="644.5" cy="644.5" r="364" stroke="#fff"/><circle opacity=".1" cx="644.5" cy="644.5" r="445" stroke="#fff"/><circle opacity=".1" cx="644.5" cy="644.5" r="541" stroke="#fff"/><circle opacity=".1" cx="644.5" cy="644.5" r="644" stroke="#fff"/></svg>