<svg width="140" height="36" fill="none" xmlns="http://www.w3.org/2000/svg"><path d="M0 18.135v-.465l2.204-.884L8.703 0h.36L15.2 17.338l2.07.332v.465h-6.612v-.465l1.844-.287-1.912-5.242H4.61l-1.822 4.645 2.024.884v.465H0zm4.79-6.458h5.644L7.736 3.892 4.79 11.677zm25.967 6.679c-.84 0-1.47-.2-1.889-.597-.42-.398-.705-1.077-.854-2.035l-.54-3.738c-.15-1.046-.472-1.806-.967-2.277-.495-.472-1.29-.708-2.384-.708h-1.889v8.338l2.07.331v.465h-6.612v-.465l2.069-.332v-16.1l-2.07-.31V.443h6.612V.93l-2.069.31v7.23h2.361a2.539 2.539 0 001.844-.818c.51-.546.877-1.268 1.102-2.167l.697-2.787c.21-.826.525-1.445.945-1.858a2.18 2.18 0 011.552-.619c.494 0 .922.14 1.281.42.375.28.562.65.562 1.106 0 .428-.127.774-.382 1.04-.24.265-.562.398-.967.398h-.45c-.24-.634-.614-.951-1.124-.951-.495 0-.802.25-.922.752l-.697 2.786c-.18.693-.442 1.283-.787 1.77-.345.471-.742.81-1.192 1.017 1.244.147 2.196.5 2.856 1.061.66.56 1.064 1.32 1.214 2.278l.518 3.34c.12.751.247 1.275.382 1.57.135.295.33.471.584.53a.695.695 0 00.203.023c.45 0 .922-.251 1.417-.752l.382.398c-.81.9-1.762 1.349-2.856 1.349z" fill="#0F1826"/><path d="M32.765 18.135v-.465l2.203-.884L41.468 0h.359l6.14 17.338 2.068.332v.465h-6.611v-.465l1.844-.287-1.912-5.242h-5.981l-1.822 4.645 2.024.884v.465h-4.812zm4.79-6.458h5.644L40.5 3.892l-2.946 7.785z" fill="#0F1826"/><path d="M48.882 17.582h.742c.495 0 .99-.2 1.485-.597.494-.413.96-1.07 1.394-1.969.405-.84.72-1.85.944-3.03.225-1.179.405-2.948.54-5.307l.292-4.755-2.383-.973V.442H65.05V.93l-2.092.31v16.343h1.934L65.231 23h-.675l-2.339-4.865H51.558L49.22 23h-.675l.337-5.418zm11.604 0V.995h-5.532l-.36 5.684c-.165 2.433-.36 4.253-.584 5.462-.225 1.195-.533 2.227-.922 3.097-.24.53-.495.973-.765 1.326-.255.34-.487.598-.697.774-.21.177-.315.258-.315.244h9.175zm6.551.553v-.465l2.068-.332v-16.1l-2.069-.31V.443h13.538v5.065h-.607L78.235.995H71.58v7.962h2.923L75.83 5.75h.585v6.989h-.585l-1.35-3.252h-2.9v8.117h7.06l1.845-4.865h.585v5.396H67.037zm25.561.221L85.897 1.238v15.548l2.158.884v.465h-4.812v-.465l2.114-.884V1.238l-2.069-.31V.443h4.97l5.644 14.198L99.66.442h4.542V.93l-2.069.31v16.1l2.069.331v.465H97.59v-.465l2.069-.332V1.902l-6.656 16.454h-.405zm13.284-.221v-.465l2.068-.332v-16.1l-2.068-.31V.443h6.611V.93l-2.069.31v14.33l8.77-13.711v-.62l-2.091-.31V.443h6.656V.93l-2.091.31v16.1l2.091.331v.465h-6.656v-.465l2.091-.332V2.899l-8.77 13.71v.73l2.069.332v.465h-6.611zm21.053.221c-1.094 0-2.046-.45-2.856-1.35l.382-.397c.495.5.967.752 1.417.752.09 0 .157-.008.202-.023.255-.059.45-.235.585-.53.135-.295.262-.819.382-1.57l.338-2.124c.18-1.076.584-1.872 1.214-2.388.645-.516 1.589-.863 2.833-1.04v-.132c-3.133-.413-4.699-1.887-4.699-4.423 0-1.593.569-2.772 1.709-3.539 1.139-.766 2.93-1.15 5.374-1.15H140V.93l-2.069.31v16.1l2.069.331v.465h-6.611v-.465l2.069-.332v-7.54h-1.754c-1.065 0-1.897.235-2.497.707-.584.457-.951 1.209-1.101 2.256l-.428 2.963c-.15.958-.434 1.637-.854 2.035-.42.398-1.05.597-1.889.597zm8.523-9.09V.996h-1.642c-2.908 0-4.363 1.223-4.363 3.67v.708c0 1.253.323 2.219.967 2.897.645.664 1.522.995 2.631.995h2.407zM0 32.856v-.223l.688-.11v-5.09L0 27.323V27.1h5.702v.222l-.688.111v5.09l.688.11v.223H3.441v-.223l.59-.11v-5.145H1.67v5.144l.59.111v.223H0zm8.934.111c-.471 0-.9-.123-1.287-.367a2.669 2.669 0 01-.925-1.056c-.222-.459-.334-.981-.334-1.566 0-.615.118-1.148.354-1.6.243-.452.557-.793.944-1.022A2.346 2.346 0 018.934 27c.374 0 .715.074 1.023.222.308.141.55.341.727.6.184.26.276.552.276.878 0 .244-.056.433-.168.567a.562.562 0 01-.442.189.566.566 0 01-.442-.2.727.727 0 01-.177-.5.633.633 0 00.206-.245c.04-.089.06-.2.06-.333a.84.84 0 00-.296-.667c-.19-.178-.445-.267-.767-.267-.471 0-.835.193-1.09.578-.25.378-.374.911-.374 1.6v1.111c0 .66.12 1.19.363 1.59.25.4.616.6 1.101.6.446 0 .833-.142 1.16-.423.335-.289.541-.667.62-1.133h.226c-.092.548-.321.985-.688 1.31-.36.327-.8.49-1.318.49zm2.673-.111v-.223l.689-.11v-5.09l-.689-.11V27.1h2.261v.222l-.59.111v4.323l2.488-4.1v-.223l-.59-.11V27.1h2.261v.222l-.688.111v5.09l.688.11v.223h-2.261v-.223l.59-.11v-4.4l-2.487 4.11v.29l.59.11v.223h-2.262zm11.173-.323l.63.1v.223h-2.4v-.223l.59-.11-1.356-2.1-1.446 1.955.797.255v.223h-1.76v-.223l.659-.277 1.592-2.19-1.77-2.744-.6-.1V27.1h2.4v.222l-.62.122 1.23 1.9 1.317-1.755-.777-.256v-.222h1.809v.222l-.718.29-1.474 1.977 1.897 2.933zm3.272.434c-.471 0-.9-.123-1.287-.367a2.669 2.669 0 01-.925-1.056c-.222-.459-.334-.981-.334-1.566 0-.585.112-1.104.334-1.556.23-.452.538-.8.925-1.044A2.31 2.31 0 0126.052 27c.472 0 .902.126 1.288.378.387.244.692.592.915 1.044.23.452.344.97.344 1.556 0 .585-.115 1.107-.344 1.566a2.597 2.597 0 01-.915 1.056 2.362 2.362 0 01-1.288.367zm0-.245c.486 0 .85-.2 1.092-.6.249-.4.373-.93.373-1.589v-1.11c0-.66-.124-1.186-.373-1.579-.243-.4-.606-.6-1.091-.6-.486 0-.852.2-1.102.6-.242.393-.363.919-.363 1.578v1.111c0 .66.12 1.19.363 1.59.25.4.616.6 1.101.6zm3.504.245c-.23 0-.41-.063-.54-.19-.132-.125-.197-.31-.197-.555 0-.207.055-.37.167-.489a.533.533 0 01.403-.177.44.44 0 01.265.077.477.477 0 01.158.145.683.683 0 01.068.1.411.411 0 00-.127.289c0 .118.065.177.196.177.446 0 .718-1.074.816-3.222l.06-1.322-.895-.478V27.1h4.414v.222l-.688.111v5.078l.707.111v.234h-2.3v-.234l.61-.11v-5.134H31.08L31 29.133c-.04.897-.115 1.623-.226 2.178-.105.556-.256.97-.452 1.245-.197.274-.453.41-.767.41zm8.046 0c-.472 0-.901-.123-1.288-.367a2.669 2.669 0 01-.924-1.056c-.223-.459-.334-.981-.334-1.566 0-.585.111-1.104.334-1.556.23-.452.538-.8.924-1.044A2.31 2.31 0 0137.602 27c.472 0 .901.126 1.288.378.387.244.691.592.914 1.044.23.452.344.97.344 1.556 0 .585-.114 1.107-.344 1.566a2.598 2.598 0 01-.914 1.056 2.362 2.362 0 01-1.288.367zm0-.245c.485 0 .849-.2 1.092-.6.248-.4.373-.93.373-1.589v-1.11c0-.66-.124-1.186-.373-1.579-.243-.4-.607-.6-1.092-.6-.485 0-.852.2-1.1.6-.243.393-.365.919-.365 1.578v1.111c0 .66.122 1.19.364 1.59.25.4.616.6 1.101.6zm3.23.134v-.223l.688-.11v-5.09l-.688-.11V27.1h4.296l.148 2.111H45l-.865-1.833h-1.632v5.144l.885.111v.223h-2.556zm4.916 0v-.223l.688-.11v-5.09l-.688-.11V27.1h2.26v.222l-.59.111v4.323l2.488-4.1v-.223l-.59-.11V27.1h2.261v.222l-.688.111v5.09l.688.11v.223h-2.26v-.223l.589-.11v-4.4l-2.487 4.11v.29l.59.11v.223h-2.261zm6.365 0v-.223l.688-.11v-5.09l-.688-.11V27.1h2.26v.222l-.589.111v4.323l2.487-4.1v-.223l-.59-.11V27.1h2.262v.222l-.689.111v5.09l.689.11v.223H55.68v-.223l.59-.11v-4.4l-2.487 4.11v.29l.59.11v.223h-2.261zm8.717 0v-.223l.688-.11v-5.09l-.688-.11V27.1h2.261v.222l-.59.111v4.323l2.488-4.1v-.223l-.59-.11V27.1h2.261v.222l-.688.111v5.09l.688.11v.223H64.4v-.223l.59-.11v-4.4l-2.488 4.11v.29l.59.11v.223h-2.26zm8.718 0v-.223l.688-.11v-5.09l-.688-.11V27.1h5.702v.222l-.689.111v5.09l.689.11v.223h-2.261v-.223l.59-.11v-5.145h-2.36v5.144l.59.111v.223h-2.261zm8.934.111c-.472 0-.901-.123-1.288-.367a2.669 2.669 0 01-.924-1.056c-.223-.459-.334-.981-.334-1.566 0-.615.118-1.148.354-1.6.242-.452.557-.793.944-1.022A2.346 2.346 0 0178.482 27c.374 0 .715.074 1.022.222.309.141.551.341.728.6.183.26.275.552.275.878 0 .244-.055.433-.167.567a.562.562 0 01-.442.189.566.566 0 01-.443-.2.727.727 0 01-.177-.5.634.634 0 00.207-.245c.04-.089.059-.2.059-.333a.84.84 0 00-.295-.667c-.19-.178-.446-.267-.767-.267-.472 0-.836.193-1.091.578-.25.378-.374.911-.374 1.6v1.111c0 .66.121 1.19.364 1.59.25.4.616.6 1.101.6.446 0 .832-.142 1.16-.423.334-.289.54-.667.62-1.133h.226c-.092.548-.322.985-.689 1.31-.36.327-.8.49-1.317.49zm2.673-.111v-.223l.688-.11v-5.09l-.688-.11V27.1h2.261v.222l-.59.111v4.323l2.488-4.1v-.223l-.59-.11V27.1h2.26v.222l-.687.111v5.09l.688.11v.223h-2.261v-.223l.59-.11v-4.4l-2.488 4.11v.29l.59.11v.223h-2.261zm11.173-.323l.629.1v.223h-2.399v-.223l.59-.11-1.357-2.1-1.445 1.955.796.255v.223h-1.76v-.223l.66-.277 1.592-2.19-1.77-2.744-.6-.1V27.1h2.4v.222l-.62.122 1.229 1.9 1.317-1.755-.776-.256v-.222h1.809v.222l-.718.29L90.43 29.6l1.898 2.933zm3.272.434c-.472 0-.901-.123-1.288-.367a2.669 2.669 0 01-.924-1.056c-.223-.459-.334-.981-.334-1.566 0-.585.111-1.104.334-1.556.23-.452.538-.8.924-1.044A2.31 2.31 0 0195.6 27c.472 0 .901.126 1.288.378.387.244.691.592.914 1.044.23.452.344.97.344 1.556 0 .585-.114 1.107-.344 1.566a2.598 2.598 0 01-.914 1.056 2.362 2.362 0 01-1.288.367zm0-.245c.485 0 .849-.2 1.091-.6.25-.4.374-.93.374-1.589v-1.11c0-.66-.124-1.186-.374-1.579-.242-.4-.606-.6-1.09-.6-.486 0-.853.2-1.102.6-.242.393-.364.919-.364 1.578v1.111c0 .66.122 1.19.364 1.59.25.4.616.6 1.101.6zm4.36.134v-.223l.787-.11v-5.145h-.846l-.855 1.833h-.275l.147-2.111h4.641l.147 2.111h-.275l-.865-1.833h-.836v5.144l.787.111v.223H99.96zm6.97.111c-.485 0-.924-.123-1.317-.367a2.64 2.64 0 01-.934-1.056c-.23-.451-.344-.974-.344-1.566 0-.593.111-1.111.334-1.556.229-.452.534-.8.914-1.044a2.31 2.31 0 011.288-.378 2.037 2.037 0 011.878 1.178c.183.363.278.781.285 1.255h-3.618v1.1c0 .652.128 1.182.384 1.59.262.4.639.6 1.13.6.452 0 .852-.145 1.2-.434.347-.289.56-.663.639-1.122h.226c-.092.548-.325.985-.698 1.31-.374.327-.829.49-1.367.49zm1.023-3.811c0-.645-.089-1.123-.266-1.434-.177-.318-.452-.478-.826-.478-.439 0-.78.175-1.022.523-.243.348-.38.81-.413 1.389h2.527zm1.676 6.622l.688-.111v-8.223l-.688-.11v-.223h1.672v1.167c.163-.4.383-.711.658-.934.282-.23.616-.344 1.003-.344.465 0 .875.126 1.229.378.354.244.629.592.826 1.044.196.445.295.967.295 1.567s-.099 1.126-.295 1.578c-.197.444-.472.789-.826 1.033a2.11 2.11 0 01-1.229.367 1.57 1.57 0 01-1.003-.334 2.374 2.374 0 01-.658-.933v3.967l.924.11V36h-2.596v-.222zm3.235-3.09c.911 0 1.366-.714 1.366-2.144v-1.11c0-1.438-.455-2.156-1.366-2.156-.289 0-.551.096-.787.289a1.891 1.891 0 00-.56.755c-.138.319-.21.663-.216 1.034v1.188c0 .378.065.734.196 1.067.138.326.325.589.561.789.242.193.511.289.806.289zm4.754.279c-.419 0-.763-.123-1.032-.367-.269-.252-.403-.622-.403-1.111 0-.696.259-1.189.776-1.478.518-.296 1.118-.444 1.8-.444h.658v-.856c0-.385-.039-.681-.118-.889-.072-.215-.187-.363-.344-.444-.157-.09-.37-.134-.639-.134-.308 0-.537.07-.688.212-.151.133-.226.314-.226.544 0 .215.092.356.275.422a.713.713 0 01-.187.49.572.572 0 01-.442.21.6.6 0 01-.443-.166c-.111-.119-.167-.297-.167-.534 0-.43.19-.774.571-1.033.38-.26.855-.389 1.425-.389 1.311 0 1.966.644 1.966 1.933v3.178c0 .163.03.289.089.378a.332.332 0 00.275.122c.111 0 .2-.04.266-.122a.59.59 0 00.098-.356h.206c0 .26-.075.463-.226.611-.144.149-.347.223-.609.223-.302 0-.557-.097-.767-.29-.203-.2-.308-.507-.315-.921-.157.377-.4.674-.727.888a1.886 1.886 0 01-1.072.323zm.541-.49a.991.991 0 00.541-.177c.19-.118.35-.289.481-.511.131-.23.21-.504.236-.822V29.81h-.658c-.538 0-.941.137-1.21.411-.262.267-.393.645-.393 1.134 0 .407.085.696.256.866.17.17.419.256.747.256zm3.415.379v-.223l.688-.11v-5.09l-.688-.11V27.1h5.702v.222l-.688.111v5.09l.688.11v.223h-2.261v-.223l.59-.11v-5.145h-2.36v5.144l.59.111v.223h-2.261zm6.231 0v-.223l.688-.11v-5.09l-.688-.11V27.1h2.261v.222l-.59.111v4.323l2.487-4.1v-.223l-.589-.11V27.1h2.261v.222l-.688.111v5.09l.688.11v.223h-2.261v-.223l.589-.11v-4.4l-2.487 4.11v.29l.59.11v.223h-2.261zm6.365 0v-.223l.688-.11v-5.09l-.688-.11V27.1h2.261v.222l-.59.111v4.323l2.488-4.1v-.223l-.59-.11V27.1H140v.222l-.688.111v5.09l.688.11v.223h-2.261v-.223l.59-.11v-4.4l-2.488 4.11v.29l.59.11v.223h-2.261z" fill="#0F1826"/></svg>