<svg width="45" height="27" fill="none" xmlns="http://www.w3.org/2000/svg"><path d="M22.678 23.487c2.624-2.418 4.282-5.871 4.282-9.67 0-3.868-1.658-7.322-4.282-9.67C20.329 2.073 17.29.761 13.905.761 6.653.762.781 6.633.781 13.817c0 7.252 5.872 13.124 13.124 13.124 3.385-.07 6.424-1.382 8.773-3.454z" fill="#3362AB"/><path d="M22.68 23.485c2.625-2.417 4.282-5.871 4.282-9.67 0-3.868-1.657-7.322-4.282-9.67" fill="#3362AB"/><path d="M22.68 23.485c2.625-2.417 4.282-5.871 4.282-9.67 0-3.868-1.657-7.322-4.282-9.67" stroke="#3362AB" stroke-width=".31"/><path d="M31.45.691a13.073 13.073 0 00-8.773 3.385c-.484.414-.898.898-1.313 1.381h2.625c.346.415.691.898.967 1.382h-4.628a8.847 8.847 0 00-.76 1.381h6.148c.207.484.415.898.553 1.382h-7.253c-.138.483-.276.898-.414 1.381h8.012c.207.898.276 1.796.276 2.763 0 1.45-.207 2.832-.69 4.145h-7.253c.138.483.345.967.553 1.381h6.147a8.844 8.844 0 01-.76 1.382H20.26c.277.483.622.967.967 1.381h2.625c-.414.484-.829.967-1.312 1.382 2.348 2.072 5.387 3.384 8.772 3.384 7.253 0 13.055-5.871 13.055-13.124C44.573 6.563 38.702.691 31.45.691z" fill="#C9191B"/><path d="M12.249 16.994H10.59l.967-5.111-2.21 5.111h-1.45l-.276-5.042-.967 5.042h-1.45l1.242-6.63h2.556l.138 4.144 1.796-4.145h2.625l-1.312 6.631zm18.238-.002a3.832 3.832 0 01-1.175.207c-.829 0-1.312-.415-1.312-1.174 0-.138 0-.346.07-.484l.068-.552.07-.415.759-4.144h1.589l-.207 1.243h.828l-.207 1.312h-.829l-.414 2.28v.207c0 .276.207.415.552.415.208 0 .346 0 .415-.07l-.207 1.175zm4.697-5.317c-.139-.07-.139-.07-.208-.07h-.345c-.553 0-.898.208-1.45.898l.138-.829h-1.313l-.967 5.388h1.658c.552-3.315.829-3.868 1.588-3.868h.208l.207.07.483-1.59zm-11.195 1.656c0 .69.414 1.174 1.243 1.52.69.276.76.345.76.621 0 .346-.276.484-.967.484a5.26 5.26 0 01-1.45-.207l-.208 1.243h.07l.276.07c.069 0 .276.068.414.068.414 0 .69.07.898.07 1.727 0 2.556-.553 2.556-1.797 0-.76-.346-1.174-1.175-1.52-.69-.276-.76-.345-.76-.621s.277-.414.83-.414c.345 0 .76 0 1.174.069l.207-1.244a10.302 10.302 0 00-1.45-.138c-1.797 0-2.418.829-2.418 1.796zm-7.595 1.312h-.346c-.898 0-1.381.277-1.381.83 0 .345.207.552.552.552.622-.07 1.106-.622 1.175-1.381zm1.174 2.349h-1.382l.07-.553c-.415.415-.967.622-1.727.622-.898 0-1.45-.622-1.45-1.45 0-1.313 1.035-2.073 2.831-2.073.207 0 .415 0 .69.07.07-.208.07-.277.07-.346 0-.345-.276-.484-1.036-.484-.484 0-.967.07-1.313.139l-.207.069-.138.069.207-1.244c.83-.207 1.313-.276 1.934-.276 1.382 0 2.142.553 2.142 1.589 0 .276 0 .483-.139 1.036l-.345 1.934-.069.345-.069.277v.207l-.07.069zm4.485-3.312v-.277c0-.415-.277-.69-.76-.69-.553 0-.898.345-1.036.966h1.796zm.829 3.246a6.815 6.815 0 01-1.658.207c-1.796 0-2.763-.83-2.763-2.418 0-1.865 1.174-3.246 2.832-3.246 1.312 0 2.21.76 2.21 1.934 0 .414-.069.76-.207 1.312H20.05v.138c0 .622.483.967 1.45.967.553 0 1.105-.138 1.727-.345l-.345 1.45zm15.679-3.042c0-.553-.207-1.106-.898-1.106-.829 0-1.312.967-1.312 1.865 0 .76.345 1.244.967 1.244.345 0 1.105-.484 1.243-1.313v-.69zm1.727.69c-.276 1.796-1.52 2.625-3.178 2.625-1.865 0-2.555-1.105-2.555-2.486 0-1.934 1.243-3.178 3.177-3.178 1.727 0 2.556 1.036 2.556 2.418.069.276.069.276 0 .621z" fill="#fff"/></svg>