<svg width="45" height="27" fill="none" xmlns="http://www.w3.org/2000/svg"><path d="M44.9 13.47c0 7.39-6.01 13.469-13.47 13.469-7.39 0-13.47-6.079-13.47-13.47C17.96 6.08 23.97 0 31.362 0 38.891 0 44.9 6.078 44.9 13.47z" fill="#F9B50B"/><path d="M26.87 13.539c0-.968-.138-1.935-.277-2.833h-8.288c.069-.483.207-.898.345-1.45h7.39c-.137-.484-.345-.967-.552-1.45h-6.285c.207-.484.483-.899.76-1.451h4.765a9.429 9.429 0 00-1.036-1.45h-2.625a13.02 13.02 0 011.382-1.382C20.1 1.313 16.923 0 13.4 0 6.078.207 0 6.078 0 13.47c0 7.39 6.01 13.469 13.47 13.469 3.522 0 6.63-1.382 9.048-3.523.484-.414.898-.898 1.381-1.45h-2.762a9.874 9.874 0 01-.968-1.382h4.698c.276-.415.552-.898.76-1.45H19.34a7.056 7.056 0 01-.553-1.451h7.391c.414-1.243.69-2.625.69-4.144z" fill="#C8191C"/><path d="M18.236 16.922l.207-1.243c-.069 0-.207.07-.345.07-.483 0-.552-.277-.483-.415l.414-2.487h.76l.207-1.381h-.69l.137-.83h-1.45s-.829 4.698-.829 5.25c0 .83.484 1.244 1.174 1.244.415 0 .76-.139.898-.208zm.483-2.28c0 2.003 1.381 2.487 2.486 2.487 1.037 0 1.52-.208 1.52-.208l.276-1.381s-.76.345-1.52.345c-1.588 0-1.312-1.174-1.312-1.174h2.901s.208-.898.208-1.312c0-.898-.484-2.073-2.073-2.073-1.381-.069-2.486 1.52-2.486 3.316zm2.486-2.072c.76 0 .622.898.622.967h-1.589c.07-.07.208-.967.967-.967zm9.053 4.352l.276-1.589s-.69.345-1.243.345c-.968 0-1.451-.76-1.451-1.657 0-1.727.829-2.625 1.865-2.625.69 0 1.312.414 1.312.414l.208-1.52s-.83-.345-1.658-.345c-1.658 0-3.247 1.45-3.247 4.145 0 1.796.83 2.97 2.556 2.97.622.069 1.381-.138 1.381-.138zm-19.83-5.664c-.967 0-1.727.276-1.727.276l-.207 1.243s.622-.276 1.589-.276c.483 0 .898.07.898.484 0 .276-.07.345-.07.345h-.62c-1.244 0-2.557.483-2.557 2.141 0 1.313.83 1.589 1.382 1.589.967 0 1.45-.622 1.52-.622l-.07.553h1.175l.552-3.937c0-1.727-1.381-1.796-1.865-1.796zm.276 3.177c0 .207-.138 1.382-.966 1.382-.415 0-.553-.346-.553-.553 0-.345.207-.829 1.312-.829h.207zm2.976 2.628c.345 0 2.141.069 2.141-1.865 0-1.796-1.727-1.45-1.727-2.142 0-.345.277-.483.76-.483.207 0 .967.069.967.069l.208-1.312s-.484-.139-1.382-.139c-1.036 0-2.141.415-2.141 1.865 0 1.658 1.796 1.52 1.796 2.142 0 .414-.484.483-.83.483-.62 0-1.312-.207-1.312-.207l-.207 1.312c.138.138.553.277 1.727.277zm28.458-6.911l-.276 1.934s-.553-.69-1.382-.69c-1.312 0-2.417 1.588-2.417 3.453 0 1.175.552 2.349 1.795 2.349.83 0 1.382-.553 1.382-.553l-.07.484h1.451l1.036-6.839-1.52-.138zm-.69 3.73c0 .76-.346 1.796-1.175 1.796-.484 0-.76-.414-.76-1.174 0-1.174.484-1.865 1.174-1.865.484.07.76.414.76 1.243zM2.624 16.99l.829-5.11.138 5.11h.967l1.865-5.11-.76 5.11h1.52l1.174-6.838H6.008l-1.45 4.214-.07-4.214H2.417l-1.174 6.839h1.382z" fill="#fff"/><path d="M24.73 16.993c.414-2.348.483-4.282 1.519-3.937.138-.898.345-1.312.484-1.658h-.277c-.622 0-1.174.83-1.174.83l.138-.76h-1.38l-.898 5.525h1.588zm8.839-5.735c-.967 0-1.727.276-1.727.276l-.207 1.243s.622-.276 1.588-.276c.484 0 .898.07.898.484 0 .276-.069.345-.069.345h-.621c-1.244 0-2.556.483-2.556 2.141 0 1.313.829 1.589 1.382 1.589.967 0 1.45-.622 1.52-.622l-.07.553h1.312l.553-3.937c0-1.727-1.52-1.796-2.003-1.796zm.345 3.177c0 .207-.138 1.382-.967 1.382-.414 0-.552-.346-.552-.553 0-.345.207-.829 1.312-.829h.207zm2.761 2.558c.414-2.348.483-4.282 1.52-3.937.137-.898.345-1.312.483-1.658h-.276c-.622 0-1.175.83-1.175.83l.138-.76h-1.381l-.898 5.525h1.589z" fill="#fff"/></svg>