<svg width="37" height="12" fill="none" xmlns="http://www.w3.org/2000/svg"><path d="M33.2.98h-7.114c.414 2.349 2.694 4.56 5.18 4.56h5.665C37 5.331 37 4.986 37 4.78c0-2.073-1.727-3.8-3.8-3.8z" fill="url(#paint0_linear_657_169)"/><path d="M26.71 5.953v5.733h3.455V8.647h3.039c1.658 0 3.108-1.174 3.592-2.694H26.71zM14.555.98v10.638h3.039s.76 0 1.174-.76c2.072-4.075 2.694-5.319 2.694-5.319h.415v6.079h3.453V.98h-3.039s-.76.07-1.174.76c-1.727 3.523-2.694 5.32-2.694 5.32h-.415V.98h-3.453zM.047 11.688V1.051H3.5s.967 0 1.52 1.52C6.4 6.576 6.54 7.128 6.54 7.128s.276-.967 1.52-4.559c.552-1.52 1.52-1.52 1.52-1.52h3.453v10.638H9.579V5.955h-.414L7.23 11.688H5.71L3.777 5.955h-.415v5.733H.047z" fill="#4FAD50"/><defs><linearGradient id="paint0_linear_657_169" x1="26.074" y1="3.293" x2="36.975" y2="3.293" gradientUnits="userSpaceOnUse"><stop stop-color="#27B1E6"/><stop offset="1" stop-color="#148ACA"/></linearGradient></defs></svg>