<svg width="80" height="80" fill="none" xmlns="http://www.w3.org/2000/svg"><mask id="mask0_737_176" style="mask-type:alpha" maskUnits="userSpaceOnUse" x="0" y="0" width="80" height="80"><rect width="80" height="80" rx="40" fill="#E5E5E5"/></mask><g mask="url(#mask0_737_176)"><path fill="#F5F5F5" d="M0 0h80v80H0z"/><path fill-rule="evenodd" clip-rule="evenodd" d="M43.945 41.55c-.608 0-1.075.15-1.554.304l-.197.063a6.748 6.748 0 01-2.2.343 6.936 6.936 0 01-2.239-.343l-.207-.066c-.48-.153-.945-.3-1.55-.3-3.427 0-6.201 2.823-6.201 6.245V52H50.19v-4.204c0-3.425-2.82-6.246-6.246-6.246zm-3.951-1.68c3.246 0 5.935-2.642 5.935-5.935 0-3.247-2.688-5.935-5.935-5.935-3.293 0-5.935 2.69-5.935 5.935a5.918 5.918 0 005.935 5.936z" fill="#D9D9D9"/></g></svg>