<svg xmlns="http://www.w3.org/2000/svg"><symbol viewBox="0 0 10 6" id="arrow"><path d="M1 1l4 4 4-4" fill="transparent" xmlns="http://www.w3.org/2000/svg"/></symbol><symbol viewBox="0 0 22 10" id="linkArrow"><path d="M1 4.4a.6.6 0 000 1.2V4.4zm20.424 1.024a.6.6 0 000-.848L17.606.757a.6.6 0 10-.849.849L20.151 5l-3.394 3.394a.6.6 0 10.849.849l3.818-3.819zM1 5.6h20V4.4H1v1.2z" xmlns="http://www.w3.org/2000/svg"/></symbol><symbol viewBox="0 0 44 24" id="sliderArrowNext"><path d="M43.375 11.999l-8.071 8.07-1.06-1.06 6.26-6.26H.625v-1.5h39.879l-6.26-6.26 1.06-1.061 8.071 8.07z" xmlns="http://www.w3.org/2000/svg"/></symbol><symbol viewBox="0 0 44 24" id="sliderArrowPrev"><path d="M.625 12.001l8.071-8.07 1.06 1.06-6.26 6.26h39.879v1.5H3.496l6.26 6.26-1.06 1.061-8.071-8.07z" xmlns="http://www.w3.org/2000/svg"/></symbol><symbol viewBox="0 0 80 80" id="cardsServices-1"><g fill="transparent" xmlns="http://www.w3.org/2000/svg" stroke-width="1.5" stroke-linecap="round" stroke-linejoin="round"><path d="M33.501 8.433l-20.067 13.1c-6.433 4.2-6.433 13.6 0 17.8l20.067 13.1c3.6 2.367 9.533 2.367 13.133 0l19.967-13.1c6.4-4.2 6.4-13.567 0-17.767l-19.967-13.1c-3.6-2.4-9.533-2.4-13.133-.033z"/><path d="M18.768 43.6l-.034 15.633c0 4.233 3.267 8.767 7.267 10.1l10.633 3.533c1.834.6 4.867.6 6.734 0L54 69.333c4-1.333 7.267-5.867 7.267-10.1V43.766M71.332 50V30"/></g></symbol><symbol viewBox="0 0 80 80" id="cardsServices-2"><g fill="transparent" xmlns="http://www.w3.org/2000/svg" stroke-width="1.5"><path d="M29.367 6.667L17.3 18.767m33.333-12.1l12.067 12.1" stroke-miterlimit="10" stroke-linecap="round" stroke-linejoin="round"/><path d="M6.667 26.167c0-6.167 3.3-6.667 7.4-6.667h51.866c4.1 0 7.4.5 7.4 6.667 0 7.166-3.3 6.666-7.4 6.666H14.067c-4.1 0-7.4.5-7.4-6.666z"/><path d="M32.533 46.667V58.5m15.334-11.833V58.5m-36.2-25.167l4.7 28.8c1.066 6.467 3.633 11.2 13.166 11.2h20.1c10.367 0 11.9-4.533 13.1-10.8l5.6-29.2" stroke-linecap="round"/></g></symbol><symbol viewBox="0 0 80 80" id="cardsServices-3"><g fill="transparent" xmlns="http://www.w3.org/2000/svg" stroke-width="1.5" stroke-miterlimit="10" stroke-linecap="round" stroke-linejoin="round"><path d="M26.667 40.667H50M26.667 54h14.6m-7.934-34h13.334c6.666 0 6.666-3.333 6.666-6.667 0-6.666-3.333-6.666-6.666-6.666H33.333c-3.333 0-6.666 0-6.666 6.666C26.667 20 30 20 33.333 20z"/><path d="M53.333 13.4C64.433 14 70 18.1 70 33.333v20c0 13.334-3.333 20-20 20H30c-16.667 0-20-6.666-20-20v-20C10 18.133 15.567 14 26.667 13.4"/></g></symbol><symbol viewBox="0 0 80 80" id="cardsServices-4"><path d="M40.533 36.233a6.065 6.065 0 00-1.1 0C31.5 35.967 25.2 29.467 25.2 21.467c0-8.167 6.6-14.8 14.8-14.8 8.167 0 14.8 6.633 14.8 14.8-.033 8-6.333 14.5-14.267 14.766zm-16.666 12.3c-8.067 5.4-8.067 14.2 0 19.567 9.166 6.133 24.2 6.133 33.366 0 8.067-5.4 8.067-14.2 0-19.567-9.133-6.1-24.166-6.1-33.366 0z" fill="transparent" xmlns="http://www.w3.org/2000/svg" stroke-width="1.5" stroke-linecap="round" stroke-linejoin="round"/></symbol><symbol viewBox="0 0 43 8" id="cardsServices-arrow"><path d="M42.354 4.354a.5.5 0 000-.707L39.172.465a.5.5 0 10-.707.707L41.293 4l-2.828 2.83a.5.5 0 10.707.707l3.182-3.182zM0 4.5h42v-1H0v1z" xmlns="http://www.w3.org/2000/svg"/></symbol><symbol viewBox="0 0 506 181" id="curvesArrow"><path d="M504.412 14.427a.5.5 0 00.188-.982l-.188.982zm-234.925 82.85l.352-.355-.352.355zM2.091 146.03a.5.5 0 00-.583.4l-.82 4.425a.5.5 0 10.984.182l.729-3.933 3.933.729a.5.5 0 10.182-.983l-4.425-.82zM504.6 13.445C454.977 3.954 386.273 15.04 334.92 33.37c-25.674 9.165-47.073 20.162-59.595 31.352-6.258 5.592-10.353 11.28-11.605 16.86-1.261 5.624.384 11.058 5.415 16.049l.704-.71c-4.823-4.785-6.318-9.88-5.143-15.12 1.185-5.285 5.102-10.8 11.295-16.334 12.379-11.06 33.634-22.005 59.266-31.155 51.259-18.298 119.772-29.331 169.155-19.886l.188-.982zM269.135 97.632c5.743 5.697 11.001 7.766 15.574 6.925 4.564-.839 8.248-4.543 10.93-9.925 5.366-10.77 6.936-28.652 3.412-45.917-3.526-17.269-12.179-34.06-27.41-42.535-15.257-8.488-36.957-8.548-66.373 7.314l.475.88c29.244-15.77 50.561-15.583 65.412-7.32 14.876 8.277 23.421 24.743 26.916 41.861 3.496 17.124 1.909 34.762-3.327 45.27-2.619 5.257-6.098 8.632-10.216 9.389-4.108.756-9.052-1.06-14.689-6.652l-.704.71zm-63.867-84.138c-58.793 31.703-91.53 91.515-118.582 129.946-6.77 9.618-13.177 17.889-19.543 24.065-6.367 6.178-12.655 10.221-19.182 11.453-6.507 1.228-13.33-.323-20.815-5.496-7.497-5.182-15.637-13.987-24.734-27.224l-.824.567c9.128 13.281 17.349 22.198 24.99 27.479 7.653 5.29 14.744 6.945 21.568 5.657 6.803-1.284 13.261-5.477 19.694-11.719 6.435-6.243 12.884-14.576 19.663-24.206 27.147-38.565 59.714-98.082 118.24-129.642l-.475-.88z" xmlns="http://www.w3.org/2000/svg"/></symbol><symbol viewBox="0 0 24 24" id="instagramIcon"><path d="M12.02 7.36a4.621 4.621 0 00-4.62 4.62 4.595 4.595 0 004.62 4.62 4.62 4.62 0 004.62-4.62c0-2.531-2.089-4.62-4.62-4.62zm0 7.633a3.01 3.01 0 01-3.013-3.013c0-1.647 1.326-2.973 3.013-2.973a2.967 2.967 0 012.973 2.973c0 1.687-1.326 3.013-2.973 3.013zM17.886 7.2a1.08 1.08 0 00-1.085-1.085A1.08 1.08 0 0015.717 7.2 1.08 1.08 0 0016.8 8.283 1.08 1.08 0 0017.886 7.2zm3.054 1.084c-.08-1.446-.402-2.732-1.447-3.776-1.044-1.045-2.33-1.366-3.776-1.447-1.487-.08-5.947-.08-7.434 0-1.446.08-2.691.402-3.776 1.447C3.462 5.55 3.14 6.837 3.06 8.283c-.08 1.487-.08 5.947 0 7.434.08 1.446.402 2.691 1.447 3.776 1.085 1.045 2.33 1.366 3.776 1.447 1.487.08 5.947.08 7.434 0 1.446-.08 2.732-.402 3.776-1.447 1.045-1.084 1.366-2.33 1.447-3.776.08-1.487.08-5.947 0-7.434zm-1.929 9c-.281.804-.924 1.407-1.687 1.728-1.206.482-4.018.362-5.304.362-1.326 0-4.138.12-5.303-.362a3.046 3.046 0 01-1.728-1.727c-.482-1.166-.362-3.978-.362-5.304 0-1.286-.12-4.098.362-5.304A3.1 3.1 0 016.717 4.99c1.165-.482 3.977-.362 5.303-.362 1.286 0 4.098-.12 5.304.362.763.281 1.366.924 1.687 1.687.482 1.206.362 4.018.362 5.304 0 1.326.12 4.138-.362 5.303z" xmlns="http://www.w3.org/2000/svg"/></symbol><symbol viewBox="0 0 24 24" id="facebookIcon"><path d="M16.2 13.125l.492-3.234h-3.129V7.78c0-.914.422-1.758 1.829-1.758h1.441V3.246S15.533 3 14.302 3c-2.567 0-4.254 1.582-4.254 4.395V9.89H7.165v3.234h2.883V21h3.515v-7.875H16.2z" xmlns="http://www.w3.org/2000/svg"/></symbol><symbol viewBox="0 0 24 24" id="vkIcon"><path d="M21.574 7.367c.111-.446 0-.817-.669-.817h-2.191c-.557 0-.817.297-.966.631 0 0-1.114 2.712-2.674 4.495-.52.482-.743.668-1.04.668-.111 0-.334-.185-.334-.631V7.367c0-.557-.149-.817-.632-.817H9.651c-.371 0-.557.26-.557.52 0 .52.78.631.854 2.117v3.232c0 .705-.111.854-.408.854-.743 0-2.526-2.749-3.603-5.869-.223-.594-.446-.854-1.003-.854H2.743c-.594 0-.743.297-.743.631 0 .595.743 3.455 3.454 7.28 1.82 2.6 4.383 3.975 6.686 3.975 1.374 0 1.56-.298 1.56-.818 0-2.488-.112-2.748.557-2.748.334 0 .891.186 2.191 1.448 1.486 1.486 1.746 2.117 2.563 2.117h2.192c.63 0 .928-.297.742-.928-.408-1.263-3.194-3.937-3.343-4.123-.334-.408-.222-.594 0-.966 0 0 2.675-3.788 2.972-5.05z" xmlns="http://www.w3.org/2000/svg"/></symbol><symbol viewBox="0 0 24 24" id="youtubeIcon"><path d="M21.561 7.21a2.487 2.487 0 00-1.755-1.791c-1.572-.439-7.788-.439-7.788-.439s-6.252 0-7.824.439A2.487 2.487 0 002.439 7.21C2 8.746 2 12.037 2 12.037s0 3.254.439 4.826c.22.878.914 1.536 1.755 1.755 1.572.402 7.824.402 7.824.402s6.216 0 7.788-.402a2.439 2.439 0 001.755-1.755C22 15.291 22 12.037 22 12.037s0-3.291-.439-4.827zm-11.59 7.788V9.075l5.192 2.962-5.192 2.961z" xmlns="http://www.w3.org/2000/svg"/></symbol><symbol viewBox="0 0 24 24" id="searchIcon"><path fill-rule="evenodd" clip-rule="evenodd" d="M14.859 16.056a7.902 7.902 0 111.197-1.197L22 20.803 20.803 22l-5.944-5.944zm1.463-6.154a6.42 6.42 0 11-12.84 0 6.42 6.42 0 0112.84 0z" xmlns="http://www.w3.org/2000/svg"/></symbol><symbol viewBox="0 0 24 24" id="profileIcon"><path d="M15.352 13.292c-.488 0-.862.125-1.247.253a26.76 26.76 0 01-.158.052 5.23 5.23 0 01-1.765.287 5.38 5.38 0 01-1.797-.287l-.166-.054c-.385-.128-.758-.251-1.243-.251-2.75 0-4.976 2.353-4.976 5.205V22h16.364v-3.503c0-2.854-2.264-5.205-5.012-5.205zm3.466 7.103H5.546v-1.898c0-1.995 1.515-3.6 3.43-3.6.152 0 .308.031.493.084.104.03.205.064.316.1.097.032.202.066.324.103a6.757 6.757 0 002.074.305 6.72 6.72 0 002.056-.305c.117-.036.226-.071.327-.104l.017-.006a9.31 9.31 0 01.295-.093 1.71 1.71 0 01.475-.084c1.919 0 3.466 1.607 3.466 3.6v1.898zm-6.636-8.503c2.604 0 4.762-2.202 4.762-4.946C16.944 4.24 14.787 2 12.182 2 9.54 2 7.42 4.241 7.42 6.946c0 2.743 2.12 4.946 4.762 4.946zm0-8.287c1.74 0 3.217 1.533 3.217 3.341 0 1.843-1.475 3.341-3.217 3.341-1.776 0-3.217-1.496-3.217-3.341 0-1.809 1.442-3.341 3.217-3.341z" xmlns="http://www.w3.org/2000/svg" fill-rule="evenodd" clip-rule="evenodd"/></symbol><symbol viewBox="0 0 24 24" id="rigthTopArrow"><path d="M17.832 6.165v10h-1.5v-7.44l-9.106 9.107-1.061-1.06 9.107-9.107h-7.44v-1.5h10z" xmlns="http://www.w3.org/2000/svg"/></symbol><symbol viewBox="0 0 82 16" id="longArrow"><path d="M1 7a1 1 0 000 2V7zm80.707 1.707a1 1 0 000-1.414L75.343.929a1 1 0 10-1.414 1.414L79.586 8l-5.657 5.657a1 1 0 001.414 1.414l6.364-6.364zM1 9h80V7H1v2z" xmlns="http://www.w3.org/2000/svg"/></symbol><symbol viewBox="0 0 82 16" id="closeIcon"><path d="M21.031 4.06L19.971 3l-7.955 7.955L4.06 3 3 4.06l7.955 7.956L3 19.97l1.06 1.06 7.956-7.955 7.955 7.955 1.06-1.06-7.955-7.955 7.955-7.955z" xmlns="http://www.w3.org/2000/svg"/></symbol><symbol viewBox="0 0 58 50" id="quotesIcon"><path d="M23.5 4.926L18.75 0C8.5 8.62 0 21.675 0 35.222 0 46.552 6.75 50 11.5 50 17.25 50 23 46.552 23 38.916c0-6.65-5-11.083-11.5-11.083-.75 0-1.5 0-2.25.246 1.25-7.882 5.5-15.271 14.25-23.153zM46 27.832c-.75 0-1.5 0-2.25.247C45 20.197 49.25 12.808 58 4.926L53.25 0C43 8.62 34.5 21.675 34.5 35.222 34.5 46.552 41 50 46 50c5.75 0 11.5-3.448 11.5-11.084 0-6.65-5-11.083-11.5-11.083z" xmlns="http://www.w3.org/2000/svg"/></symbol><symbol viewBox="0 0 10 6" id="selectArrow"><path d="M8.96 1.475L5.7 4.735a.993.993 0 01-1.4 0l-3.26-3.26" fill="transparent" stroke-width="1.5" stroke-miterlimit="10" stroke-linecap="round" stroke-linejoin="round" xmlns="http://www.w3.org/2000/svg"/></symbol><symbol viewBox="0 0 500 500" id="loadingCircle"><circle r="15.9" cx="19.08" cy="19.08"/><circle r="15.9" cx="19.08" cy="19.08"/></symbol><symbol viewBox="0 0 9 10" id="downArrow"><path d="M5.1 1.5a.6.6 0 00-1.2 0h1.2zM4.076 8.924a.6.6 0 00.849 0l3.818-3.818a.6.6 0 10-.848-.849L4.5 7.651 1.106 4.257a.6.6 0 10-.848.849l3.818 3.818zM3.9 1.5v7h1.2v-7H3.9z" xmlns="http://www.w3.org/2000/svg"/></symbol><symbol viewBox="0 0 24 24" id="phoneContactsIcon"><path d="M11.05 14.95L9.2 16.8c-.39.39-1.01.39-1.41.01-.11-.11-.22-.21-.33-.32a28.414 28.414 0 01-2.79-3.27c-.82-1.14-1.48-2.28-1.96-3.41C2.24 8.67 2 7.58 2 6.54c0-.68.12-1.33.36-1.93.24-.61.62-1.17 1.15-1.67C4.15 2.31 4.85 2 5.59 2c.28 0 .56.06.81.18.26.12.49.3.67.56l2.32 3.27c.18.25.31.48.4.7.09.21.14.42.14.61 0 .24-.07.48-.21.71-.13.23-.32.47-.56.71l-.76.79c-.11.11-.16.24-.16.4 0 .08.01.15.03.23.03.08.06.14.08.2.18.33.49.76.93 1.28.45.52.93 1.05 1.45 1.58.1.1.21.2.31.3.4.39.41 1.03.01 1.43zm10.92 3.38a2.54 2.54 0 01-.25 1.09c-.17.36-.39.7-.68 1.02-.49.54-1.03.93-1.64 1.18-.01 0-.02.01-.03.01-.59.24-1.23.37-1.92.37-1.02 0-2.11-.24-3.26-.73s-2.3-1.15-3.44-1.98c-.39-.29-.78-.58-1.15-.89l3.27-3.27c.28.21.53.37.74.48.05.02.11.05.18.08.08.03.16.04.25.04.17 0 .3-.06.41-.17l.76-.75c.25-.25.49-.44.72-.56.23-.14.46-.21.71-.21.19 0 .39.04.61.13.22.09.45.22.7.39l3.31 2.35c.26.18.44.39.55.64.1.25.16.5.16.78z" xmlns="http://www.w3.org/2000/svg" fill="#469AFC"/></symbol><symbol viewBox="0 0 24 24" id="emailContactsIcon"><path d="M17 3.5H7c-3 0-5 1.5-5 5v7c0 3.5 2 5 5 5h10c3 0 5-1.5 5-5v-7c0-3.5-2-5-5-5zm.47 6.09l-3.13 2.5c-.66.53-1.5.79-2.34.79-.84 0-1.69-.26-2.34-.79l-3.13-2.5a.77.77 0 01-.12-1.06c.26-.32.73-.38 1.05-.12l3.13 2.5c.76.61 2.05.61 2.81 0l3.13-2.5c.32-.26.8-.21 1.05.12.26.32.21.8-.11 1.06z" fill="#469AFC" xmlns="http://www.w3.org/2000/svg"/></symbol><symbol viewBox="0 0 24 24" id="skypeContactsIcon"><path d="M21.818 13.568c.068-.545.136-1.022.136-1.568 0-5.455-4.431-9.955-9.954-9.955-.546 0-1.023.069-1.568.137A5.84 5.84 0 007.636 1.5 6.11 6.11 0 001.5 7.636c0 .955.205 1.91.682 2.796-.068.545-.137 1.022-.137 1.568 0 5.454 4.432 9.954 9.955 9.954.546 0 1.023-.068 1.568-.136.886.41 1.841.682 2.796.682a6.11 6.11 0 006.136-6.136c0-.955-.273-1.91-.682-2.796zm-5.659 2.046a2.55 2.55 0 01-.886 1.022c-.41.273-.819.478-1.364.614a7.603 7.603 0 01-1.84.204c-1.433 0-2.592-.34-3.41-.954-.477-.41-.886-.886-1.09-1.5-.274-.546.204-1.227.886-1.227h.204c.41 0 .818.273.955.613.136.341.34.614.613.819.41.34 1.023.477 1.773.477.682 0 1.227-.136 1.636-.341.41-.205.614-.614.614-1.023 0-.204-.068-.34-.136-.477-.069-.136-.273-.273-.41-.341-.204-.136-.409-.204-.75-.273-.272-.068-.613-.204-1.022-.273l-.41-.136c-.476-.136-1.022-.272-1.431-.409a5.115 5.115 0 01-1.227-.545 2.072 2.072 0 01-.819-.887c-.204-.34-.272-.818-.272-1.363 0-.546.136-1.023.34-1.432.205-.41.546-.75.887-.955.41-.272.818-.477 1.364-.545A5.967 5.967 0 0112 6.477a7.01 7.01 0 011.773.205c.545.136.954.34 1.363.682.41.272.682.613.887 1.09.34.614-.137 1.432-.887 1.432h-.204c-.41 0-.75-.204-.955-.545a3.752 3.752 0 00-.477-.614c-.34-.272-.886-.409-1.5-.409s-1.09.137-1.432.341c-.34.205-.477.546-.477.886 0 .205.068.341.136.478a.698.698 0 00.41.34c.204.069.409.205.681.273.273.069.614.137 1.023.273.409.068.75.205 1.159.273.34.068.682.204 1.023.272.34.137.613.273.886.41.273.136.477.34.682.545.204.205.34.477.409.75.136.273.136.682.136 1.091-.136.477-.272.954-.477 1.364z" fill="#469AFC" xmlns="http://www.w3.org/2000/svg"/></symbol><symbol viewBox="0 0 26 26" id="yearsArrow"><path d="M1 12.498a.5.5 0 100 1v-1zm24.354.854a.5.5 0 000-.707l-3.182-3.182a.5.5 0 10-.707.707l2.828 2.828-2.828 2.829a.5.5 0 10.707.707l3.182-3.182zM1 13.498h24v-1H1v1z" xmlns="http://www.w3.org/2000/svg"/></symbol><symbol viewBox="0 0 18 18" id="checkboxIcon"><path opacity=".5" d="M9.001.667C4.41.667.668 4.408.668 9c0 4.592 3.742 8.333 8.333 8.333 4.592 0 8.334-3.741 8.334-8.333C17.335 4.408 13.593.667 9 .667zm3.984 6.416L8.26 11.808a.624.624 0 01-.884 0L5.018 9.45a.629.629 0 010-.883.629.629 0 01.883 0l1.917 1.916L12.101 6.2a.629.629 0 01.884 0 .629.629 0 010 .883z" xmlns="http://www.w3.org/2000/svg"/></symbol><symbol viewBox="0 0 20 20" id="closeModal"><path d="M19 2.059L17.941 1 10 8.941 2.059 1 1 2.059 8.941 10 1 17.941 2.059 19 10 11.059 17.941 19 19 17.941 11.059 10 19 2.059z" fill="#848484" xmlns="http://www.w3.org/2000/svg"/></symbol><symbol viewBox="0 0 18 18" id="hidePassIcon"><g xmlns="http://www.w3.org/2000/svg" stroke="#A3A3A3" stroke-width="1.5" stroke-linecap="round" stroke-linejoin="round"><path d="M10.897 7.102l-3.795 3.795a2.682 2.682 0 113.795-3.795z"/><path d="M13.365 4.328c-1.313-.99-2.813-1.53-4.365-1.53-2.648 0-5.115 1.56-6.833 4.26-.675 1.057-.675 2.835 0 3.892.593.93 1.283 1.733 2.033 2.378m2.115 1.32A6.91 6.91 0 009 15.203c2.647 0 5.115-1.56 6.832-4.26.675-1.058.675-2.835 0-3.893-.247-.39-.517-.757-.795-1.102m-3.404 3.577a2.674 2.674 0 01-2.115 2.115m-2.415-.742L1.5 16.5m15-15l-5.602 5.603"/></g></symbol><symbol viewBox="0 0 18 18" id="showPassIcon"><g xmlns="http://www.w3.org/2000/svg" stroke="#A3A3A3" stroke-width="1.5" stroke-linecap="round" stroke-linejoin="round"><path d="M11.682 9.001c0 1.485-1.2 2.685-2.684 2.685a2.682 2.682 0 01-2.685-2.685c0-1.485 1.2-2.685 2.685-2.685s2.684 1.2 2.684 2.685z"/><path d="M9.003 15.201c2.647 0 5.115-1.56 6.832-4.26.675-1.057.675-2.834 0-3.892-1.717-2.7-4.185-4.26-6.832-4.26-2.648 0-5.115 1.56-6.833 4.26-.675 1.058-.675 2.835 0 3.892 1.718 2.7 4.185 4.26 6.833 4.26z"/></g></symbol><symbol viewBox="0 0 24 24" id="checkIcon"><path d="M20.334 7.518l-1.06-1.061-9.96 9.96-4.597-4.596-1.06 1.06 5.656 5.658L20.334 7.518z" xmlns="http://www.w3.org/2000/svg"/></symbol></svg>