<svg width="48" height="16" fill="none" xmlns="http://www.w3.org/2000/svg"><path d="M44.255 1.113h-2.97c-.899 0-1.59.277-2.004 1.175l-5.664 12.916h4.007s.69-1.727.828-2.141h4.905c.138.484.483 2.072.483 2.072h3.592L44.254 1.113zm-4.698 9.049c.346-.829 1.52-3.937 1.52-3.937 0 .069.346-.83.484-1.313l.276 1.244s.76 3.384.898 4.075h-3.178v-.07zm-5.66.415c0 2.9-2.625 4.835-6.7 4.835-1.727 0-3.385-.346-4.283-.76l.553-3.177.483.207c1.244.552 2.072.76 3.592.76 1.105 0 2.28-.415 2.28-1.382 0-.622-.484-1.036-2.004-1.727-1.45-.69-3.384-1.796-3.384-3.799 0-2.763 2.694-4.628 6.493-4.628 1.45 0 2.694.277 3.453.622l-.552 3.04-.277-.277a7.42 7.42 0 00-2.9-.553c-1.451.07-2.142.691-2.142 1.244 0 .621.829 1.105 2.141 1.726 2.21 1.037 3.247 2.21 3.247 3.869z" fill="#3362AB"/><path d="M.188 1.253L.257.977h5.94c.829 0 1.45.276 1.658 1.174l1.312 6.216C7.855 5.052 4.815 2.358.187 1.253z" fill="#F9B50B"/><path d="M17.523 1.112l-6.01 14.022H7.438L3.984 3.391c2.487 1.59 4.56 4.076 5.32 5.803l.413 1.45 3.73-9.601h4.076v.069zm1.59-.069h3.799l-2.418 14.091h-3.799l2.418-14.091z" fill="#3362AB"/></svg>