<svg width="18" height="18" fill="none" xmlns="http://www.w3.org/2000/svg"><circle cx="9" cy="9" r="9" fill="#48C95F"/><path d="M12.567 5.428A4.693 4.693 0 009.241 4.05a4.7 4.7 0 00-4.708 4.692c0 .82.23 1.64.626 2.33L4.5 13.5l2.502-.656c.692.36 1.45.557 2.24.557A4.7 4.7 0 0013.95 8.71c-.033-1.214-.494-2.395-1.383-3.281zm-1.054 4.987c-.098.263-.56.525-.79.558A1.843 1.843 0 0110 10.94c-.165-.065-.395-.13-.659-.262-1.185-.492-1.942-1.674-2.008-1.772-.066-.066-.494-.623-.494-1.214 0-.59.296-.853.395-.984.099-.132.23-.132.33-.132h.23c.066 0 .164-.032.263.197.099.23.33.82.362.853a.209.209 0 010 .197.686.686 0 01-.131.197c-.066.066-.132.164-.165.197-.066.066-.132.131-.066.23.066.13.296.492.659.82.46.394.823.525.955.59.131.066.197.033.263-.032.066-.066.296-.328.362-.46.066-.13.165-.098.264-.065.098.033.691.328.79.394.131.065.197.098.23.13.033.1.033.329-.066.591z" fill="#fff"/></svg>