<svg width="319" height="122" viewBox="0 0 319 122" fill="none" xmlns="http://www.w3.org/2000/svg">
<path d="M10.6406 52.4363C14.3544 51.5795 17.9554 50.8731 21.4887 49.9036C27.7811 48.1675 33.9832 46.1007 40.283 44.4999C44.6884 43.3876 49.2442 42.8991 53.7022 41.9822C56.9874 41.3133 60.205 40.3438 63.4752 39.6298C67.4371 38.7656 71.4365 38.0816 75.3984 37.2174C81.187 35.9548 86.9456 34.5569 92.7418 33.3093C96.7637 32.445 100.831 31.8062 104.845 30.9193C110.514 29.6718 116.122 28.2589 121.798 26.9587C127.752 25.5908 133.691 24.1028 139.698 23.0055C143.559 22.2956 147.477 21.9384 151.403 21.9383C153.342 21.9383 155.342 22.9905 157.214 23.7946C161.025 25.433 164.732 27.342 168.551 28.9352C171.016 29.9574 173.67 30.5135 176.181 31.4454C179.188 32.5502 182.022 33.9256 184.999 35.0228C188.495 36.3155 192.074 37.3827 195.569 38.6679C197.547 39.3871 199.476 40.2357 201.343 41.2081C204.628 42.9216 207.823 44.808 211.116 46.5291C211.758 46.7786 212.459 46.8309 213.131 46.6794C219.784 45.5972 226.52 44.4248 232.211 40.667C236.428 37.9088 240.202 34.384 243.826 30.8442C249.456 25.3804 254.426 19.2552 260.989 14.7459C265.417 11.7397 270.175 9.7932 275.633 9.84581C276.292 9.80227 276.917 9.53744 277.407 9.09425C279.121 7.59115 280.956 7.49345 283.023 8.55313C284.029 9.05813 285.159 9.26418 286.278 9.14686C289.488 8.72599 292.623 8.78612 295.112 11.0483C296.592 12.5451 297.889 14.2127 298.976 16.0161C299.493 16.8551 300.233 17.5349 301.112 17.9805C301.992 18.4261 302.977 18.6201 303.96 18.5413C305.168 18.5401 306.375 18.6331 307.568 18.8193V19.6761H302.186C305.945 21.8406 309.651 20.3751 313.402 19.6761C312.109 20.7208 311.147 21.8331 309.418 22.269C307.012 22.8627 304.87 24.4785 302.577 25.5833C300.539 26.5746 298.223 26.8398 296.014 26.3349C293.277 25.7787 290.443 25.6885 287.692 25.185C283.79 24.4334 280.715 22.5546 279.294 18.6089C278.745 17.1058 278.212 15.5501 277.723 14.0094C277.092 12.0403 276.22 11.6495 273.415 11.9051C265.995 12.5664 260.056 15.9334 255.192 21.4949C251.486 25.7411 247.742 29.9799 243.781 33.9857C239.578 38.2545 235.173 42.3956 229.655 44.808C226.79 46.0556 223.64 46.6418 220.536 47.3633C218.795 47.6837 217.038 47.9095 215.273 48.0397L215.206 48.7236C219.025 50.3695 222.859 51.9929 226.663 53.6689C230.639 55.42 234.631 57.1335 238.541 59.0199C243.427 61.3798 248.231 63.8975 253.08 66.34C258.169 68.9028 263.274 71.4356 268.341 74.0435C269.267 74.4257 270.066 75.0645 270.641 75.8848C271.077 76.7265 270.882 77.8989 270.927 78.4626C264.913 79.4997 259.47 80.4542 254.005 81.3711C252.155 81.6792 250.283 81.8821 248.426 82.1227C242.412 83.002 236.458 83.9113 230.474 84.7531C229.151 84.941 228.768 85.6399 228.647 86.8875C228.151 92.2385 227.617 97.5971 226.971 102.933C226.836 104.622 226.201 106.232 225.147 107.558C224.094 108.884 222.669 109.867 221.054 110.381C216.431 112.065 211.755 113.538 206.808 113.973C198.599 114.725 190.397 115.845 182.18 116.048C174.708 116.236 167.205 115.386 159.717 115.018C152.59 114.665 145.434 114.319 138.329 114.019C130.383 113.68 122.414 113.68 114.498 113.027C105.98 112.32 97.4704 111.26 89.0355 109.9C84.1565 109.148 79.4279 107.42 74.624 106.142C71.5568 105.331 68.4445 104.639 65.4148 103.737C61.4154 102.52 57.5889 100.919 54.6795 97.7249C54.2959 97.3795 54.0296 96.9231 53.9177 96.4193C53.8059 95.9154 53.8541 95.3893 54.0555 94.9141C54.6707 93.0096 55.0198 91.0294 55.093 89.0294C55.2659 83.8362 55.1606 78.6354 55.3035 73.4422C55.3486 71.8865 54.1157 71.7061 53.3188 71.3303C47.47 68.6323 41.6212 65.8515 35.6521 63.4616C29.2696 60.8612 22.7592 58.584 16.2864 56.2091C14.1514 55.4125 11.9562 54.6759 10.6406 52.4363ZM221.25 53.0751C219.431 52.0455 217.626 50.9858 215.784 50.0163C215.424 49.8284 214.882 50.0163 214.424 50.0163V50.4372L221.295 53.0751C224.069 54.3603 226.82 55.6905 229.617 56.9156C231.121 57.5619 232.624 58.0279 234.128 58.5765L234.361 57.9602C231.715 56.8329 229.061 55.6304 226.347 54.5782C224.701 53.977 222.956 53.5937 221.25 53.0751ZM96.5081 51.6397C95.0046 51.82 93.5011 51.9553 91.9975 52.1883C88.5018 52.7219 85.006 53.263 81.5253 53.8868C80.2541 54.178 78.9994 54.5368 77.7664 54.9615C84.3971 55.7507 90.2835 52.8872 96.4781 51.5946L111.694 49.7608L111.649 49.2422C111.426 49.163 111.193 49.1174 110.957 49.1069C106.379 49.6255 101.801 50.1516 97.2298 50.7303C96.9442 50.7603 96.7412 51.3165 96.5081 51.6397ZM169.505 53.7515L164.506 52.8121L164.423 53.7064H169.528C169.859 53.9469 170.159 54.3452 170.52 54.4054C173.873 55.0066 177.234 55.5102 180.586 56.1189C184.248 56.7878 187.894 57.5619 191.555 58.2233C192.788 58.4487 194.051 58.4638 195.314 58.5765V58.088C193.893 57.6897 192.487 57.1936 191.044 56.9231C187.195 56.1715 183.345 55.5026 179.474 54.9315C176.181 54.443 172.843 54.1348 169.505 53.7515ZM206.493 72.5779C205.688 72.112 205.079 71.7136 204.425 71.3905C203.082 70.6675 201.699 70.0202 200.283 69.4515C198.366 68.76 196.381 68.264 194.427 67.6628C193.938 67.5125 193.487 67.2645 192.675 66.9112L194.652 65.8515L179.978 62.0938L180.128 61.4098C181.428 61.6203 182.744 61.8007 184.037 62.0637C185.932 62.4395 187.796 62.9731 189.705 63.2061C190.194 63.2662 190.788 62.4545 191.337 62.0562C190.863 61.7105 190.435 61.1543 189.916 61.0491C187.901 60.6282 185.849 60.4028 183.834 60.012C181.158 59.5009 178.497 58.9072 175.828 58.351L175.933 57.7047C177.016 57.84 178.106 57.9452 179.181 58.1256C182.188 58.6366 185.195 59.2228 188.202 59.6888C188.66 59.7564 189.194 59.3656 189.705 59.1928L189.623 58.6892C189.097 58.6066 188.57 58.5314 188.044 58.4337L182.706 57.4492C178.948 56.7427 175.136 55.9461 171.317 55.3674C166.25 54.6158 161.153 54.1498 156.079 53.511C155.544 53.3538 155.037 53.1156 154.575 52.8046L154.771 52.4062L163.123 53.1052L163.175 52.519C161.003 52.2033 158.83 51.8351 156.65 51.572C149.824 50.7453 142.998 49.8735 136.149 49.2046C133.969 48.9942 131.556 48.1825 129.609 50.1591C129.406 50.3695 128.857 50.3094 128.519 50.3094C118.934 50.3094 109.356 50.6175 99.8836 52.1883C96.3728 52.767 92.9523 53.8643 89.4866 54.7285L89.6219 55.4801L118.482 52.2033L118.618 52.9549C117.554 53.2434 116.475 53.4718 115.385 53.6388C109.371 54.24 103.304 54.6834 97.2825 55.3974C94.1362 55.8295 91.0165 56.4367 87.9379 57.2162C84.2317 58.0805 80.563 59.0951 76.8869 60.0946C76.2913 60.3243 75.7217 60.6166 75.1879 60.9664L75.4359 61.5602C79.1948 60.7485 82.9537 60.0571 86.5923 59.08C90.7345 57.9377 94.8091 56.5849 99.1845 56.7653C99.5958 56.8196 100.001 56.9127 100.395 57.0433V57.5694C92.3884 57.6822 85.1188 60.756 77.5184 62.5071L77.6086 63.0557L79.8639 63.4691C79.3376 64.9271 74.4737 66.0018 79.5557 67.5876C78.9733 67.8443 78.4353 68.1919 77.9619 68.6172C77.7138 68.9329 77.6537 69.8573 77.8416 69.9776C78.9091 70.6464 79.2023 71.4055 78.3754 72.3976C77.7666 73.0709 77.1216 73.7107 76.4433 74.314C76.3961 74.2764 76.3509 74.2363 76.308 74.1938L76.6012 69.4064L75.6991 69.3012C74.1203 72.1946 75.7667 75.6743 74.1955 78.6505V70.2782C72.4815 70.2782 71.9402 71.0297 72.0755 72.3374C72.1507 73.089 72.2635 73.8405 72.3086 74.5921C72.4289 76.5236 72.5266 78.4551 72.6318 80.3866L71.8801 80.4617L70.8426 74.2689L70.1886 74.1186C69.8314 75.0019 69.5619 75.9182 69.3842 76.8543C69.1887 78.906 69.2113 80.9728 69.0384 83.0245C68.8778 83.5819 68.6236 84.108 68.2866 84.5802L67.6776 84.3998V80.8074H67.1589L66.7755 83.9414H66.2042V77.1774H65.8508L64.7608 85.3092L64.009 85.204L64.8134 77.0497C64.1293 77.3728 63.6481 77.4705 63.6331 77.6208C63.3324 80.6271 63.0768 83.5957 62.8212 86.5794H62.3325V79.6425H61.686C59.4307 81.7694 61.2801 84.7907 60.393 87.2107H59.8893L59.5359 81.6341H58.7842L58.2955 89.4578L56.8521 88.7513L56.5063 93.426C57.2581 92.9751 57.7693 92.7346 58.2128 92.434C62.1684 89.875 66.5541 88.052 71.1584 87.0528C74.9224 86.2 78.7364 85.585 82.5778 85.2115C87.5996 84.6328 92.6516 84.1969 97.6959 83.8587C101.455 83.6107 105.214 83.4905 108.973 83.5205C115.859 83.5807 122.753 83.6483 129.631 83.979C134.24 84.2045 138.818 84.8959 143.411 85.3844C152.297 86.3313 161.213 87.0679 170.062 88.3004C178.572 89.4879 187.022 91.1413 195.479 92.712C198.852 93.331 202.186 94.1491 205.463 95.1621C209.65 96.4698 213.785 97.9729 217.867 99.5887C220.453 100.611 222.904 101.994 225.693 103.346C225.565 102.918 225.43 102.324 225.219 101.761C224.678 100.333 222.047 99.7616 223.37 97.3416L221.115 98.8447L220.821 98.529L223.212 95.2673L222.896 95.0418L220.325 96.7854L220.024 96.4473L220.776 94.4782L217.604 95.8159L217.717 93.6966L216.296 94.2151L215.724 91.7275L215.326 91.8027L214.89 93.8394H214.394L214.138 90.2695L213.717 90.3071L213.424 92.5617H212.853L211.68 82.9644L211.251 82.8216L209.898 85.7226C209.424 84.1068 209.507 83.0771 210.8 82.1602C211.853 81.4087 213.153 80.6195 212.627 78.5453L209.019 81.5064L208.628 81.1156L210.289 78.9586L207.282 77.3202L207.462 76.8994L210.259 77.4029L210.447 76.734C206.816 74.8025 202.831 73.8255 198.809 72.7658C200.446 72.5001 202.122 72.6342 203.696 73.1566C205.102 73.7654 205.914 73.6752 206.493 72.5779ZM19.2334 55.3824C19.6694 54.7586 19.7822 54.3678 19.9852 54.3002C23.6388 53.2104 27.2999 52.1582 31.1264 51.0459C29.0515 50.3846 16.6022 53.6538 15.8579 54.9841C29.5402 59.2003 42.3504 65.5584 55.8147 71.398C56.1154 68.993 56.8145 66.9563 56.5063 65.0849C56.0552 62.3794 57.6715 61.2069 59.3179 59.9293C64.9562 55.5778 71.8274 54.1649 78.428 52.2559C83.6904 50.7528 89.1483 50.0013 94.4859 48.7387C102.259 46.9049 110.198 46.3187 118.099 45.973C125.331 45.6573 132.608 46.5216 139.9 46.469C152.989 46.3863 166.025 46.6418 178.805 49.9036C182.06 50.7378 185.39 51.339 188.578 52.3536C195.757 54.6083 202.861 57.1185 210.018 59.4784C215.679 61.3497 221.107 63.6344 225.317 68.0461C227.843 70.6915 230.324 73.352 229.459 77.5908C229.061 79.5599 229.219 81.6417 229.106 83.964L266.582 78.2221L266.657 77.7411L264.063 76.0651C258.049 79.0713 251.727 79.3269 245.269 78.8083C250.156 78.3273 255.192 78.673 259.711 76.1403C257.974 76.2004 256.282 76.6138 254.568 76.749C250.058 77.0948 250.058 77.0497 249.622 76.1027C252.276 75.6443 255.117 76.3131 257.493 74.6973C256.714 74.853 255.945 75.0588 255.192 75.3136C253.929 75.5165 253.478 74.2238 254.441 72.9011C251.193 71.5633 247.99 70.2631 244.803 68.9028C244.304 68.6061 243.846 68.2447 243.442 67.8281L243.788 67.2795L259.981 74.4643L260.447 73.7954C260.041 73.5399 259.65 73.2543 259.229 73.0439C256.11 71.3754 253.057 69.5567 249.847 68.0912C242.751 64.8369 235.564 61.8533 228.452 58.5765C220.137 54.691 211.868 50.58 203.508 46.6644C197.201 43.7033 190.878 40.7797 184.473 38.0441C175.805 34.3389 167.1 30.6789 158.296 27.3194C155.485 26.2447 152.402 25.433 149.207 26.1019C145.065 26.9662 140.9 27.6802 136.751 28.4993C135.074 28.83 133.413 29.2509 131.744 29.6116C138.901 30.4459 145.584 27.7929 152.643 26.6656L152.41 28.4693C152.921 28.2647 153.446 28.0989 153.981 27.9733C154.974 27.8305 156.116 27.4021 156.943 27.7252C162.694 29.9799 168.393 32.3774 174.084 34.7748C174.934 35.197 175.753 35.6792 176.534 36.2178L176.264 36.6161L156.432 28.6121L156.154 29.1682L162.108 32.5427L161.822 33.0838C161.432 33.0128 161.049 32.9046 160.679 32.7607C159.123 32.0091 157.627 31.0546 156.019 30.4083C154.843 29.8623 153.555 29.6046 152.26 29.6567C147.862 30.1903 143.494 30.987 139.111 31.6559C138.656 31.6925 138.198 31.6363 137.765 31.4905C137.111 31.3102 136.465 30.8367 135.826 30.8667C134.21 30.9344 132.601 31.2575 130.984 31.4003C129.879 31.498 128.293 31.949 127.752 31.4003C126.729 30.3782 125.82 30.7315 124.857 30.9118C119.595 31.9114 114.333 32.9861 109.07 34.0233C104.785 34.865 100.485 35.6466 96.1999 36.5259C87.5144 38.3146 78.8365 40.1309 70.166 41.9747C65.8959 42.8841 61.6409 43.9137 57.3859 44.8832C53.7323 45.7174 50.0786 46.5592 46.41 47.3483C45.2372 47.5963 43.7788 47.2581 43.7111 49.1821C43.7111 49.4076 42.9594 49.6931 42.4933 49.7984C35.8676 51.3967 29.237 52.9799 22.6013 54.5482C21.6691 54.7736 20.6392 55.0292 19.2334 55.3824ZM154.47 91.735L153.793 90.6377L153.387 91.0661C152.365 90.6623 151.312 90.343 150.237 90.1117C148.734 89.9163 147.125 89.9689 145.576 89.8486C145.17 89.8486 144.554 89.2774 144.411 89.4052C142.84 90.758 141.216 89.8636 139.585 89.6983C137.953 89.533 136.127 88.834 134.375 90.1492C127.985 94.9517 121.497 99.6338 115.047 104.369C113.446 105.549 111.867 106.751 109.837 108.277L112.724 108.735L112.761 109.111L109.687 109.569C112.691 110.211 115.744 110.599 118.813 110.727C131.949 111.283 145.088 111.784 158.229 112.23C160.093 112.29 161.777 112.388 163.717 110.937C168.754 107.179 174.317 104.076 179.654 100.694C181.038 99.8217 182.361 98.8597 183.714 97.9353L183.21 97.1312C179.263 98.8297 176.001 101.783 172.174 103.722C168.348 105.661 164.499 107.796 160.664 109.84L160.401 109.449C166.483 104.384 174.632 102.43 180.391 96.6051C178.924 96.2595 177.399 96.2441 175.925 96.56C174.85 96.8531 173.941 97.7925 172.979 98.4689C168.175 101.843 163.378 105.233 158.559 108.577C157.993 108.878 157.392 109.11 156.77 109.269L156.492 108.69C163.191 104.897 169.488 100.435 175.286 95.3725C174.917 95.2071 174.531 95.0787 174.136 94.9892C170.896 94.7487 167.648 94.5383 164.401 94.3128C163.846 94.3068 163.292 94.2515 162.747 94.1475C161.04 93.7116 159.349 93.2231 157.545 92.7195L158.033 91.3667L157.733 91.1638L156.101 93.0051C156.05 92.4112 156.119 91.8131 156.304 91.2465C156.417 90.262 155.567 90.4273 154.47 91.735ZM130.218 92.2836L129.774 91.5321C125.677 93.5237 122.151 96.4773 118.332 98.9123C114.513 101.347 110.814 104.083 107.018 106.691C112.333 100.423 119.971 97.2664 126.151 92.0807C125.594 91.8703 125.008 91.6824 124.647 91.9004C116.716 96.9959 108.807 102.129 100.786 107.322C102.891 108.825 107.274 108.923 108.942 107.721C114.41 103.747 119.901 99.7917 125.414 95.8535C127 94.6811 128.601 93.4711 130.218 92.2836ZM186.939 98.2961C182.526 99.4535 179.068 102.354 175.294 104.632C171.52 106.909 167.776 109.524 164.017 111.982C166.623 112.36 169.258 112.499 171.888 112.395C172.367 112.344 172.818 112.147 173.181 111.832C174.369 110.87 175.437 109.72 176.685 108.87C179.97 106.668 183.36 104.632 186.653 102.452C187.969 101.58 189.149 100.491 190.412 99.4986L190.066 98.9199C189.393 99.0299 188.735 99.2165 188.104 99.476C187.24 99.942 186.488 100.618 185.653 101.159C182.696 103.078 179.732 104.982 176.76 106.871C174.354 108.374 171.919 109.877 169.498 111.381L169.137 110.847C174.7 106.142 181.654 103.384 186.931 98.2735L186.939 98.2961ZM88.8025 86.1435L88.6897 85.3318C86.6749 85.6174 84.6677 86.0232 82.6755 86.1735C77.2134 86.5523 71.8285 87.675 66.6703 89.5104C62.7619 90.801 59.1287 92.8094 55.9575 95.4326C54.9351 96.312 54.8524 97.1387 55.9951 97.8076C58.8142 99.4535 61.6785 101.032 64.5653 102.572C65.154 102.754 65.769 102.835 66.3846 102.813C63.8135 100.919 61.3703 99.2355 59.0698 97.3792C57.7167 96.2894 57.8069 95.1245 59.3179 94.2302C60.4306 93.5387 61.8664 93.3734 63.0167 92.7271C68.9932 89.3376 75.5713 88.0374 82.2395 87.0528C84.3971 86.6846 86.5998 86.4065 88.8025 86.1435ZM122.632 92.3964L122.354 91.5246C121.408 91.7073 120.484 91.9868 119.595 92.3588C118.295 93.0577 117.137 94.0122 115.836 94.7863C110.574 98.0105 105.259 101.197 99.9888 104.429C99.7257 104.587 99.41 105.022 99.4701 105.233C99.5325 105.393 99.6339 105.536 99.7652 105.647C99.8964 105.759 100.053 105.836 100.222 105.872C100.82 105.85 101.405 105.688 101.928 105.398C106.138 102.808 110.333 100.192 114.513 97.552C117.227 95.8159 119.911 94.0874 122.602 92.3663L122.632 92.3964ZM189.149 105.924L188.803 105.248C187.969 105.554 187.164 105.933 186.398 106.383C184.736 107.555 183.203 108.916 181.519 110.05C180.676 110.461 179.784 110.762 178.865 110.945V110.614L191.126 101.663C189.232 101.385 175.437 110.434 174.542 112.403C177.737 111.651 181.308 113.004 183.563 109.66C183.781 109.344 184.315 109.224 184.639 108.983C186.127 107.938 187.616 106.924 189.112 105.887L189.149 105.924ZM179.594 115.454C177.512 115.116 174.257 114.364 170.956 114.086C162.942 113.417 154.913 112.861 146.899 112.478C142.216 112.252 137.517 112.44 132.826 112.478H129.624C130.62 112.908 131.696 113.121 132.781 113.102C143.201 113.327 153.62 113.372 164.002 114.71C169.55 115.386 175.219 115.251 179.594 115.454ZM103.973 110.396C101.282 109.915 98.786 109.509 96.3052 109.013C93.8243 108.517 91.2006 107.931 88.6446 107.375C86.0886 106.819 83.6979 106.21 81.202 105.736C78.7062 105.263 76.2328 104.932 73.7445 104.541C83.6002 108.412 99.8535 111.411 103.973 110.389V110.396ZM192.946 93.2456L192.833 93.8845L194.412 94.2753C197.779 95.1095 201.178 95.7784 204.5 96.823C208.836 98.1206 213.102 99.6407 217.281 101.377C220.032 102.557 223.813 102.753 224.37 106.977C224.783 105.751 225.031 104.774 223.806 103.82C220.227 101.024 215.965 99.6639 211.778 98.1908C207.59 96.7178 203.252 95.6807 198.997 94.5383C197.02 94.0047 194.968 93.659 192.938 93.2381L192.946 93.2456ZM118.603 91.8778L118.122 91.1789L95.0196 104.707L95.17 105.255C95.7413 105.293 96.4706 105.579 96.869 105.338C104.139 100.859 111.363 96.3571 118.603 91.8703V91.8778ZM93.1327 102.287C99.2335 99.4151 104.922 95.74 110.048 91.3592C109.416 91.1713 108.679 90.9384 108.273 91.2089C103.282 94.4857 98.3425 97.8376 93.4033 101.197C93.2304 101.302 93.2605 101.716 93.1252 102.279L93.1327 102.287ZM105.793 91.7651L105.514 91.0736C105.021 91.1539 104.539 91.2927 104.078 91.487C103.116 92.0281 102.222 92.7045 101.267 93.2607C98.5454 94.8389 95.8165 96.4172 93.0575 97.9353C91.9524 98.5441 91.4036 99.2731 91.9449 100.942L105.793 91.7651ZM121.617 89.4503C123.301 92.0281 126.128 89.4503 128.045 90.8181C128.045 90.8181 128.143 90.7204 128.195 90.7204C128.816 90.6601 129.443 90.6982 130.052 90.8331C131.714 91.4795 132.947 90.8331 133.443 88.6912C129.158 88.6912 124.948 88.6912 120.738 88.7438C120.264 88.7438 119.806 89.4428 119.339 89.8186L119.678 90.3296L121.617 89.4503ZM99.5152 100.085L99.7859 100.536C104.966 97.6497 110.378 95.1621 115.46 91.3141C112.634 90.9158 112.22 91.0736 110.574 92.5016C109.633 93.3123 108.644 94.0653 107.612 94.7562C104.92 96.5374 102.214 98.3036 99.5077 100.085H99.5152ZM27.3826 49.1595L27.4954 49.8134L48.327 44.6953L48.1767 44.064C41.1105 45.1561 34.1529 46.8611 27.3826 49.1595ZM192.021 106.623L191.465 105.744L182.827 111.2C186.586 112.703 191.232 111.103 191.953 108.149L187.059 110.855L186.713 110.261L192.021 106.623ZM101.688 91.9004L101.462 91.1488C100.711 91.1488 99.7257 90.8482 99.207 91.1939C95.794 93.3133 92.441 95.5679 89.1408 97.8226C88.8175 98.0405 88.7123 98.5741 88.5018 98.9649L88.8401 99.1904L101.688 91.9004ZM233.158 59.2379L232.97 59.9443L250.434 67.2043L250.629 66.7233C245.027 63.7399 239.183 61.2358 233.158 59.2379ZM148.719 47.8744L170.295 49.633C163.168 48.408 156.041 46.7771 148.719 47.8744ZM95.5308 92.0657C91.0202 91.4118 88.7123 93.0577 88.4115 96.9057C90.9074 95.4627 93.4259 94.3279 95.5609 92.0657H95.5308ZM168.167 52.1958V51.7223C162.378 50.7378 156.658 49.1971 150.756 49.0694L150.643 49.881L168.167 52.1958ZM206.342 112.794C211.646 112.533 216.845 111.225 221.641 108.946L221.49 108.382L206.342 112.794ZM57.649 81.2809C58.7842 77.8238 59.4307 74.2539 57.649 67.9108V81.2809ZM188.848 112.921V112.215L176.444 113.357L176.512 114.064C178.527 113.853 180.534 113.62 182.526 113.44C184.518 113.259 186.751 113.087 188.848 112.921ZM127.541 87.6466V87.2633H113.182V87.6466H127.541ZM83.713 56.5248C78.8039 55.9761 74.8721 57.0057 73.767 59.0876L83.713 56.5248ZM74.2932 103.384C71.9778 102.392 70.2788 99.8894 67.2266 100.423C68.7452 103.429 71.9703 102.362 74.2932 103.384ZM182.398 53.6613L182.511 53.0977L173.911 51.2714L173.783 51.9102C176.625 52.6242 179.346 53.9845 182.398 53.6613ZM99.8535 107.938L100.124 107.104L90.2459 105.601L90.1256 106.353L99.8535 107.938ZM77.586 102.039L77.4432 102.61C78.5859 104.173 81.6982 104.925 83.525 103.572L77.586 102.039ZM189.36 104.181C191.615 105.03 192.622 103.67 193.788 102.896C194.111 102.678 194.276 102.212 194.539 101.851C194.058 101.716 193.412 101.31 193.118 101.49C191.908 102.204 190.818 103.098 189.36 104.181ZM194.878 112.658L194.915 113.357L203.937 112.29L203.861 111.591L194.878 112.658ZM204.899 64.7843C203.14 63.1459 201.982 63.8524 200.877 64.7392C200.591 64.9647 200.238 65.4908 200.328 65.7012C200.418 65.9117 201.08 66.3926 201.283 66.31C202.456 65.9041 203.598 65.363 204.906 64.7843H204.899ZM197.892 108.69C199.343 107.39 201.223 106.781 200.944 104.466C198.336 105.443 197.667 106.3 197.892 108.69ZM144.381 24.223L144.208 23.4715L135.939 25.433L136.074 26.0793L144.381 24.223ZM280.279 15.7455C279.106 17.2486 281.61 21.0064 284.038 21.6828L280.279 15.7455ZM105.695 32.5728C108.627 33.2416 111.401 32.6329 112.423 31.1298L105.695 32.5728ZM185.338 114.109V114.53H193.472V114.109H185.338ZM100.838 90.059C102.688 90.1342 104.266 90.6227 105.424 88.7063C103.695 88.601 102.109 87.8946 100.838 90.0891V90.059ZM293.503 10.7702L293.029 11.1986C295.623 15.1743 296.096 15.6403 297.871 15.5426L293.503 10.7702ZM158.853 25.5833L153.59 23.494C153.605 25.2226 156.56 26.3574 158.853 25.5833ZM268.251 76.0276L268.694 75.3286L263.131 72.0443L262.778 72.638L268.251 76.0276ZM189.42 96.6652L183.406 95.6957C186.368 97.6197 188.059 97.8677 189.42 96.6652ZM191.164 63.7096C193.419 64.3108 194.592 63.657 194.975 61.8457C193.141 61.1393 192.322 62.5297 191.164 63.7096ZM197.178 102.896L196.629 102.219C195.344 103.189 193.788 103.827 192.795 105.143L193.367 105.834L197.178 102.896ZM73.4588 66.31L72.0379 68.9554C72.3988 69.0531 72.7897 69.3162 73.1205 69.211C74.5789 68.6999 74.2932 67.6177 73.4588 66.31ZM205.32 45.77C201.681 42.6661 201.681 42.6661 199.884 43.0043L205.32 45.77ZM297.262 20.4427L297.938 19.8941L294.879 16.5196L294.224 17.0983L297.262 20.4427ZM212.544 72.7884L212.68 73.4798C213.213 73.4798 213.958 73.6977 214.243 73.4347C214.698 72.8659 215.061 72.2293 215.318 71.5483L214.709 71.0297L212.544 72.7884ZM289.977 18.1354L290.631 17.5342L287.458 14.0921L286.857 14.6407L289.977 18.1354ZM75.6314 95.7708L75.4059 95.6205C74.5338 96.5525 73.6242 97.4468 72.8273 98.4314C72.6544 98.6493 72.895 99.1829 72.9476 99.5887C73.361 99.4309 73.985 99.3933 74.1429 99.1002C74.7293 98.033 75.1503 96.8907 75.6314 95.7708ZM82.3974 92.3663L81.3825 91.9229L79.7662 95.5604L80.5705 95.9362L82.3974 92.3663ZM72.9776 58.2308L72.5867 57.7272C70.8652 57.7799 70.1435 58.9974 69.542 60.3426L69.9029 60.771L72.9776 58.2308ZM223.941 81.7394L224.813 81.8746L225.4 78.0192L224.58 77.8914L223.941 81.7394ZM87.5771 95.4627C85.4646 96.0564 85.0887 97.2514 85.1188 98.7094L85.5999 99.0025L87.5771 95.4627ZM81.4652 96.9282C83.6679 97.1763 83.7205 95.7032 84.1715 94.5608L83.6528 94.1475L81.4652 96.9282ZM114.701 89.3676L114.949 90.1793C116.144 90.1267 117.528 90.6077 118.001 88.4582L114.701 89.3676ZM208.161 67.8356C209.462 68.8427 210.161 67.8807 210.86 67.1968C211.033 67.0239 210.928 66.573 210.958 66.2499C210.206 66.5505 209.507 66.8285 208.808 67.1667C208.567 67.2795 208.41 67.5651 208.161 67.8356ZM217.551 85.8729C219.476 85.3393 219.528 84.2871 219.002 83.0771L218.386 82.9043L217.551 85.8729ZM66.8281 71.0222L67.5799 71.3078C68.8279 70.7141 68.8429 69.7596 67.9784 68.0611L66.8281 71.0222ZM194.63 64.1756L195.088 65.0474L198.095 63.0783L197.622 62.3267L194.63 64.1756ZM194.366 110.193L195.013 110.501C196.456 109.975 196.238 108.795 196.126 107.66L195.584 107.427L194.366 110.193ZM216.228 79.6049L215.228 79.2517L214.228 81.9573L215.191 82.303L216.228 79.6049ZM220.265 84.1894C221.723 83.8061 221.987 82.4608 220.919 80.5444L220.265 84.1894ZM60.7162 78.2747C62.543 77.711 62.5581 76.6814 62.0544 75.509L61.4755 75.3587L60.7162 78.2747ZM226.948 76.1478L226.467 76.1027V79.3344H226.948V76.1478ZM206.823 73.4723L207.094 74.5244L209.53 73.9608C209.46 73.6353 209.357 73.318 209.221 73.0138C208.417 73.1115 207.62 73.2994 206.823 73.4723ZM109.213 89.33L108.92 88.6311C107.935 88.5635 106.838 88.2478 106.394 90.3897L109.213 89.33ZM77.2552 97.304L77.9018 97.537L79.503 93.2231L78.9843 93.0277L77.2552 97.304ZM206.184 61.4625H208.861C207.68 59.764 207.034 59.8015 206.184 61.4625ZM66.8808 75.6894L67.9633 75.9374L68.5647 72.9312L67.7002 72.7358L66.8808 75.6894ZM293.811 20.9763L294.45 20.3375C294.322 18.5488 293.563 17.8574 292.037 18.5262L293.811 20.9763ZM193.592 109.517L193.209 109.201L190.743 111.456C193.126 112.012 192.9 110.276 193.592 109.517ZM113.431 89.4052L113.333 88.7964C112.16 88.368 111.235 88.586 110.641 89.7058L110.852 90.292L113.431 89.4052Z" fill="#9AC8FF"/>
<path d="M192.716 87.2623L186.95 86.2176C184.507 85.7667 182.071 85.2331 179.613 84.8648C175.418 84.2485 171.223 83.5646 167.006 83.2114C160.24 82.6477 153.474 82.3471 146.655 81.8962C146.222 81.7857 145.81 81.6028 145.438 81.3551C145.851 81.1146 146.279 80.6035 146.678 80.6561C152.692 81.0244 158.744 81.4077 164.773 81.8736C166.277 81.9789 167.78 82.302 169.284 82.2795C170.201 82.2795 171.141 81.5279 172.013 81.5956C175.839 82.039 179.778 82.2644 183.395 83.4369C184.973 83.9479 186.507 85.0527 188.311 85.3909C189.86 85.684 191.378 86.1425 192.904 86.5483L192.716 87.2623Z" fill="#9AC8FF"/>
<path d="M91.625 78.9971C92.3768 77.5391 99.5111 76.9078 102.947 77.99C98.9849 79.3202 95.3463 78.6814 91.625 78.9971Z" fill="#9AC8FF"/>
<path d="M24.3203 55.5475C24.9518 54.7509 41.0924 50.5196 42.3629 51.3238C40.3105 51.9025 38.2056 52.5112 36.1382 53.0749C34.0708 53.6386 31.9283 54.1421 29.8233 54.6757L29.9361 55.3296L38.1304 53.616L38.3183 54.315L36.2434 55.1567L36.4915 57.7045L38.7468 58.9746L37.0929 59.6284L49.8731 65.686L49.5423 66.4375C45.3324 64.5962 41.1224 62.7399 36.905 60.9211C32.6875 59.1024 28.5077 57.3287 24.3203 55.5475Z" fill="#9AC8FF"/>
<path d="M150.221 37.1782L126.631 39.7184L126.375 39.5606C126.779 39.2382 127.234 38.9843 127.721 38.8091C131.044 38.283 134.374 37.7494 137.719 37.3586C141.32 36.9377 144.936 36.6596 148.552 36.3364C149.071 36.2914 149.597 36.3364 150.124 36.3364L150.221 37.1782Z" fill="#9AC8FF"/>
<path d="M232.914 76.2232C234.914 73.6905 237.575 73.1644 240.281 73.0592C241.984 73.0424 243.671 73.3803 245.236 74.0512L232.914 76.2232Z" fill="#9AC8FF"/>
<path d="M143.781 39.4502L156.787 37.3984C156.576 37.9396 156.486 38.4882 156.343 38.4957C152.164 38.864 148.074 40.2318 143.864 40.1115L143.781 39.4502Z" fill="#9AC8FF"/>
<path d="M40.3047 57.5862C43.7704 54.8806 47.9201 55.1737 51.8369 54.4297L51.9797 55.061L40.3047 57.5862Z" fill="#9AC8FF"/>
<path d="M52.2244 57.1503L46.2102 58.6534L45.9922 57.8117L51.8861 56.3086L52.2244 57.1503Z" fill="#9AC8FF"/>
<path d="M235.977 76.8999L241.239 75.6523C240.202 77.2757 238.179 77.7341 235.977 76.8999Z" fill="#9AC8FF"/>
<path d="M155.906 106.189L170.453 96.3359L170.836 96.8921C166.439 100.823 161.184 103.528 156.41 106.918L155.906 106.189Z" fill="#9AC8FF"/>
<path d="M133.28 99.9189L122.944 105.766C122.906 104.812 122.898 104.797 127.514 102.098C129.274 101.069 131.085 100.129 132.882 99.1523L133.28 99.9189Z" fill="#9AC8FF"/>
<path d="M159.241 100.327L153.144 104.543L152.633 103.791L158.737 99.5977L159.241 100.327Z" fill="#9AC8FF"/>
<path d="M129.773 103.784L135.517 100.582L135.968 101.386L130.194 104.58L129.773 103.784Z" fill="#9AC8FF"/>
</svg>
