<svg width="1289" height="1289" viewBox="0 0 1289 1289" fill="none" xmlns="http://www.w3.org/2000/svg">
<path d="M794.361 473.061L815.447 454.863L829.6 471.255L808.514 489.453L806.101 486.659L824.614 470.682L815.286 459.878L796.774 475.855L794.361 473.061Z" fill="#233550"/>
<path d="M830.786 515.611C827.005 514.801 824.02 512.63 821.829 509.099C819.638 505.567 819.013 501.918 819.954 498.151C820.932 494.392 823.151 491.442 826.61 489.299C830.162 487.098 833.793 486.425 837.504 487.278C841.238 488.117 844.207 490.313 846.413 493.868C848.632 497.446 849.292 501.074 848.392 504.752C847.492 508.429 845.255 511.375 841.68 513.59C838.221 515.733 834.589 516.407 830.786 515.611ZM823.414 499.143C822.641 501.938 823.076 504.659 824.719 507.308C826.362 509.957 828.601 511.545 831.435 512.073C834.307 512.61 837.066 512.058 839.712 510.419C842.451 508.722 844.18 506.509 844.898 503.781C845.639 501.038 845.18 498.331 843.523 495.659C841.865 492.987 839.642 491.373 836.855 490.816C834.09 490.245 831.338 490.808 828.599 492.505C825.953 494.145 824.224 496.357 823.414 499.143Z" fill="#233550"/>
<path d="M854.674 541.645L845.944 557.76L845.829 557.804L844.269 553.703L852.182 539.126L840.421 543.584L839.095 540.096L850.855 535.638L835.247 529.977L833.687 525.876L833.802 525.833L851.045 532.101L859.753 516.389L859.868 516.346L861.399 520.37L853.346 534.694L865.145 530.221L866.471 533.709L854.71 538.167L870.217 543.559L871.733 547.545L871.618 547.589L854.674 541.645Z" fill="#233550"/>
<path d="M882.565 591.884L882.762 592.973L855.134 597.938L854.47 594.266L871.167 591.266C872.404 591.044 873.675 590.857 874.98 590.706C874.274 590.333 872.875 589.502 870.781 588.212L850.938 575.907L850.748 574.858L878.376 569.894L879.033 573.524L862.497 576.496C861.152 576.737 859.814 576.936 858.482 577.092C859.518 577.6 861.008 578.471 862.953 579.704L882.565 591.884Z" fill="#233550"/>
<path d="M856.188 615.292C856.035 611.168 857.179 607.723 859.619 604.956L862.269 606.749C860.331 609.033 859.422 611.813 859.543 615.09C859.608 616.838 860.126 618.282 861.098 619.423C862.07 620.564 863.321 621.108 864.85 621.053C866.352 621 867.506 620.425 868.313 619.33C869.12 618.235 869.491 616.813 869.427 615.066L869.284 611.215L872.52 611.1L872.66 614.868C872.712 616.288 873.163 617.38 874.011 618.143C874.861 618.933 875.927 619.305 877.211 619.259C878.603 619.209 879.676 618.651 880.43 617.585C881.211 616.546 881.571 615.18 881.508 613.486C881.419 611.083 880.533 608.927 878.849 607.019L881.366 605.206C883.589 607.643 884.758 610.417 884.873 613.531C884.971 616.179 884.328 618.39 882.945 620.162C881.562 621.961 879.793 622.899 877.635 622.976C876.27 623.025 875.029 622.727 873.911 622.084C872.821 621.439 872.01 620.579 871.478 619.504C870.962 621.081 870.12 622.328 868.95 623.245C867.81 624.188 866.406 624.689 864.741 624.749C862.447 624.83 860.475 623.998 858.824 622.252C857.174 620.507 856.295 618.186 856.188 615.292Z" fill="#233550"/>
<path d="M857.128 637.13L884.847 640.083L884.462 643.751L872.396 642.465L870.784 657.79L882.85 659.075L882.464 662.743L854.745 659.791L855.131 656.123L867.401 657.43L869.012 642.105L856.743 640.798L857.128 637.13Z" fill="#233550"/>
<path d="M855.436 674.436L852.112 687.796L848.89 686.99L853.105 670.051L880.152 676.816L876.027 693.397L872.805 692.591L876.04 679.589L867.608 677.48L864.758 688.931L861.616 688.145L864.465 676.694L855.436 674.436Z" fill="#233550"/>
<path d="M845.724 698.467L871.521 709.056L870.124 712.468L858.895 707.859L853.06 722.115L864.289 726.724L862.893 730.136L837.096 719.548L838.493 716.136L849.911 720.823L855.746 706.567L844.328 701.88L845.724 698.467Z" fill="#233550"/>
<path d="M832.797 728.928L856.716 743.268L854.823 746.431L844.411 740.189L836.5 753.404L846.912 759.646L845.018 762.809L821.099 748.469L822.992 745.306L833.58 751.654L841.491 738.438L830.903 732.091L832.797 728.928Z" fill="#233550"/>
<path d="M830.192 783.339L800.266 775.613L800.203 775.561L802.676 772.557L808.742 774.158L817.803 763.155L815.069 757.506L817.543 754.502L817.606 754.554L830.921 782.454L830.192 783.339ZM825.714 778.906C824.726 777.137 823.966 775.715 823.435 774.64L819.356 766.238L812.065 775.091L821.091 777.486C822.308 777.816 823.848 778.289 825.714 778.906Z" fill="#233550"/>
<path d="M806.373 808.767L798.264 816.043L779.634 795.287L782.408 792.798L789.915 801.161L794.366 797.167L792.347 783.88L795.456 781.09L795.539 781.181L797.515 794.728C799.368 793.726 801.196 793.372 803 793.664C804.801 793.995 806.359 794.893 807.674 796.358C809.3 798.169 810.013 800.211 809.814 802.483C809.614 804.794 808.466 806.889 806.373 808.767ZM792.079 803.573L798.819 811.082L804.032 806.404C805.353 805.219 806.098 803.944 806.268 802.579C806.417 801.233 805.971 799.98 804.93 798.82C803.889 797.66 802.691 797.082 801.337 797.085C799.962 797.106 798.614 797.71 797.292 798.895L792.079 803.573Z" fill="#233550"/>
<path d="M756.063 813.043L770.13 837.124L755.41 845.709L753.693 842.77L765.228 836.042L752.878 814.9L756.063 813.043Z" fill="#233550"/>
<path d="M734.8 855.844L711.915 835.054L711.883 834.978L715.474 833.477L720.096 837.723L733.25 832.224L733.465 825.955L737.056 824.454L737.088 824.53L735.859 855.401L734.8 855.844ZM732.904 849.836C732.855 847.812 732.846 846.201 732.877 845.003L733.186 835.673L722.602 840.097L729.475 846.425C730.397 847.284 731.54 848.421 732.904 849.836Z" fill="#233550"/>
<path d="M703.256 838.06L710.02 865.108L699.881 867.631C697.177 868.303 694.831 867.986 692.843 866.678C690.854 865.37 689.581 863.602 689.024 861.375C688.467 859.147 688.768 857.03 689.928 855.023C691.061 853.023 693.045 851.671 695.882 850.965L702.284 849.372L699.677 838.951L703.256 838.06ZM703.079 852.554L696.876 854.097C695.074 854.546 693.831 855.376 693.149 856.588C692.447 857.833 692.268 859.145 692.613 860.524C692.971 861.956 693.78 863.051 695.039 863.808C696.272 864.571 697.697 864.752 699.314 864.35L705.636 862.777L703.079 852.554Z" fill="#233550"/>
<path d="M662.887 874.591L647.21 847.945L647.202 847.863L651.079 847.498L654.232 852.925L668.431 851.588L670.5 845.67L674.377 845.305L674.384 845.387L664.03 874.484L662.887 874.591ZM662.863 868.294C663.418 866.348 663.888 864.807 664.274 863.673L667.343 854.861L655.919 855.936L660.602 864.019C661.228 865.113 661.981 866.538 662.863 868.294Z" fill="#233550"/>
<path d="M638.041 848.288L636.542 876.117L632.858 875.914L633.511 863.8L618.122 862.95L617.469 875.063L613.786 874.86L615.285 847.031L618.969 847.234L618.305 859.553L633.694 860.403L634.358 848.085L638.041 848.288Z" fill="#233550"/>
<path d="M582.926 869.957L583.577 866.619L591.663 868.205L596.342 844.194L599.963 844.904L595.284 868.916L603.33 870.494L602.68 873.832L582.926 869.957Z" fill="#233550"/>
<path d="M545.916 859.024L544.872 858.658L554.133 832.165L557.654 833.4L552.057 849.412C551.642 850.598 551.18 851.796 550.67 853.007C551.341 852.576 552.753 851.769 554.905 850.585L575.366 839.396L576.372 839.749L567.111 866.242L563.628 865.02L569.172 849.163C569.622 847.874 570.107 846.612 570.626 845.375C569.675 846.026 568.184 846.892 566.155 847.975L545.916 859.024Z" fill="#233550"/>
<path d="M525.72 849.754L516.08 844.648L529.098 820.022L532.396 821.768L527.15 831.691L532.442 834.494L544.211 828.026L547.908 829.984L547.85 830.093L535.823 836.609C537.406 838.004 538.372 839.597 538.723 841.39C539.038 843.195 538.735 844.966 537.816 846.704C536.68 848.853 535.012 850.225 532.81 850.821C530.572 851.428 528.209 851.072 525.72 849.754ZM525.638 834.553L520.928 843.461L527.126 846.744C528.696 847.576 530.151 847.836 531.49 847.526C532.806 847.203 533.827 846.353 534.554 844.977C535.282 843.6 535.409 842.277 534.937 841.007C534.44 839.724 533.406 838.667 531.835 837.835L525.638 834.553Z" fill="#233550"/>
<path d="M481.406 784.664L460.675 803.265L446.21 787.148L466.94 768.547L469.406 771.294L451.206 787.625L460.74 798.247L478.94 781.917L481.406 784.664Z" fill="#233550"/>
<path d="M444.221 742.924C448.016 743.662 451.042 745.776 453.3 749.265C455.558 752.754 456.252 756.391 455.384 760.176C454.477 763.952 452.315 766.945 448.897 769.153C445.388 771.421 441.771 772.164 438.044 771.381C434.295 770.614 431.284 768.474 429.012 764.962C426.724 761.426 425.995 757.812 426.825 754.118C427.655 750.424 429.836 747.435 433.368 745.153C436.785 742.944 440.403 742.201 444.221 742.924ZM451.906 759.249C452.625 756.44 452.138 753.727 450.445 751.11C448.751 748.494 446.483 746.948 443.639 746.474C440.758 745.992 438.01 746.596 435.395 748.286C432.689 750.035 431.003 752.28 430.338 755.022C429.649 757.778 430.159 760.476 431.867 763.116C433.575 765.756 435.828 767.328 438.626 767.831C441.401 768.349 444.141 767.734 446.848 765.985C449.462 764.295 451.148 762.05 451.906 759.249Z" fill="#233550"/>
<path d="M419.439 716.521L427.928 700.277L428.042 700.232L429.663 704.309L421.969 719.003L433.661 714.37L435.04 717.837L423.347 722.471L439.038 727.898L440.658 731.976L440.544 732.021L423.21 726.01L414.737 741.85L414.623 741.896L413.033 737.894L420.871 723.452L409.14 728.1L407.762 724.633L419.455 719.999L403.87 714.839L402.295 710.876L402.409 710.83L419.439 716.521Z" fill="#233550"/>
<path d="M390.959 667.933L390.742 666.848L418.273 661.379L419.005 665.037L402.366 668.342C401.133 668.587 399.866 668.797 398.564 668.972C399.276 669.332 400.691 670.138 402.808 671.39L422.872 683.329L423.081 684.375L395.55 689.844L394.826 686.226L411.305 682.952C412.645 682.686 413.979 682.463 415.308 682.282C414.263 681.793 412.757 680.95 410.79 679.752L390.959 667.933Z" fill="#233550"/>
<path d="M416.796 643.828C417.024 647.949 415.943 651.414 413.553 654.225L410.871 652.481C412.768 650.162 413.626 647.365 413.445 644.091C413.348 642.345 412.804 640.91 411.811 639.787C410.819 638.663 409.559 638.143 408.031 638.225C406.53 638.306 405.386 638.901 404.599 640.011C403.812 641.121 403.467 642.549 403.564 644.295L403.776 648.142L400.543 648.316L400.335 644.551C400.257 643.132 399.786 642.049 398.924 641.302C398.06 640.528 396.987 640.175 395.705 640.244C394.314 640.319 393.251 640.896 392.517 641.976C391.754 643.029 391.42 644.402 391.513 646.094C391.646 648.495 392.571 650.634 394.29 652.512L391.806 654.37C389.539 651.974 388.32 649.221 388.148 646.111C388.002 643.464 388.604 641.242 389.955 639.445C391.305 637.621 393.057 636.651 395.213 636.535C396.577 636.461 397.824 636.736 398.953 637.36C400.054 637.984 400.881 638.829 401.432 639.894C401.919 638.308 402.739 637.046 403.891 636.108C405.015 635.145 406.409 634.618 408.073 634.528C410.365 634.405 412.352 635.201 414.034 636.917C415.715 638.632 416.636 640.936 416.796 643.828Z" fill="#233550"/>
<path d="M415.421 621.734L387.654 619.286L387.973 615.612L400.06 616.677L401.392 601.325L389.305 600.26L389.624 596.585L417.391 599.033L417.072 602.708L404.781 601.624L403.449 616.976L415.74 618.059L415.421 621.734Z" fill="#233550"/>
<path d="M416.189 585.349L419.267 571.93L422.503 572.676L418.601 589.69L391.434 583.423L395.254 566.769L398.49 567.515L395.494 580.575L403.964 582.529L406.602 571.027L409.758 571.755L407.12 583.257L416.189 585.349Z" fill="#233550"/>
<path d="M425.613 560.297L399.624 550.192L400.957 546.754L412.27 551.153L417.837 536.79L406.525 532.392L407.857 528.954L433.846 539.059L432.514 542.497L421.01 538.024L415.442 552.387L426.946 556.86L425.613 560.297Z" fill="#233550"/>
<path d="M437.78 529.859L413.593 515.975L415.426 512.776L425.955 518.82L433.613 505.457L423.085 499.413L424.918 496.214L449.105 510.098L447.272 513.297L436.565 507.151L428.907 520.515L439.613 526.66L437.78 529.859Z" fill="#233550"/>
<path d="M438.819 475.966L468.888 483.116L468.952 483.167L466.537 486.218L460.441 484.733L451.594 495.909L454.435 501.505L452.02 504.556L451.956 504.505L438.107 476.865L438.819 475.966ZM443.382 480.312C444.403 482.062 445.19 483.469 445.742 484.534L449.982 492.856L457.101 483.864L448.031 481.643C446.808 481.337 445.259 480.893 443.382 480.312Z" fill="#233550"/>
<path d="M462.798 449.213L470.794 441.812L489.742 462.279L487.006 464.811L479.372 456.564L474.983 460.626L477.207 473.881L474.14 476.719L474.057 476.629L471.872 463.114C470.035 464.144 468.212 464.527 466.404 464.263C464.598 463.96 463.026 463.086 461.689 461.641C460.036 459.855 459.291 457.825 459.455 455.549C459.62 453.236 460.734 451.124 462.798 449.213ZM477.17 454.186L470.316 446.782L465.176 451.54C463.873 452.745 463.147 454.032 462.999 455.399C462.87 456.747 463.336 457.993 464.394 459.137C465.453 460.281 466.66 460.841 468.014 460.816C469.389 460.774 470.727 460.15 472.03 458.944L477.17 454.186Z" fill="#233550"/>
<path d="M512.824 444.09L498.302 420.281L512.856 411.417L514.628 414.323L503.223 421.269L515.972 442.173L512.824 444.09Z" fill="#233550"/>
<path d="M533.987 400.51L557.18 420.956L557.213 421.031L553.645 422.586L548.96 418.41L535.89 424.105L535.769 430.376L532.201 431.931L532.168 431.855L532.935 400.969L533.987 400.51ZM535.973 406.489C536.052 408.512 536.085 410.123 536.072 411.321L535.903 420.655L546.419 416.073L539.452 409.849C538.517 409.004 537.357 407.884 535.973 406.489Z" fill="#233550"/>
<path d="M564.945 418.007L557.684 391.088L567.775 388.379C570.466 387.656 572.817 387.931 574.829 389.202C576.841 390.473 578.146 392.217 578.744 394.434C579.342 396.651 579.08 398.773 577.958 400.801C576.862 402.822 574.903 404.211 572.08 404.969L565.709 406.679L568.506 417.051L564.945 418.007ZM564.854 403.512L571.028 401.855C572.822 401.373 574.049 400.52 574.709 399.296C575.388 398.038 575.542 396.723 575.172 395.351C574.788 393.926 573.959 392.846 572.686 392.112C571.44 391.371 570.012 391.217 568.402 391.649L562.11 393.338L564.854 403.512Z" fill="#233550"/>
<path d="M604.842 380.619L621.002 406.977L621.011 407.058L617.143 407.493L613.891 402.125L599.719 403.72L597.758 409.675L593.889 410.11L593.88 410.029L603.702 380.748L604.842 380.619ZM604.982 386.915C604.462 388.872 604.02 390.42 603.655 391.561L600.747 400.428L612.149 399.145L607.32 391.149C606.675 390.066 605.895 388.655 604.982 386.915Z" fill="#233550"/>
<path d="M630.205 406.398L631.199 378.545L634.885 378.682L634.453 390.806L649.855 391.376L650.287 379.252L653.973 379.389L652.98 407.242L649.294 407.105L649.733 394.776L634.332 394.206L633.892 406.534L630.205 406.398Z" fill="#233550"/>
<path d="M685.687 383.831L685.086 387.178L676.977 385.711L672.65 409.789L669.02 409.131L673.346 385.053L665.278 383.593L665.879 380.245L685.687 383.831Z" fill="#233550"/>
<path d="M722.091 393.852L723.142 394.199L714.374 420.86L710.831 419.69L716.13 403.577C716.523 402.383 716.963 401.177 717.45 399.957C716.787 400.4 715.39 401.233 713.261 402.457L693.011 414.023L691.999 413.689L700.767 387.029L704.271 388.186L699.023 404.143C698.597 405.44 698.135 406.712 697.639 407.957C698.578 407.289 700.052 406.395 702.061 405.275L722.091 393.852Z" fill="#233550"/>
<path d="M743.458 403.161L753.174 408.121L740.53 432.941L737.206 431.245L742.301 421.243L736.968 418.521L725.298 425.166L721.572 423.264L721.628 423.155L733.555 416.457C731.952 415.087 730.961 413.508 730.583 411.72C730.242 409.921 730.517 408.145 731.41 406.393C732.513 404.227 734.161 402.83 736.353 402.201C738.582 401.561 740.95 401.881 743.458 403.161ZM743.77 418.36L748.344 409.38L742.098 406.192C740.515 405.384 739.057 405.145 737.722 405.476C736.412 405.819 735.404 406.684 734.697 408.071C733.991 409.458 733.883 410.783 734.375 412.046C734.891 413.322 735.941 414.363 737.524 415.171L743.77 418.36Z" fill="#233550"/>
<circle opacity="0.1" cx="644.5" cy="644.5" r="364" stroke="white"/>
<circle opacity="0.1" cx="644.5" cy="644.5" r="445" stroke="white"/>
<circle opacity="0.1" cx="644.5" cy="644.5" r="541" stroke="white"/>
<circle opacity="0.1" cx="644.5" cy="644.5" r="644" stroke="white"/>
</svg>
