<svg width="140" height="36" viewBox="0 0 140 36" fill="none" xmlns="http://www.w3.org/2000/svg">
<path d="M0 18.1346V17.6702L2.20375 16.7856L8.70258 0H9.06237L15.2014 17.3385L17.2702 17.6702V18.1346H10.659V17.6702L12.5029 17.3827L10.5915 12.1413H4.60989L2.78842 16.7856L4.81228 17.6702V18.1346H0ZM4.78979 11.6769H10.4341L7.73562 3.89231L4.78979 11.6769Z" fill="#0F1826"/>
<path d="M30.757 18.3558C29.9174 18.3558 29.2878 18.1567 28.868 17.7587C28.4483 17.3606 28.1634 16.6824 28.0135 15.724L27.4738 11.9865C27.3239 10.9397 27.0016 10.1804 26.5069 9.70865C26.0122 9.23686 25.2176 9.00096 24.1232 9.00096H22.2343V17.3385L24.3031 17.6702V18.1346H17.6919V17.6702L19.7607 17.3385V1.23846L17.6919 0.928846V0.442309H24.3031V0.928846L22.2343 1.23846V8.47019H24.5955C25.3151 8.45545 25.9297 8.18269 26.4394 7.65192C26.9491 7.10641 27.3164 6.38397 27.5413 5.48462L28.2384 2.69808C28.4483 1.87244 28.7631 1.25321 29.1829 0.840384C29.6176 0.427564 30.1348 0.221154 30.7345 0.221154C31.2292 0.221154 31.6565 0.361218 32.0163 0.641347C32.3911 0.921475 32.5784 1.29006 32.5784 1.74712C32.5784 2.17468 32.451 2.52115 32.1962 2.78654C31.9563 3.05192 31.634 3.18462 31.2292 3.18462H30.7795C30.5396 2.55064 30.1648 2.23365 29.6551 2.23365C29.1604 2.23365 28.8531 2.48429 28.7331 2.98558L28.036 5.77212C27.8561 6.46506 27.5938 7.05481 27.249 7.54135C26.9042 8.01314 26.5069 8.35224 26.0571 8.55865C27.3014 8.70609 28.2534 9.05994 28.913 9.62019C29.5726 10.1804 29.9774 10.9397 30.1273 11.8981L30.6445 15.2375C30.7645 15.9894 30.8919 16.5128 31.0268 16.8077C31.1617 17.1026 31.3566 17.2795 31.6115 17.3385C31.6565 17.3532 31.7239 17.3606 31.8139 17.3606C32.2636 17.3606 32.7359 17.1099 33.2306 16.6087L33.6129 17.0067C32.8033 17.9061 31.8514 18.3558 30.757 18.3558Z" fill="#0F1826"/>
<path d="M32.7647 18.1346V17.6702L34.9684 16.7856L41.4672 0H41.827L47.9661 17.3385L50.0349 17.6702V18.1346H43.4236V17.6702L45.2676 17.3827L43.3562 12.1413H37.3746L35.5531 16.7856L37.5769 17.6702V18.1346H32.7647ZM37.5545 11.6769H43.1988L40.5003 3.89231L37.5545 11.6769Z" fill="#0F1826"/>
<path d="M48.8824 17.5817H49.6245C50.1192 17.5817 50.6139 17.3827 51.1087 16.9846C51.6034 16.5718 52.0681 15.9157 52.5029 15.0163C52.9076 14.176 53.2225 13.166 53.4473 11.9865C53.6722 10.8071 53.8521 9.03782 53.987 6.67885L54.2794 1.92404L51.8957 0.950962V0.442309H65.0508V0.928846L62.9595 1.23846V17.5817H64.8934L65.2307 23H64.5561L62.2174 18.1346H51.5584L49.2197 23H48.5451L48.8824 17.5817ZM60.4859 17.5817V0.995193H54.954L54.5942 6.67885C54.4293 9.11154 54.2344 10.9324 54.0095 12.1413C53.7847 13.3356 53.4773 14.3676 53.0875 15.2375C52.8477 15.7683 52.5928 16.2106 52.323 16.5644C52.0681 16.9035 51.8358 17.1615 51.6259 17.3385C51.416 17.5154 51.3111 17.5965 51.3111 17.5817H60.4859Z" fill="#0F1826"/>
<path d="M67.0365 18.1346V17.6702L69.1053 17.3385V1.23846L67.0365 0.928846V0.442309H80.5739V5.50673H79.9667L78.2352 0.995193H71.5789V8.95673H74.5023L75.829 5.75H76.4137V12.7385H75.829L74.4798 9.4875H71.5789V17.6038H78.6399L80.4839 12.7385H81.0686V18.1346H67.0365Z" fill="#0F1826"/>
<path d="M92.5979 18.3558L85.8967 1.23846V16.7856L88.0554 17.6702V18.1346H83.2432V17.6702L85.357 16.7856V1.23846L83.2881 0.928846V0.442309H88.2578L93.9021 14.6404L99.6589 0.442309H104.201V0.928846L102.132 1.23846V17.3385L104.201 17.6702V18.1346H97.59V17.6702L99.6589 17.3385V1.90192L93.0026 18.3558H92.5979Z" fill="#0F1826"/>
<path d="M105.882 18.1346V17.6702L107.95 17.3385V1.23846L105.882 0.928846V0.442309H112.493V0.928846L110.424 1.23846V15.5692L119.194 1.85769V1.23846L117.103 0.928846V0.442309H123.759V0.928846L121.668 1.23846V17.3385L123.759 17.6702V18.1346H117.103V17.6702L119.194 17.3385V2.89712L110.424 16.6087V17.3385L112.493 17.6702V18.1346H105.882Z" fill="#0F1826"/>
<path d="M126.935 18.3558C125.841 18.3558 124.889 17.9061 124.079 17.0067L124.461 16.6087C124.956 17.1099 125.428 17.3606 125.878 17.3606C125.968 17.3606 126.035 17.3532 126.08 17.3385C126.335 17.2795 126.53 17.1026 126.665 16.8077C126.8 16.5128 126.927 15.9894 127.047 15.2375L127.385 13.1144C127.565 12.0381 127.969 11.242 128.599 10.726C129.244 10.2099 130.188 9.86346 131.432 9.68654V9.55385C128.299 9.14103 126.733 7.66667 126.733 5.13077C126.733 3.53846 127.302 2.35897 128.442 1.59231C129.581 0.825642 131.372 0.442309 133.816 0.442309H140V0.928846L137.931 1.23846V17.3385L140 17.6702V18.1346H133.389V17.6702L135.458 17.3385V9.79712H133.704C132.639 9.79712 131.807 10.033 131.207 10.5048C130.623 10.9619 130.256 11.7138 130.106 12.7606L129.678 15.724C129.528 16.6824 129.244 17.3606 128.824 17.7587C128.404 18.1567 127.774 18.3558 126.935 18.3558ZM135.458 9.26635V0.995193H133.816C130.908 0.995193 129.453 2.21891 129.453 4.66635V5.37404C129.453 6.62724 129.776 7.59295 130.42 8.27115C131.065 8.93462 131.942 9.26635 133.051 9.26635H135.458Z" fill="#0F1826"/>
<path d="M0 32.8556V32.6333L0.68818 32.5222V27.4333L0 27.3222V27.1H5.70206V27.3222L5.01388 27.4333V32.5222L5.70206 32.6333V32.8556H3.4409V32.6333L4.03077 32.5222V27.3778H1.67129V32.5222L2.26116 32.6333V32.8556H0Z" fill="#0F1826"/>
<path d="M8.93443 32.9667C8.46254 32.9667 8.03325 32.8444 7.64655 32.6C7.25986 32.3481 6.95182 31.9963 6.72243 31.5444C6.49959 31.0852 6.38817 30.563 6.38817 29.9778C6.38817 29.363 6.50614 28.8296 6.74209 28.3778C6.98459 27.9259 7.29919 27.5852 7.68588 27.3556C8.07257 27.1185 8.48876 27 8.93443 27C9.30802 27 9.64883 27.0741 9.95687 27.2222C10.2649 27.363 10.5074 27.563 10.6844 27.8222C10.8679 28.0815 10.9597 28.3741 10.9597 28.7C10.9597 28.9444 10.9039 29.1333 10.7925 29.2667C10.6811 29.3926 10.5336 29.4556 10.3501 29.4556C10.1732 29.4556 10.0257 29.3889 9.90772 29.2556C9.78974 29.1222 9.73076 28.9556 9.73076 28.7556C9.82907 28.6815 9.89789 28.6 9.93721 28.5111C9.97654 28.4222 9.9962 28.3111 9.9962 28.1778C9.9962 27.9037 9.89789 27.6815 9.70126 27.5111C9.5112 27.3333 9.25559 27.2444 8.93443 27.2444C8.46254 27.2444 8.09879 27.437 7.84318 27.8222C7.59412 28.2 7.46959 28.7333 7.46959 29.4222V30.5333C7.46959 31.1926 7.59085 31.7222 7.83335 32.1222C8.0824 32.5222 8.44943 32.7222 8.93443 32.7222C9.38011 32.7222 9.76681 32.5815 10.0945 32.3C10.4288 32.0111 10.6352 31.6333 10.7139 31.1667H10.94C10.8482 31.7148 10.6188 32.1519 10.2518 32.4778C9.89133 32.8037 9.45221 32.9667 8.93443 32.9667Z" fill="#0F1826"/>
<path d="M11.6073 32.8556V32.6333L12.2955 32.5222V27.4333L11.6073 27.3222V27.1H13.8684V27.3222L13.2786 27.4333V31.7556L15.7659 27.6556V27.4333L15.176 27.3222V27.1H17.4371V27.3222L16.749 27.4333V32.5222L17.4371 32.6333V32.8556H15.176V32.6333L15.7659 32.5222V28.1222L13.2786 32.2333V32.5222L13.8684 32.6333V32.8556H11.6073Z" fill="#0F1826"/>
<path d="M22.78 32.5333L23.4092 32.6333V32.8556H21.0104V32.6333L21.6003 32.5222L20.2436 30.4222L18.7984 32.3778L19.5947 32.6333V32.8556H17.8349V32.6333L18.4936 32.3556L20.0863 30.1667L18.3166 27.4222L17.7169 27.3222V27.1H20.1157V27.3222L19.4964 27.4444L20.7253 29.3444L22.0427 27.5889L21.266 27.3333V27.1111H23.0749V27.3333L22.3572 27.6222L20.8826 29.6L22.78 32.5333Z" fill="#0F1826"/>
<path d="M26.0525 32.9667C25.5806 32.9667 25.1513 32.8444 24.7647 32.6C24.378 32.3481 24.0699 31.9963 23.8405 31.5444C23.6177 31.0852 23.5063 30.563 23.5063 29.9778C23.5063 29.3926 23.6177 28.8741 23.8405 28.4222C24.0699 27.9704 24.378 27.6222 24.7647 27.3778C25.1513 27.1259 25.5806 27 26.0525 27C26.5244 27 26.9537 27.1259 27.3404 27.3778C27.7271 27.6222 28.0319 27.9704 28.2547 28.4222C28.4841 28.8741 28.5988 29.3926 28.5988 29.9778C28.5988 30.563 28.4841 31.0852 28.2547 31.5444C28.0319 31.9963 27.7271 32.3481 27.3404 32.6C26.9537 32.8444 26.5244 32.9667 26.0525 32.9667ZM26.0525 32.7222C26.5375 32.7222 26.9013 32.5222 27.1438 32.1222C27.3928 31.7222 27.5174 31.1926 27.5174 30.5333V29.4222C27.5174 28.763 27.3928 28.237 27.1438 27.8444C26.9013 27.4444 26.5375 27.2444 26.0525 27.2444C25.5675 27.2444 25.2005 27.4444 24.9514 27.8444C24.7089 28.237 24.5877 28.763 24.5877 29.4222V30.5333C24.5877 31.1926 24.7089 31.7222 24.9514 32.1222C25.2005 32.5222 25.5675 32.7222 26.0525 32.7222Z" fill="#0F1826"/>
<path d="M29.5559 32.9667C29.3266 32.9667 29.1463 32.9037 29.0152 32.7778C28.8842 32.6519 28.8186 32.4667 28.8186 32.2222C28.8186 32.0148 28.8743 31.8519 28.9857 31.7333C29.0972 31.6148 29.2315 31.5556 29.3888 31.5556C29.4937 31.5556 29.5822 31.5815 29.6543 31.6333C29.7264 31.6778 29.7788 31.7259 29.8116 31.7778C29.8509 31.8296 29.8738 31.863 29.8804 31.8778C29.7952 31.9667 29.7526 32.063 29.7526 32.1667C29.7526 32.2852 29.8181 32.3444 29.9492 32.3444C30.3949 32.3444 30.6669 31.2704 30.7652 29.1222L30.8242 27.8L29.9295 27.3222V27.1H34.3437V27.3222L33.6555 27.4333V32.5111L34.3634 32.6222V32.8556H32.0629V32.6222L32.6724 32.5111V27.3778H31.0798L31.0011 29.1333C30.9618 30.0296 30.8864 30.7556 30.775 31.3111C30.6701 31.8667 30.5194 32.2815 30.3228 32.5556C30.1262 32.8296 29.8705 32.9667 29.5559 32.9667Z" fill="#0F1826"/>
<path d="M37.6022 32.9667C37.1303 32.9667 36.701 32.8444 36.3143 32.6C35.9276 32.3481 35.6196 31.9963 35.3902 31.5444C35.1674 31.0852 35.0559 30.563 35.0559 29.9778C35.0559 29.3926 35.1674 28.8741 35.3902 28.4222C35.6196 27.9704 35.9276 27.6222 36.3143 27.3778C36.701 27.1259 37.1303 27 37.6022 27C38.0741 27 38.5034 27.1259 38.8901 27.3778C39.2768 27.6222 39.5815 27.9704 39.8044 28.4222C40.0338 28.8741 40.1485 29.3926 40.1485 29.9778C40.1485 30.563 40.0338 31.0852 39.8044 31.5444C39.5815 31.9963 39.2768 32.3481 38.8901 32.6C38.5034 32.8444 38.0741 32.9667 37.6022 32.9667ZM37.6022 32.7222C38.0872 32.7222 38.451 32.5222 38.6935 32.1222C38.9425 31.7222 39.067 31.1926 39.067 30.5333V29.4222C39.067 28.763 38.9425 28.237 38.6935 27.8444C38.451 27.4444 38.0872 27.2444 37.6022 27.2444C37.1172 27.2444 36.7502 27.4444 36.5011 27.8444C36.2586 28.237 36.1374 28.763 36.1374 29.4222V30.5333C36.1374 31.1926 36.2586 31.7222 36.5011 32.1222C36.7502 32.5222 37.1172 32.7222 37.6022 32.7222Z" fill="#0F1826"/>
<path d="M40.8319 32.8556V32.6333L41.5201 32.5222V27.4333L40.8319 27.3222V27.1H45.1281L45.2756 29.2111H45.0003L44.1352 27.3778H42.5032V32.5222L43.388 32.6333V32.8556H40.8319Z" fill="#0F1826"/>
<path d="M45.7475 32.8556V32.6333L46.4356 32.5222V27.4333L45.7475 27.3222V27.1H48.0086V27.3222L47.4188 27.4333V31.7556L49.906 27.6556V27.4333L49.3162 27.3222V27.1H51.5773V27.3222L50.8891 27.4333V32.5222L51.5773 32.6333V32.8556H49.3162V32.6333L49.906 32.5222V28.1222L47.4188 32.2333V32.5222L48.0086 32.6333V32.8556H45.7475Z" fill="#0F1826"/>
<path d="M52.1127 32.8556V32.6333L52.8009 32.5222V27.4333L52.1127 27.3222V27.1H54.3739V27.3222L53.784 27.4333V31.7556L56.2713 27.6556V27.4333L55.6814 27.3222V27.1H57.9426V27.3222L57.2544 27.4333V32.5222L57.9426 32.6333V32.8556H55.6814V32.6333L56.2713 32.5222V28.1222L53.784 32.2333V32.5222L54.3739 32.6333V32.8556H52.1127Z" fill="#0F1826"/>
<path d="M60.8302 32.8556V32.6333L61.5184 32.5222V27.4333L60.8302 27.3222V27.1H63.0914V27.3222L62.5015 27.4333V31.7556L64.9888 27.6556V27.4333L64.3989 27.3222V27.1H66.6601V27.3222L65.9719 27.4333V32.5222L66.6601 32.6333V32.8556H64.3989V32.6333L64.9888 32.5222V28.1222L62.5015 32.2333V32.5222L63.0914 32.6333V32.8556H60.8302Z" fill="#0F1826"/>
<path d="M69.5477 32.8556V32.6333L70.2358 32.5222V27.4333L69.5477 27.3222V27.1H75.2497V27.3222L74.5615 27.4333V32.5222L75.2497 32.6333V32.8556H72.9886V32.6333L73.5784 32.5222V27.3778H71.2189V32.5222L71.8088 32.6333V32.8556H69.5477Z" fill="#0F1826"/>
<path d="M78.4821 32.9667C78.0102 32.9667 77.5809 32.8444 77.1942 32.6C76.8075 32.3481 76.4995 31.9963 76.2701 31.5444C76.0472 31.0852 75.9358 30.563 75.9358 29.9778C75.9358 29.363 76.0538 28.8296 76.2897 28.3778C76.5323 27.9259 76.8468 27.5852 77.2335 27.3556C77.6202 27.1185 78.0364 27 78.4821 27C78.8557 27 79.1965 27.0741 79.5045 27.2222C79.8126 27.363 80.0551 27.563 80.232 27.8222C80.4155 28.0815 80.5073 28.3741 80.5073 28.7C80.5073 28.9444 80.4516 29.1333 80.3402 29.2667C80.2288 29.3926 80.0813 29.4556 79.8978 29.4556C79.7208 29.4556 79.5733 29.3889 79.4554 29.2556C79.3374 29.1222 79.2784 28.9556 79.2784 28.7556C79.3767 28.6815 79.4455 28.6 79.4849 28.5111C79.5242 28.4222 79.5439 28.3111 79.5439 28.1778C79.5439 27.9037 79.4455 27.6815 79.2489 27.5111C79.0588 27.3333 78.8032 27.2444 78.4821 27.2444C78.0102 27.2444 77.6464 27.437 77.3908 27.8222C77.1418 28.2 77.0173 28.7333 77.0173 29.4222V30.5333C77.0173 31.1926 77.1385 31.7222 77.381 32.1222C77.6301 32.5222 77.9971 32.7222 78.4821 32.7222C78.9278 32.7222 79.3145 32.5815 79.6422 32.3C79.9764 32.0111 80.1829 31.6333 80.2615 31.1667H80.4876C80.3959 31.7148 80.1665 32.1519 79.7995 32.4778C79.439 32.8037 78.9999 32.9667 78.4821 32.9667Z" fill="#0F1826"/>
<path d="M81.1549 32.8556V32.6333L81.8431 32.5222V27.4333L81.1549 27.3222V27.1H83.4161V27.3222L82.8262 27.4333V31.7556L85.3135 27.6556V27.4333L84.7236 27.3222V27.1H86.9848V27.3222L86.2966 27.4333V32.5222L86.9848 32.6333V32.8556H84.7236V32.6333L85.3135 32.5222V28.1222L82.8262 32.2333V32.5222L83.4161 32.6333V32.8556H81.1549Z" fill="#0F1826"/>
<path d="M92.3276 32.5333L92.9568 32.6333V32.8556H90.558V32.6333L91.1479 32.5222L89.7912 30.4222L88.346 32.3778L89.1424 32.6333V32.8556H87.3826V32.6333L88.0413 32.3556L89.6339 30.1667L87.8643 27.4222L87.2646 27.3222V27.1H89.6634V27.3222L89.044 27.4444L90.2729 29.3444L91.5903 27.5889L90.8136 27.3333V27.1111H92.6226V27.3333L91.9049 27.6222L90.4302 29.6L92.3276 32.5333Z" fill="#0F1826"/>
<path d="M95.6002 32.9667C95.1283 32.9667 94.699 32.8444 94.3123 32.6C93.9256 32.3481 93.6176 31.9963 93.3882 31.5444C93.1653 31.0852 93.0539 30.563 93.0539 29.9778C93.0539 29.3926 93.1653 28.8741 93.3882 28.4222C93.6176 27.9704 93.9256 27.6222 94.3123 27.3778C94.699 27.1259 95.1283 27 95.6002 27C96.0721 27 96.5014 27.1259 96.8881 27.3778C97.2748 27.6222 97.5795 27.9704 97.8024 28.4222C98.0318 28.8741 98.1464 29.3926 98.1464 29.9778C98.1464 30.563 98.0318 31.0852 97.8024 31.5444C97.5795 31.9963 97.2748 32.3481 96.8881 32.6C96.5014 32.8444 96.0721 32.9667 95.6002 32.9667ZM95.6002 32.7222C96.0852 32.7222 96.4489 32.5222 96.6914 32.1222C96.9405 31.7222 97.065 31.1926 97.065 30.5333V29.4222C97.065 28.763 96.9405 28.237 96.6914 27.8444C96.4489 27.4444 96.0852 27.2444 95.6002 27.2444C95.1152 27.2444 94.7482 27.4444 94.4991 27.8444C94.2566 28.237 94.1353 28.763 94.1353 29.4222V30.5333C94.1353 31.1926 94.2566 31.7222 94.4991 32.1222C94.7482 32.5222 95.1152 32.7222 95.6002 32.7222Z" fill="#0F1826"/>
<path d="M99.9604 32.8556V32.6333L100.747 32.5222V27.3778H99.9015L99.0462 29.2111H98.7709L98.9184 27.1H103.559L103.706 29.2111H103.431L102.566 27.3778H101.73V32.5222L102.517 32.6333V32.8556H99.9604Z" fill="#0F1826"/>
<path d="M106.93 32.9667C106.445 32.9667 106.006 32.8444 105.613 32.6C105.22 32.3481 104.908 31.9963 104.679 31.5444C104.449 31.0926 104.335 30.5704 104.335 29.9778C104.335 29.3852 104.446 28.8667 104.669 28.4222C104.898 27.9704 105.203 27.6222 105.583 27.3778C105.97 27.1259 106.399 27 106.871 27C107.284 27 107.654 27.1037 107.982 27.3111C108.31 27.5185 108.565 27.8074 108.749 28.1778C108.932 28.5407 109.027 28.9593 109.034 29.4333H105.416V30.5333C105.416 31.1852 105.544 31.7148 105.8 32.1222C106.062 32.5222 106.439 32.7222 106.93 32.7222C107.382 32.7222 107.782 32.5778 108.13 32.2889C108.477 32 108.69 31.6259 108.769 31.1667H108.995C108.903 31.7148 108.67 32.1519 108.297 32.4778C107.923 32.8037 107.468 32.9667 106.93 32.9667ZM107.953 29.1556C107.953 28.5111 107.864 28.0333 107.687 27.7222C107.51 27.4037 107.235 27.2444 106.861 27.2444C106.422 27.2444 106.081 27.4185 105.839 27.7667C105.596 28.1148 105.459 28.5778 105.426 29.1556H107.953Z" fill="#0F1826"/>
<path d="M109.629 35.7778L110.317 35.6667V27.4444L109.629 27.3333V27.1111H111.301V28.2778C111.464 27.8778 111.684 27.5667 111.959 27.3444C112.241 27.1148 112.575 27 112.962 27C113.427 27 113.837 27.1259 114.191 27.3778C114.545 27.6222 114.82 27.9704 115.017 28.4222C115.213 28.8667 115.312 29.3889 115.312 29.9889C115.312 30.5889 115.213 31.1148 115.017 31.5667C114.82 32.0111 114.545 32.3556 114.191 32.6C113.837 32.8444 113.427 32.9667 112.962 32.9667C112.575 32.9667 112.241 32.8556 111.959 32.6333C111.684 32.4037 111.464 32.0926 111.301 31.7V35.6667L112.225 35.7778V36H109.629V35.7778ZM112.864 32.6889C113.775 32.6889 114.23 31.9741 114.23 30.5444V29.4333C114.23 27.9963 113.775 27.2778 112.864 27.2778C112.575 27.2778 112.313 27.3741 112.077 27.5667C111.841 27.7519 111.655 28.0037 111.517 28.3222C111.379 28.6407 111.307 28.9852 111.301 29.3556V30.5444C111.301 30.9222 111.366 31.2778 111.497 31.6111C111.635 31.937 111.822 32.2 112.058 32.4C112.3 32.5926 112.569 32.6889 112.864 32.6889Z" fill="#0F1826"/>
<path d="M117.618 32.9667C117.199 32.9667 116.855 32.8444 116.586 32.6C116.317 32.3481 116.183 31.9778 116.183 31.4889C116.183 30.7926 116.442 30.3 116.959 30.0111C117.477 29.7148 118.077 29.5667 118.759 29.5667H119.417V28.7111C119.417 28.3259 119.378 28.0296 119.299 27.8222C119.227 27.6074 119.112 27.4593 118.955 27.3778C118.798 27.2889 118.585 27.2444 118.316 27.2444C118.008 27.2444 117.779 27.3148 117.628 27.4556C117.477 27.5889 117.402 27.7704 117.402 28C117.402 28.2148 117.494 28.3556 117.677 28.4222C117.677 28.6074 117.615 28.7704 117.49 28.9111C117.366 29.0519 117.218 29.1222 117.048 29.1222C116.864 29.1222 116.717 29.0667 116.605 28.9556C116.494 28.837 116.438 28.6593 116.438 28.4222C116.438 27.9926 116.628 27.6481 117.009 27.3889C117.389 27.1296 117.864 27 118.434 27C119.745 27 120.4 27.6444 120.4 28.9333V32.1111C120.4 32.2741 120.43 32.4 120.489 32.4889C120.554 32.5704 120.646 32.6111 120.764 32.6111C120.875 32.6111 120.964 32.5704 121.03 32.4889C121.095 32.4 121.128 32.2815 121.128 32.1333H121.334C121.334 32.3926 121.259 32.5963 121.108 32.7444C120.964 32.8926 120.761 32.9667 120.499 32.9667C120.197 32.9667 119.942 32.8704 119.732 32.6778C119.529 32.4778 119.424 32.1704 119.417 31.7556C119.26 32.1333 119.017 32.4296 118.69 32.6444C118.369 32.8593 118.011 32.9667 117.618 32.9667ZM118.159 32.4778C118.336 32.4778 118.516 32.4185 118.7 32.3C118.89 32.1815 119.05 32.0111 119.181 31.7889C119.312 31.5593 119.391 31.2852 119.417 30.9667V29.8111H118.759C118.221 29.8111 117.818 29.9481 117.549 30.2222C117.287 30.4889 117.156 30.8667 117.156 31.3556C117.156 31.763 117.241 32.0519 117.412 32.2222C117.582 32.3926 117.831 32.4778 118.159 32.4778Z" fill="#0F1826"/>
<path d="M121.574 32.8556V32.6333L122.262 32.5222V27.4333L121.574 27.3222V27.1H127.276V27.3222L126.588 27.4333V32.5222L127.276 32.6333V32.8556H125.015V32.6333L125.605 32.5222V27.3778H123.245V32.5222L123.835 32.6333V32.8556H121.574Z" fill="#0F1826"/>
<path d="M127.805 32.8556V32.6333L128.493 32.5222V27.4333L127.805 27.3222V27.1H130.066V27.3222L129.476 27.4333V31.7556L131.963 27.6556V27.4333L131.374 27.3222V27.1H133.635V27.3222L132.947 27.4333V32.5222L133.635 32.6333V32.8556H131.374V32.6333L131.963 32.5222V28.1222L129.476 32.2333V32.5222L130.066 32.6333V32.8556H127.805Z" fill="#0F1826"/>
<path d="M134.17 32.8556V32.6333L134.858 32.5222V27.4333L134.17 27.3222V27.1H136.431V27.3222L135.841 27.4333V31.7556L138.329 27.6556V27.4333L137.739 27.3222V27.1H140V27.3222L139.312 27.4333V32.5222L140 32.6333V32.8556H137.739V32.6333L138.329 32.5222V28.1222L135.841 32.2333V32.5222L136.431 32.6333V32.8556H134.17Z" fill="#0F1826"/>
</svg>
