<svg width="45" height="27" viewBox="0 0 45 27" fill="none" xmlns="http://www.w3.org/2000/svg">
<path d="M22.6776 23.487C25.3024 21.0694 26.9602 17.6157 26.9602 13.8167C26.9602 9.94853 25.3024 6.49484 22.6776 4.14634C20.3291 2.07412 17.2899 0.761719 13.9053 0.761719C6.65252 0.761719 0.78125 6.63299 0.78125 13.8167C0.78125 21.0694 6.65252 26.9407 13.9053 26.9407C17.2899 26.8716 20.3291 25.5592 22.6776 23.487Z" fill="#3362AB"/>
<path d="M22.6797 23.4852C25.3045 21.0676 26.9623 17.6139 26.9623 13.8149C26.9623 9.94673 25.3045 6.49304 22.6797 4.14453" fill="#3362AB"/>
<path d="M22.6797 23.4852C25.3045 21.0676 26.9623 17.6139 26.9623 13.8149C26.9623 9.94673 25.3045 6.49304 22.6797 4.14453" stroke="#3362AB" stroke-width="0.3097"/>
<path d="M31.4493 0.691406C28.0647 0.691406 24.9563 2.0038 22.6769 4.07602C22.1934 4.49046 21.779 4.97398 21.3645 5.45749H23.9893C24.3347 5.87194 24.68 6.35545 24.9563 6.83897H20.3284C20.0521 7.25341 19.7758 7.73693 19.5686 8.22044H25.7162C25.9234 8.70396 26.1306 9.1184 26.2688 9.60192H19.016C18.8779 10.0854 18.7397 10.4999 18.6016 10.9834H26.6141C26.8213 11.8814 26.8904 12.7793 26.8904 13.7463C26.8904 15.1969 26.6832 16.5784 26.1997 17.8908H18.9469C19.0851 18.3743 19.2923 18.8578 19.4995 19.2723H25.6471C25.4399 19.7558 25.1636 20.2393 24.8873 20.6537H20.2593C20.5356 21.1372 20.881 21.6208 21.2264 22.0352H23.8512C23.4367 22.5187 23.0223 23.0022 22.5388 23.4167C24.8873 25.4889 27.9265 26.8013 31.3111 26.8013C38.5639 26.8013 44.3661 20.93 44.3661 13.6773C44.5733 6.56268 38.702 0.691406 31.4493 0.691406Z" fill="#C9191B"/>
<path d="M12.2486 16.9944H10.5909L11.5579 11.8829L9.34755 16.9944H7.897L7.62071 11.952L6.65366 16.9944H5.20312L6.44644 10.3633H9.00218L9.14032 14.5077L10.9362 10.3633H13.561L12.2486 16.9944Z" fill="white"/>
<path d="M30.4866 16.9917C30.0722 17.1298 29.6578 17.1989 29.3124 17.1989C28.4835 17.1989 28 16.7845 28 16.0247C28 15.8865 28 15.6793 28.0691 15.5412L28.1381 14.9886L28.2072 14.5741L28.967 10.4297H30.5557L30.3485 11.673H31.1774L30.9702 12.9854H30.1413L29.7268 15.2649C29.7268 15.3339 29.7268 15.4721 29.7268 15.4721C29.7268 15.7484 29.9341 15.8865 30.2794 15.8865C30.4866 15.8865 30.6248 15.8865 30.6939 15.8174L30.4866 16.9917Z" fill="white"/>
<path d="M35.1835 11.6745C35.0453 11.6055 35.0453 11.6055 34.9763 11.6055C34.9072 11.6055 34.8381 11.6055 34.8381 11.6055C34.769 11.6055 34.7 11.6055 34.6309 11.6055C34.0783 11.6055 33.7329 11.8127 33.1804 12.5034L33.3185 11.6745H32.0061L31.0391 17.0623H32.6968C33.2494 13.7468 33.5257 13.1942 34.2855 13.1942C34.3546 13.1942 34.4237 13.1942 34.4928 13.1942L34.7 13.2632L35.1835 11.6745Z" fill="white"/>
<path d="M23.9888 13.3311C23.9888 14.0218 24.4033 14.5053 25.2322 14.8507C25.9229 15.127 25.992 15.1961 25.992 15.4724C25.992 15.8177 25.7157 15.9559 25.025 15.9559C24.5414 15.9559 24.0579 15.8868 23.5744 15.7487L23.3672 16.992H23.4363L23.7126 17.0611C23.7816 17.0611 23.9889 17.1301 24.127 17.1301C24.5414 17.1301 24.8177 17.1992 25.025 17.1992C26.7518 17.1992 27.5807 16.6466 27.5807 15.4033C27.5807 14.6435 27.2353 14.229 26.4064 13.8837C25.7157 13.6074 25.6466 13.5383 25.6466 13.262C25.6466 12.9857 25.9229 12.8476 26.4755 12.8476C26.8209 12.8476 27.2353 12.8476 27.6498 12.9166L27.857 11.6733C27.4425 11.6042 26.8209 11.5352 26.4064 11.5352C24.6105 11.5352 23.9888 12.364 23.9888 13.3311Z" fill="white"/>
<path d="M16.3937 14.6435C16.1864 14.6435 16.1174 14.6435 16.0483 14.6435C15.1503 14.6435 14.6668 14.9198 14.6668 15.4724C14.6668 15.8177 14.874 16.025 15.2194 16.025C15.8411 15.9559 16.3246 15.4033 16.3937 14.6435ZM17.5679 16.992H16.1864L16.2555 16.4394C15.8411 16.8538 15.2885 17.0611 14.5287 17.0611C13.6307 17.0611 13.0781 16.4394 13.0781 15.6105C13.0781 14.2981 14.1142 13.5383 15.9102 13.5383C16.1174 13.5383 16.3246 13.5383 16.6009 13.6074C16.67 13.4001 16.6699 13.3311 16.6699 13.262C16.6699 12.9166 16.3937 12.7785 15.6338 12.7785C15.1503 12.7785 14.6668 12.8476 14.3214 12.9166L14.1142 12.9857L13.9761 13.0548L14.1833 11.8114C15.0122 11.6042 15.4957 11.5352 16.1174 11.5352C17.4988 11.5352 18.2587 12.0877 18.2587 13.1239C18.2587 13.4002 18.2587 13.6074 18.1205 14.16L17.7751 16.094L17.7061 16.4394L17.637 16.7157V16.9229L17.5679 16.992Z" fill="white"/>
<path d="M22.0528 13.6791C22.0528 13.541 22.0528 13.4719 22.0528 13.4028C22.0528 12.9884 21.7765 12.7121 21.293 12.7121C20.7404 12.7121 20.395 13.0575 20.2569 13.6791H22.0528ZM22.8817 16.9256C22.3291 17.0637 21.7765 17.1328 21.2239 17.1328C19.428 17.1328 18.4609 16.3039 18.4609 14.7152C18.4609 12.8502 19.6352 11.4688 21.293 11.4688C22.6054 11.4688 23.5033 12.2286 23.5033 13.4028C23.5033 13.8173 23.4342 14.1626 23.2961 14.7152H20.0496C20.0496 14.7843 20.0496 14.8534 20.0496 14.8534C20.0496 15.475 20.5331 15.8204 21.5002 15.8204C22.0528 15.8204 22.6054 15.6823 23.227 15.475L22.8817 16.9256Z" fill="white"/>
<path d="M38.561 13.8837C38.561 13.3311 38.3537 12.7785 37.663 12.7785C36.8341 12.7785 36.3506 13.7455 36.3506 14.6435C36.3506 15.4033 36.696 15.8868 37.3176 15.8868C37.663 15.8868 38.4228 15.4033 38.561 14.5744C38.561 14.3672 38.561 14.0909 38.561 13.8837ZM40.2878 14.5744C40.0115 16.3703 38.7682 17.1992 37.1104 17.1992C35.2454 17.1992 34.5547 16.094 34.5547 14.7126C34.5547 12.7785 35.798 11.5352 37.7321 11.5352C39.4589 11.5352 40.2878 12.5713 40.2878 13.9527C40.3569 14.229 40.3569 14.229 40.2878 14.5744Z" fill="white"/>
</svg>
