<svg width="45" height="27" viewBox="0 0 45 27" fill="none" xmlns="http://www.w3.org/2000/svg">
<path d="M44.8997 13.4694C44.8997 20.8603 38.8903 26.9388 31.4303 26.9388C24.0394 26.9388 17.9609 20.8603 17.9609 13.4694C17.9609 6.07849 23.9704 0 31.3613 0C38.8903 0 44.8997 6.07849 44.8997 13.4694Z" fill="#F9B50B"/>
<path d="M26.8697 13.5385C26.8697 12.5714 26.7316 11.6044 26.5934 10.7064H18.3046C18.3736 10.2229 18.5118 9.80848 18.6499 9.25589H26.0408C25.9027 8.77237 25.6954 8.28885 25.4882 7.80534H19.2025C19.4097 7.32182 19.686 6.90738 19.9623 6.35479H24.7284C24.4521 5.87127 24.1068 5.38776 23.6923 4.90424H21.0675C21.4819 4.42072 21.8964 4.00628 22.449 3.52276C20.1005 1.3124 16.9231 0 13.4003 0C6.07849 0.207221 0 6.07849 0 13.4694C0 20.8603 6.00942 26.9388 13.4694 26.9388C16.9922 26.9388 20.1005 25.5573 22.5181 23.416C23.0016 23.0016 23.416 22.5181 23.8995 21.9655H21.1366C20.7912 21.551 20.4458 21.0675 20.1695 20.584H24.8666C25.1429 20.1695 25.4192 19.686 25.6264 19.1334H19.3407C19.1334 18.719 18.9262 18.2355 18.7881 17.6829H26.179C26.5934 16.4396 26.8697 15.0581 26.8697 13.5385Z" fill="#C8191C"/>
<path d="M18.2363 16.9224L18.4435 15.6791C18.3744 15.6791 18.2363 15.7482 18.0981 15.7482C17.6146 15.7482 17.5455 15.4719 17.6146 15.3337L18.0291 12.8471H18.7889L18.9961 11.4656H18.3053L18.4435 10.6367H16.9929C16.9929 10.6367 16.1641 15.3337 16.1641 15.8863C16.1641 16.7152 16.6476 17.1297 17.3383 17.1297C17.7528 17.1297 18.0981 16.9915 18.2363 16.9224Z" fill="white"/>
<path d="M18.7188 14.6419C18.7188 16.6451 20.1002 17.1286 21.2054 17.1286C22.2415 17.1286 22.725 16.9214 22.725 16.9214L23.0013 15.5399C23.0013 15.5399 22.2415 15.8853 21.4817 15.8853C19.893 15.8853 20.1693 14.711 20.1693 14.711H23.0704C23.0704 14.711 23.2776 13.813 23.2776 13.3986C23.2776 12.5006 22.7941 11.3264 21.2054 11.3264C19.8239 11.2573 18.7188 12.846 18.7188 14.6419ZM21.2054 12.5697C21.9652 12.5697 21.8271 13.4677 21.8271 13.5368H20.2384C20.3074 13.4677 20.4456 12.5697 21.2054 12.5697Z" fill="white"/>
<path d="M30.2575 16.9218L30.5338 15.3331C30.5338 15.3331 29.8431 15.6784 29.2905 15.6784C28.3235 15.6784 27.8399 14.9186 27.8399 14.0207C27.8399 12.2938 28.6688 11.3959 29.7049 11.3959C30.3957 11.3959 31.0173 11.8103 31.0173 11.8103L31.2246 10.2907C31.2246 10.2907 30.3957 9.94531 29.5668 9.94531C27.909 9.94531 26.3203 11.3959 26.3203 14.0897C26.3203 15.8857 27.1492 17.0599 28.876 17.0599C29.4977 17.129 30.2575 16.9218 30.2575 16.9218Z" fill="white"/>
<path d="M10.4283 11.2578C9.46122 11.2578 8.70141 11.5341 8.70141 11.5341L8.49419 12.7774C8.49419 12.7774 9.11585 12.5011 10.0829 12.5011C10.5664 12.5011 10.9808 12.5702 10.9808 12.9847C10.9808 13.261 10.9118 13.33 10.9118 13.33H10.2901C9.04678 13.33 7.73438 13.8135 7.73438 15.4713C7.73438 16.7837 8.56326 17.06 9.11585 17.06C10.0829 17.06 10.5664 16.4383 10.6355 16.4383L10.5664 16.9909H11.7407L12.2932 13.0537C12.2932 11.3269 10.9118 11.2578 10.4283 11.2578ZM10.7045 14.4352C10.7045 14.6424 10.5664 15.8167 9.73752 15.8167C9.32307 15.8167 9.18492 15.4713 9.18492 15.2641C9.18492 14.9187 9.39215 14.4352 10.4973 14.4352C10.6355 14.4352 10.7045 14.4352 10.7045 14.4352Z" fill="white"/>
<path d="M13.68 17.0627C14.0253 17.0627 15.8213 17.1318 15.8213 15.1977C15.8213 13.4018 14.0944 13.7471 14.0944 13.0564C14.0944 12.711 14.3707 12.5729 14.8542 12.5729C15.0614 12.5729 15.8213 12.642 15.8213 12.642L16.0285 11.3296C16.0285 11.3296 15.545 11.1914 14.647 11.1914C13.6109 11.1914 12.5057 11.6058 12.5057 13.0564C12.5057 14.7142 14.3016 14.576 14.3016 15.1977C14.3016 15.6121 13.8181 15.6812 13.4727 15.6812C12.8511 15.6812 12.1603 15.474 12.1603 15.474L11.9531 16.7864C12.0913 16.9245 12.5057 17.0627 13.68 17.0627Z" fill="white"/>
<path d="M42.1379 10.1523L41.8616 12.0864C41.8616 12.0864 41.309 11.3957 40.4801 11.3957C39.1677 11.3957 38.0625 12.9844 38.0625 14.8494C38.0625 16.0236 38.6151 17.1979 39.8584 17.1979C40.6873 17.1979 41.2399 16.6453 41.2399 16.6453L41.1708 17.1288H42.6214L43.6575 10.2905L42.1379 10.1523ZM41.4471 13.8823C41.4471 14.6421 41.1017 15.6782 40.2729 15.6782C39.7893 15.6782 39.5131 15.2638 39.5131 14.504C39.5131 13.3297 39.9966 12.639 40.6873 12.639C41.1708 12.7081 41.4471 13.0534 41.4471 13.8823Z" fill="white"/>
<path d="M2.62366 16.9906L3.45255 11.8792L3.5907 16.9906H4.55773L6.42272 11.8792L5.66291 16.9906H7.18253L8.35679 10.1523H6.00828L4.55773 14.3658L4.48866 10.1523H2.41644L1.24219 16.9906H2.62366Z" fill="white"/>
<path d="M24.7293 16.9934C25.1438 14.6449 25.2128 12.7108 26.2489 13.0562C26.3871 12.1582 26.5943 11.7438 26.7325 11.3984H26.4562C25.8345 11.3984 25.2819 12.2273 25.2819 12.2273L25.4201 11.4675H24.0386L23.1406 16.9934H24.7293V16.9934Z" fill="white"/>
<path d="M33.5689 11.2578C32.6018 11.2578 31.842 11.5341 31.842 11.5341L31.6348 12.7774C31.6348 12.7774 32.2565 12.5011 33.2235 12.5011C33.707 12.5011 34.1215 12.5702 34.1215 12.9847C34.1215 13.261 34.0524 13.33 34.0524 13.33H33.4307C32.1874 13.33 30.875 13.8135 30.875 15.4713C30.875 16.7837 31.7039 17.06 32.2565 17.06C33.2235 17.06 33.707 16.4383 33.7761 16.4383L33.707 16.9909H35.0194L35.572 13.0537C35.572 11.3269 34.0524 11.2578 33.5689 11.2578ZM33.9142 14.4352C33.9142 14.6424 33.7761 15.8167 32.9472 15.8167C32.5328 15.8167 32.3946 15.4713 32.3946 15.2641C32.3946 14.9187 32.6018 14.4352 33.707 14.4352C33.8452 14.4352 33.8452 14.4352 33.9142 14.4352Z" fill="white"/>
<path d="M36.6746 16.9934C37.0891 14.6449 37.1582 12.7108 38.1943 13.0562C38.3324 12.1582 38.5396 11.7438 38.6778 11.3984H38.4015C37.7798 11.3984 37.2272 12.2273 37.2272 12.2273L37.3654 11.4675H35.9839L35.0859 16.9934H36.6746V16.9934Z" fill="white"/>
</svg>
