<svg width="37" height="12" viewBox="0 0 37 12" fill="none" xmlns="http://www.w3.org/2000/svg">
<path d="M33.2005 0.980469H26.0859C26.5004 3.32898 28.7798 5.53934 31.2665 5.53934H36.9305C36.9996 5.33212 36.9996 4.98675 36.9996 4.77953C36.9996 2.70731 35.2727 0.980469 33.2005 0.980469Z" fill="url(#paint0_linear_657_169)"/>
<path d="M26.7109 5.95312V11.6862H30.1646V8.647H33.2039C34.8616 8.647 36.3122 7.47275 36.7957 5.95312H26.7109Z" fill="#4FAD50"/>
<path d="M14.5547 0.980469V11.6178H17.594C17.594 11.6178 18.3537 11.6178 18.7682 10.858C20.8404 6.78267 21.4621 5.53934 21.4621 5.53934H21.8765V11.6178H25.3302V0.980469H22.291C22.291 0.980469 21.5311 1.04955 21.1167 1.74028C19.3899 5.26305 18.4228 7.05896 18.4228 7.05896H18.0084V0.980469H14.5547Z" fill="#4FAD50"/>
<path d="M0.046875 11.6881V1.05078H3.50056C3.50056 1.05078 4.46761 1.05078 5.0202 2.5704C6.40167 6.57668 6.53983 7.12928 6.53983 7.12928C6.53983 7.12928 6.81611 6.16224 8.05944 2.5704C8.61203 1.05078 9.57907 1.05078 9.57907 1.05078H13.0328V11.6881H9.57907V5.95502H9.16462L7.23057 11.6881H5.71093L3.77688 5.95502H3.36243V11.6881H0.046875Z" fill="#4FAD50"/>
<defs>
<linearGradient id="paint0_linear_657_169" x1="26.0736" y1="3.29258" x2="36.9751" y2="3.29258" gradientUnits="userSpaceOnUse">
<stop stop-color="#27B1E6"/>
<stop offset="1" stop-color="#148ACA"/>
</linearGradient>
</defs>
</svg>
