<svg width="80" height="80" viewBox="0 0 80 80" fill="none" xmlns="http://www.w3.org/2000/svg">
<mask id="mask0_737_176" style="mask-type:alpha" maskUnits="userSpaceOnUse" x="0" y="0" width="80" height="80">
<rect width="80" height="80" rx="40" fill="#E5E5E5"/>
</mask>
<g mask="url(#mask0_737_176)">
<rect width="80" height="80" fill="#F5F5F5"/>
<path fill-rule="evenodd" clip-rule="evenodd" d="M43.9454 41.5501C43.3372 41.5501 42.8704 41.7 42.3911 41.854C42.3258 41.875 42.2601 41.8961 42.1939 41.9169C41.6427 42.0898 41.0034 42.2604 39.9942 42.2604C38.9621 42.2604 38.3114 42.0895 37.755 41.9167C37.6855 41.8951 37.6167 41.8731 37.5482 41.8513C37.0684 41.6984 36.6032 41.5501 35.9985 41.5501C32.5713 41.5501 29.7969 44.3738 29.7969 47.7962V52C30.6808 52 30.8423 52 32.1805 52H47.8079C49.0983 52 48.9917 52 50.1915 52V47.7962C50.1915 44.3714 47.3703 41.5501 43.9454 41.5501Z" fill="#D9D9D9"/>
<path fill-rule="evenodd" clip-rule="evenodd" d="M39.9942 39.8706C43.2401 39.8706 45.9295 37.2282 45.9295 33.9353C45.9295 30.6881 43.2414 28 39.9942 28C36.7013 28 34.0589 30.6893 34.0589 33.9353C34.0589 37.2269 36.7026 39.8706 39.9942 39.8706Z" fill="#D9D9D9"/>
</g>
</svg>
