<svg width="20" height="23" viewBox="0 0 20 23" fill="none" xmlns="http://www.w3.org/2000/svg">
<path d="M10.8333 14.1115C10.8333 9.18467 14.0767 4.03075 19.1667 2.875L19.9867 4.91242C18.1408 5.71262 16.5175 8.4985 16.3367 10.419C18.4125 10.7947 20 12.8599 20 15.3535C20 18.4029 17.8467 20.125 15.6675 20.125C13.155 20.125 10.8333 17.916 10.8333 14.1115V14.1115ZM0 14.1115C0 9.18467 3.24333 4.03075 8.33333 2.875L9.15333 4.91242C7.3075 5.71262 5.68417 8.4985 5.50333 10.419C7.57917 10.7947 9.16667 12.8599 9.16667 15.3535C9.16667 18.4029 7.01333 20.125 4.83417 20.125C2.32167 20.125 0 17.916 0 14.1115Z" fill="#469AFC"/>
</svg>
