<?xml version="1.0" encoding="utf-8"?>
<svg xmlns="http://www.w3.org/2000/svg" xmlns:xlink="http://www.w3.org/1999/xlink">

    <symbol viewBox="0 0 10 6" id="arrow">
        <g fill="transparent" xmlns="http://www.w3.org/2000/svg">
            <path d="M1 1L5 5L9 1" />
        </g>
    </symbol>

    <symbol viewBox="0 0 22 10" id="linkArrow">
        <g xmlns="http://www.w3.org/2000/svg">
            <path d="M1 4.4C0.668629 4.4 0.4 4.66863 0.4 5C0.4 5.33137 0.668629 5.6 1 5.6L1 4.4ZM21.4243 5.42426C21.6586 5.18995 21.6586 4.81005 21.4243 4.57573L17.6059 0.757358C17.3716 0.523043 16.9917 0.523043 16.7574 0.757358C16.523 0.991672 16.523 1.37157 16.7574 1.60589L20.1515 5L16.7574 8.39411C16.523 8.62843 16.523 9.00832 16.7574 9.24264C16.9917 9.47695 17.3716 9.47695 17.6059 9.24264L21.4243 5.42426ZM1 5.6L21 5.6L21 4.4L1 4.4L1 5.6Z" />
        </g>
    </symbol>

    <symbol viewBox="0 0 44 24" id="sliderArrowNext">
        <g xmlns="http://www.w3.org/2000/svg">
            <path d="M43.375 11.9988L35.3039 20.0699L34.2433 19.0092L40.5037 12.7488L0.625001 12.7488L0.625 11.2488L40.5037 11.2488L34.2433 4.98839L35.3039 3.92773L43.375 11.9988Z" />
        </g>
    </symbol>

    <symbol viewBox="0 0 44 24" id="sliderArrowPrev">
        <g xmlns="http://www.w3.org/2000/svg">
            <path d="M0.624996 12.0012L8.69606 3.93013L9.75672 4.99079L3.49631 11.2512L43.375 11.2512L43.375 12.7512L3.49632 12.7512L9.75672 19.0116L8.69606 20.0723L0.624996 12.0012Z" />
        </g>
    </symbol>

    <symbol viewBox="0 0 80 80" id="cardsServices-1">
        <g fill="transparent" xmlns="http://www.w3.org/2000/svg">
            <path d="M33.501 8.43296L13.4344 21.533C7.00104 25.733 7.00104 35.133 13.4344 39.333L33.501 52.433C37.101 54.7996 43.0344 54.7996 46.6344 52.433L66.601 39.333C73.001 35.133 73.001 25.7663 66.601 21.5663L46.6344 8.4663C43.0344 6.0663 37.101 6.0663 33.501 8.43296Z"  stroke-width="1.5" stroke-linecap="round" stroke-linejoin="round"/>
            <path d="M18.7677 43.5996L18.7344 59.2329C18.7344 63.4663 22.001 67.9996 26.001 69.3329L36.6344 72.8663C38.4677 73.4663 41.501 73.4663 43.3677 72.8663L54.001 69.3329C58.001 67.9996 61.2677 63.4663 61.2677 59.2329V43.7663"  stroke-width="1.5" stroke-linecap="round" stroke-linejoin="round"/>
            <path d="M71.332 50V30"  stroke-width="1.5" stroke-linecap="round" stroke-linejoin="round"/>
        </g>
    </symbol>

    <symbol viewBox="0 0 80 80" id="cardsServices-2">
        <g fill="transparent" xmlns="http://www.w3.org/2000/svg">
            <path d="M29.3667 6.66667L17.3 18.7667"  stroke-width="1.5" stroke-miterlimit="10" stroke-linecap="round" stroke-linejoin="round"/>
            <path d="M50.6333 6.66667L62.7 18.7667"  stroke-width="1.5" stroke-miterlimit="10" stroke-linecap="round" stroke-linejoin="round"/>
            <path d="M6.66675 26.1667C6.66675 20 9.96675 19.5 14.0667 19.5H65.9334C70.0334 19.5 73.3334 20 73.3334 26.1667C73.3334 33.3333 70.0334 32.8333 65.9334 32.8333H14.0667C9.96675 32.8333 6.66675 33.3333 6.66675 26.1667Z"  stroke-width="1.5"/>
            <path d="M32.5334 46.6667V58.5"  stroke-width="1.5" stroke-linecap="round"/>
            <path d="M47.8667 46.6667V58.5"  stroke-width="1.5" stroke-linecap="round"/>
            <path d="M11.6667 33.3333L16.3667 62.1333C17.4334 68.6 20.0001 73.3333 29.5334 73.3333H49.6334C60.0001 73.3333 61.5334 68.8 62.7334 62.5333L68.3334 33.3333" stroke-width="1.5"  stroke-linecap="round"/>
        </g>
    </symbol>

    <symbol viewBox="0 0 80 80" id="cardsServices-3">
        <g fill="transparent" xmlns="http://www.w3.org/2000/svg">
            <path d="M26.6667 40.6667H50.0001" stroke-width="1.5"  stroke-miterlimit="10" stroke-linecap="round" stroke-linejoin="round"/>
            <path d="M26.6667 54H41.2667" stroke-width="1.5"  stroke-miterlimit="10" stroke-linecap="round" stroke-linejoin="round"/>
            <path d="M33.3334 20H46.6667C53.3334 20 53.3334 16.6667 53.3334 13.3333C53.3334 6.66667 50.0001 6.66667 46.6667 6.66667H33.3334C30.0001 6.66667 26.6667 6.66667 26.6667 13.3333C26.6667 20 30.0001 20 33.3334 20Z"  stroke-width="1.5" stroke-miterlimit="10" stroke-linecap="round" stroke-linejoin="round"/>
            <path d="M53.3333 13.4C64.4333 14 70 18.1 70 33.3333V53.3333C70 66.6667 66.6667 73.3333 50 73.3333H30C13.3333 73.3333 10 66.6667 10 53.3333V33.3333C10 18.1333 15.5667 14 26.6667 13.4"  stroke-width="1.5" stroke-miterlimit="10" stroke-linecap="round" stroke-linejoin="round"/>
        </g>
    </symbol>

    <symbol viewBox="0 0 80 80" id="cardsServices-4">
        <g fill="transparent" xmlns="http://www.w3.org/2000/svg">
            <path d="M40.5333 36.2333C40.2 36.2 39.8 36.2 39.4333 36.2333C31.5 35.9667 25.2 29.4667 25.2 21.4667C25.2 13.3 31.8 6.66667 40 6.66667C48.1666 6.66667 54.8 13.3 54.8 21.4667C54.7666 29.4667 48.4666 35.9667 40.5333 36.2333Z"  stroke-width="1.5" stroke-linecap="round" stroke-linejoin="round"/>
            <path d="M23.8667 48.5333C15.8 53.9333 15.8 62.7333 23.8667 68.1C33.0333 74.2333 48.0667 74.2333 57.2333 68.1C65.3 62.7 65.3 53.9 57.2333 48.5333C48.1 42.4333 33.0667 42.4333 23.8667 48.5333Z"  stroke-width="1.5" stroke-linecap="round" stroke-linejoin="round"/>
        </g>
    </symbol>

    <symbol viewBox="0 0 43 8" id="cardsServices-arrow">
        <g xmlns="http://www.w3.org/2000/svg">
            <path d="M42.3536 4.35389C42.5488 4.15863 42.5488 3.84205 42.3536 3.64679L39.1716 0.464806C38.9763 0.269544 38.6597 0.269544 38.4645 0.464806C38.2692 0.660068 38.2692 0.976651 38.4645 1.17191L41.2929 4.00034L38.4645 6.82877C38.2692 7.02403 38.2692 7.34061 38.4645 7.53587C38.6597 7.73114 38.9763 7.73114 39.1716 7.53587L42.3536 4.35389ZM0 4.50034H42V3.50034H0V4.50034Z" />
        </g>
    </symbol>

    <symbol viewBox="0 0 506 181" id="curvesArrow">
        <g xmlns="http://www.w3.org/2000/svg">
            <path opacity="1" d="M504.412 14.427C504.683 14.4788 504.945 14.301 504.997 14.0298C505.049 13.7586 504.871 13.4966 504.6 13.4448L504.412 14.427ZM269.487 97.2766L269.839 96.9217L269.487 97.2766ZM2.09113 146.03C1.81961 145.98 1.5587 146.159 1.50837 146.43L0.688247 150.855C0.63792 151.127 0.81723 151.387 1.08875 151.438C1.36027 151.488 1.62117 151.309 1.6715 151.037L2.4005 147.104L6.33351 147.833C6.60503 147.884 6.86593 147.704 6.91626 147.433C6.96659 147.161 6.78728 146.9 6.51576 146.85L2.09113 146.03ZM504.6 13.4448C454.977 3.95394 386.273 15.0401 334.92 33.3712C309.246 42.536 287.847 53.5331 275.325 64.7228C269.067 70.3148 264.972 76.0022 263.72 81.583C262.459 87.2072 264.104 92.6409 269.135 97.6316L269.839 96.9217C265.016 92.1368 263.521 87.0428 264.696 81.8018C265.881 76.5173 269.798 71.002 275.991 65.4685C288.37 54.4072 309.625 43.4626 335.257 34.313C386.516 16.0152 455.029 4.98193 504.412 14.427L504.6 13.4448ZM269.135 97.6316C274.878 103.329 280.136 105.398 284.709 104.557C289.273 103.718 292.957 100.014 295.639 94.6315C301.005 83.8619 302.575 65.9799 299.051 48.7155C295.525 31.446 286.872 14.6549 271.641 6.18038C256.384 -2.30847 234.684 -2.36835 205.268 13.4939L205.743 14.3741C234.987 -1.39529 256.304 -1.20852 271.155 7.05422C286.031 15.3313 294.576 31.7968 298.071 48.9155C301.567 66.0392 299.98 83.677 294.744 94.1856C292.125 99.4418 288.646 102.817 284.528 103.574C280.42 104.33 275.476 102.514 269.839 96.9217L269.135 97.6316ZM205.268 13.4939C146.475 45.1975 113.738 105.009 86.6858 143.44C79.9151 153.058 73.5091 161.329 67.1435 167.505C60.7756 173.683 54.4881 177.726 47.9606 178.958C41.4543 180.186 34.6307 178.635 27.1463 173.462C19.6491 168.28 11.5089 159.475 2.41207 146.238L1.58793 146.805C10.7155 160.086 18.9369 169.003 26.5777 174.284C34.2314 179.574 41.3223 181.229 48.1461 179.941C54.9488 178.657 61.4071 174.464 67.8399 168.222C74.2749 161.979 80.7244 153.646 87.5035 144.016C114.65 105.451 147.217 45.9336 205.743 14.3741L205.268 13.4939Z"/>
        </g>
    </symbol>

    <symbol viewBox="0 0 24 24" id="instagramIcon">
        <g xmlns="http://www.w3.org/2000/svg">
            <path opacity="1" d="M12.0201 7.35938C9.44866 7.35938 7.39955 9.44866 7.39955 11.9799C7.39955 14.5513 9.44866 16.6004 12.0201 16.6004C14.5513 16.6004 16.6406 14.5513 16.6406 11.9799C16.6406 9.44866 14.5513 7.35938 12.0201 7.35938ZM12.0201 14.9933C10.3728 14.9933 9.0067 13.6674 9.0067 11.9799C9.0067 10.3326 10.3326 9.0067 12.0201 9.0067C13.6674 9.0067 14.9933 10.3326 14.9933 11.9799C14.9933 13.6674 13.6674 14.9933 12.0201 14.9933ZM17.8862 7.19866C17.8862 6.59598 17.404 6.11384 16.8013 6.11384C16.1987 6.11384 15.7165 6.59598 15.7165 7.19866C15.7165 7.80134 16.1987 8.28348 16.8013 8.28348C17.404 8.28348 17.8862 7.80134 17.8862 7.19866ZM20.9397 8.28348C20.8594 6.83705 20.5379 5.55134 19.4933 4.5067C18.4487 3.46205 17.1629 3.14063 15.7165 3.06027C14.2299 2.97991 9.77009 2.97991 8.28348 3.06027C6.83705 3.14063 5.59152 3.46205 4.5067 4.5067C3.46205 5.55134 3.14063 6.83705 3.06027 8.28348C2.97991 9.77009 2.97991 14.2299 3.06027 15.7165C3.14063 17.1629 3.46205 18.4085 4.5067 19.4933C5.59152 20.5379 6.83705 20.8594 8.28348 20.9397C9.77009 21.0201 14.2299 21.0201 15.7165 20.9397C17.1629 20.8594 18.4487 20.5379 19.4933 19.4933C20.5379 18.4085 20.8594 17.1629 20.9397 15.7165C21.0201 14.2299 21.0201 9.77009 20.9397 8.28348ZM19.0112 17.2835C18.7299 18.0871 18.0871 18.6897 17.3237 19.0112C16.1183 19.4933 13.3058 19.3728 12.0201 19.3728C10.6942 19.3728 7.8817 19.4933 6.71652 19.0112C5.91295 18.6897 5.31027 18.0871 4.98884 17.2835C4.5067 16.1183 4.62723 13.3058 4.62723 11.9799C4.62723 10.6942 4.5067 7.8817 4.98884 6.67634C5.31027 5.91295 5.91295 5.31027 6.71652 4.98884C7.8817 4.5067 10.6942 4.62723 12.0201 4.62723C13.3058 4.62723 16.1183 4.5067 17.3237 4.98884C18.0871 5.27009 18.6897 5.91295 19.0112 6.67634C19.4933 7.8817 19.3728 10.6942 19.3728 11.9799C19.3728 13.3058 19.4933 16.1183 19.0112 17.2835Z"/>
        </g>
    </symbol>

    <symbol viewBox="0 0 24 24" id="facebookIcon">
        <g xmlns="http://www.w3.org/2000/svg">
            <path opacity="1" d="M16.2002 13.125L16.6924 9.89062H13.5635V7.78125C13.5635 6.86719 13.9854 6.02344 15.3916 6.02344H16.833V3.24609C16.833 3.24609 15.5322 3 14.3018 3C11.7354 3 10.0479 4.58203 10.0479 7.39453V9.89062H7.16504V13.125H10.0479V21H13.5635V13.125H16.2002Z"/>
        </g>
    </symbol>

    <symbol viewBox="0 0 24 24" id="vkIcon">
        <g xmlns="http://www.w3.org/2000/svg">
            <path opacity="1" d="M21.5739 7.36718C21.6853 6.92147 21.5739 6.55005 20.9053 6.55005H18.714C18.1568 6.55005 17.8968 6.84719 17.7483 7.18146C17.7483 7.18146 16.634 9.89284 15.074 11.6757C14.554 12.1585 14.3312 12.3442 14.034 12.3442C13.9226 12.3442 13.6998 12.1585 13.6998 11.7128V7.36718C13.6998 6.81004 13.5512 6.55005 13.0684 6.55005H9.65128C9.27986 6.55005 9.09415 6.81004 9.09415 7.07004C9.09415 7.59003 9.87413 7.70145 9.94842 9.18714V12.4185C9.94842 13.1242 9.83699 13.2728 9.53985 13.2728C8.79701 13.2728 7.01419 10.5243 5.93707 7.40432C5.71421 6.81004 5.49136 6.55005 4.93423 6.55005H2.74284C2.14857 6.55005 2 6.84719 2 7.18146C2 7.77574 2.74284 10.6357 5.45422 14.4613C7.27418 17.0613 9.83699 18.4355 12.1398 18.4355C13.5141 18.4355 13.6998 18.1384 13.6998 17.6184C13.6998 15.1299 13.5883 14.8699 14.2569 14.8699C14.5912 14.8699 15.1483 15.0556 16.4483 16.3184C17.934 17.8041 18.194 18.4355 19.0111 18.4355H21.2025C21.8339 18.4355 22.131 18.1384 21.9453 17.507C21.5368 16.2441 18.7511 13.5699 18.6025 13.3842C18.2683 12.9756 18.3797 12.7899 18.6025 12.4185C18.6025 12.4185 21.2768 8.63001 21.5739 7.36718Z"/>
        </g>
    </symbol>

    <symbol viewBox="0 0 24 24" id="youtubeIcon">
        <g xmlns="http://www.w3.org/2000/svg">
            <path opacity="1" d="M21.5612 7.21033C21.3419 6.33281 20.6472 5.63812 19.8062 5.41874C18.234 4.97998 12.0183 4.97998 12.0183 4.97998C12.0183 4.97998 5.766 4.97998 4.19378 5.41874C3.35283 5.63812 2.65814 6.33281 2.43876 7.21033C2 8.74598 2 12.0367 2 12.0367C2 12.0367 2 15.2908 2.43876 16.863C2.65814 17.7405 3.35283 18.3986 4.19378 18.618C5.766 19.0202 12.0183 19.0202 12.0183 19.0202C12.0183 19.0202 18.234 19.0202 19.8062 18.618C20.6472 18.3986 21.3419 17.7405 21.5612 16.863C22 15.2908 22 12.0367 22 12.0367C22 12.0367 22 8.74598 21.5612 7.21033ZM9.97075 14.9983V9.07504L15.1627 12.0367L9.97075 14.9983Z"/>
        </g>
    </symbol>

    <symbol viewBox="0 0 24 24" id="searchIcon">
        <g xmlns="http://www.w3.org/2000/svg">
            <path fill-rule="evenodd" clip-rule="evenodd" d="M14.8586 16.0559C13.503 17.1491 11.7788 17.8036 9.90179 17.8036C5.53775 17.8036 2 14.2658 2 9.90178C2 5.53775 5.53775 2 9.90179 2C14.2658 2 17.8036 5.53775 17.8036 9.90178C17.8036 11.7788 17.1491 13.503 16.0559 14.8586L22 20.8027L20.8027 22L14.8586 16.0559ZM16.322 9.90178C16.322 13.4476 13.4476 16.322 9.90179 16.322C6.35601 16.322 3.48158 13.4476 3.48158 9.90178C3.48158 6.356 6.35601 3.48158 9.90179 3.48158C13.4476 3.48158 16.322 6.356 16.322 9.90178Z" />
        </g>
    </symbol>

    <symbol viewBox="0 0 24 24" id="profileIcon">
        <g xmlns="http://www.w3.org/2000/svg">
            <path fill-rule="evenodd" clip-rule="evenodd" d="M15.3521 13.2917C14.8641 13.2917 14.4896 13.4167 14.105 13.545C14.0526 13.5625 13.9999 13.58 13.9467 13.5974C13.5045 13.7415 12.9916 13.8837 12.1818 13.8837C11.3537 13.8837 10.8316 13.7412 10.3852 13.5972C10.3294 13.5792 10.2742 13.5609 10.2193 13.5427C9.83435 13.4153 9.46109 13.2917 8.9759 13.2917C6.22605 13.2917 4 15.6448 4 18.4968V22C4.70921 22 4.83877 22 5.91247 22H18.4512C19.4865 22 19.401 22 20.3636 22V18.4968C20.3636 15.6428 18.1 13.2917 15.3521 13.2917ZM18.8185 20.3951C18.4867 20.3951 18.6324 20.3951 18.4512 20.3951H5.91247C5.70379 20.3951 5.76993 20.3951 5.54517 20.3951V18.4968C5.54517 16.5015 7.05998 14.8966 8.9759 14.8966C9.12726 14.8966 9.28277 14.928 9.46758 14.9814C9.57223 15.0116 9.67304 15.0446 9.78374 15.0808C9.88096 15.1126 9.98588 15.1469 10.1077 15.184C10.6066 15.3362 11.2496 15.4885 12.1818 15.4885C13.0965 15.4885 13.7395 15.3361 14.2381 15.184C14.3553 15.1483 14.4644 15.1126 14.5654 15.0796L14.582 15.0742C14.6885 15.0394 14.7852 15.0079 14.8766 14.9812C15.0601 14.9276 15.2105 14.8966 15.3521 14.8966C17.2706 14.8966 18.8185 16.5042 18.8185 18.4968V20.3951Z" />
            <path fill-rule="evenodd" clip-rule="evenodd" d="M12.1818 11.8921C14.7862 11.8921 16.944 9.69013 16.944 6.94604C16.944 4.24002 14.7872 1.99997 12.1818 1.99997C9.53976 1.99997 7.41965 4.24109 7.41965 6.94604C7.41965 9.68906 9.54079 11.8921 12.1818 11.8921ZM12.1818 3.60481C13.9222 3.60481 15.3988 5.13844 15.3988 6.94604C15.3988 8.78922 13.9236 10.2873 12.1818 10.2873C10.4058 10.2873 8.96482 8.79064 8.96482 6.94604C8.96482 5.13702 10.4072 3.60481 12.1818 3.60481Z" />
        </g>
    </symbol>

    <symbol viewBox="0 0 24 24" id="rigthTopArrow">
        <g xmlns="http://www.w3.org/2000/svg">
            <path d="M17.8323 6.16504V16.165H16.3323L16.3323 8.72569L7.2257 17.8323L6.16504 16.7716L15.2716 7.66504L7.83231 7.66504L7.83231 6.16504L17.8323 6.16504Z" />
        </g>
    </symbol>

    <symbol viewBox="0 0 82 16" id="longArrow">
        <g xmlns="http://www.w3.org/2000/svg">
            <path d="M1 7C0.447715 7 4.82823e-08 7.44772 0 8C-4.82823e-08 8.55228 0.447715 9 1 9L1 7ZM81.7071 8.70711C82.0976 8.31659 82.0976 7.68342 81.7071 7.2929L75.3431 0.928939C74.9526 0.538414 74.3195 0.538414 73.9289 0.928939C73.5384 1.31946 73.5384 1.95263 73.9289 2.34315L79.5858 8.00001L73.9289 13.6569C73.5384 14.0474 73.5384 14.6805 73.9289 15.0711C74.3195 15.4616 74.9526 15.4616 75.3431 15.0711L81.7071 8.70711ZM1 9L81 9.00001L81 7.00001L1 7L1 9Z" />
        </g>
    </symbol>

    <symbol viewBox="0 0 82 16" id="closeIcon">
        <g xmlns="http://www.w3.org/2000/svg">
            <path d="M21.0312 4.06066L19.9706 3L12.0156 10.955L4.06066 3L3 4.06066L10.955 12.0156L3 19.9706L4.06066 21.0312L12.0156 13.0763L19.9706 21.0312L21.0312 19.9706L13.0763 12.0156L21.0312 4.06066Z" />
        </g>
    </symbol>

    <symbol viewBox="0 0 58 50" id="quotesIcon">
        <g xmlns="http://www.w3.org/2000/svg">
            <path d="M23.5 4.9261L18.75 0C8.5 8.62068 0 21.6749 0 35.2217C0 46.5517 6.75 50 11.5 50C17.25 50 23 46.5517 23 38.9163C23 32.266 18 27.8325 11.5 27.8325C10.75 27.8325 10 27.8325 9.25 28.0788C10.5 20.197 14.75 12.8079 23.5 4.9261ZM46 27.8325C45.25 27.8325 44.5 27.8325 43.75 28.0788C45 20.197 49.25 12.8079 58 4.9261L53.25 0C43 8.62068 34.5 21.6749 34.5 35.2217C34.5 46.5517 41 50 46 50C51.75 50 57.5 46.5517 57.5 38.9163C57.5 32.266 52.5 27.8325 46 27.8325Z" />
        </g>
    </symbol>

    <symbol viewBox="0 0 10 6" id="selectArrow">
        <g xmlns="http://www.w3.org/2000/svg">
            <path d="M8.96004 1.4751L5.70004 4.7351C5.31504 5.1201 4.68504 5.1201 4.30004 4.7351L1.04004 1.4751" fill="transparent" stroke-width="1.5" stroke-miterlimit="10" stroke-linecap="round" stroke-linejoin="round"/>
        </g>
    </symbol>

    <symbol viewBox="0 0 500 500" id="loadingCircle">
        <g width="500" height="500" viewbox="0,0,38.16, 38.16">
            <circle r="15.9" cx="19.08" cy="19.08" />
            <circle r="15.9" cx="19.08" cy="19.08" />
        </g>
    </symbol>

    <symbol viewBox="0 0 9 10" id="downArrow">
        <g xmlns="http://www.w3.org/2000/svg">
            <path d="M5.10041 1.4999C5.10041 1.16853 4.83178 0.899902 4.50041 0.899902C4.16904 0.899902 3.90041 1.16853 3.90041 1.4999H5.10041ZM4.07615 8.92416C4.31046 9.15848 4.69036 9.15848 4.92467 8.92416L8.74305 5.10579C8.97737 4.87147 8.97737 4.49157 8.74305 4.25726C8.50874 4.02294 8.12884 4.02294 7.89452 4.25726L4.50041 7.65137L1.1063 4.25726C0.871981 4.02294 0.492082 4.02294 0.257767 4.25726C0.0234527 4.49157 0.0234526 4.87147 0.257767 5.10579L4.07615 8.92416ZM3.90041 1.4999V8.4999H5.10041V1.4999H3.90041Z" />
        </g>
    </symbol>

    <symbol viewBox="0 0 24 24" id="phoneContactsIcon">
        <g xmlns="http://www.w3.org/2000/svg">
            <path d="M11.05 14.95L9.2 16.8C8.81 17.19 8.19 17.19 7.79 16.81C7.68 16.7 7.57 16.6 7.46 16.49C6.43 15.45 5.5 14.36 4.67 13.22C3.85 12.08 3.19 10.94 2.71 9.81C2.24 8.67 2 7.58 2 6.54C2 5.86 2.12 5.21 2.36 4.61C2.6 4 2.98 3.44 3.51 2.94C4.15 2.31 4.85 2 5.59 2C5.87 2 6.15 2.06 6.4 2.18C6.66 2.3 6.89 2.48 7.07 2.74L9.39 6.01C9.57 6.26 9.7 6.49 9.79 6.71C9.88 6.92 9.93 7.13 9.93 7.32C9.93 7.56 9.86 7.8 9.72 8.03C9.59 8.26 9.4 8.5 9.16 8.74L8.4 9.53C8.29 9.64 8.24 9.77 8.24 9.93C8.24 10.01 8.25 10.08 8.27 10.16C8.3 10.24 8.33 10.3 8.35 10.36C8.53 10.69 8.84 11.12 9.28 11.64C9.73 12.16 10.21 12.69 10.73 13.22C10.83 13.32 10.94 13.42 11.04 13.52C11.44 13.91 11.45 14.55 11.05 14.95Z" fill="#469AFC"/>
            <path d="M21.9696 18.33C21.9696 18.61 21.9196 18.9 21.8196 19.18C21.7896 19.26 21.7596 19.34 21.7196 19.42C21.5496 19.78 21.3296 20.12 21.0396 20.44C20.5496 20.98 20.0096 21.37 19.3996 21.62C19.3896 21.62 19.3796 21.63 19.3696 21.63C18.7796 21.87 18.1396 22 17.4496 22C16.4296 22 15.3396 21.76 14.1896 21.27C13.0396 20.78 11.8896 20.12 10.7496 19.29C10.3596 19 9.96961 18.71 9.59961 18.4L12.8696 15.13C13.1496 15.34 13.3996 15.5 13.6096 15.61C13.6596 15.63 13.7196 15.66 13.7896 15.69C13.8696 15.72 13.9496 15.73 14.0396 15.73C14.2096 15.73 14.3396 15.67 14.4496 15.56L15.2096 14.81C15.4596 14.56 15.6996 14.37 15.9296 14.25C16.1596 14.11 16.3896 14.04 16.6396 14.04C16.8296 14.04 17.0296 14.08 17.2496 14.17C17.4696 14.26 17.6996 14.39 17.9496 14.56L21.2596 16.91C21.5196 17.09 21.6996 17.3 21.8096 17.55C21.9096 17.8 21.9696 18.05 21.9696 18.33Z" fill="#469AFC"/>
        </g>
    </symbol>

    <symbol viewBox="0 0 24 24" id="emailContactsIcon">
        <g xmlns="http://www.w3.org/2000/svg">
            <path d="M17 3.5H7C4 3.5 2 5 2 8.5V15.5C2 19 4 20.5 7 20.5H17C20 20.5 22 19 22 15.5V8.5C22 5 20 3.5 17 3.5ZM17.47 9.59L14.34 12.09C13.68 12.62 12.84 12.88 12 12.88C11.16 12.88 10.31 12.62 9.66 12.09L6.53 9.59C6.21 9.33 6.16 8.85 6.41 8.53C6.67 8.21 7.14 8.15 7.46 8.41L10.59 10.91C11.35 11.52 12.64 11.52 13.4 10.91L16.53 8.41C16.85 8.15 17.33 8.2 17.58 8.53C17.84 8.85 17.79 9.33 17.47 9.59Z" fill="#469AFC"/>
        </g>
    </symbol>

    <symbol viewBox="0 0 24 24" id="skypeContactsIcon">
        <g xmlns="http://www.w3.org/2000/svg">
            <path d="M21.8182 13.5682C21.8864 13.0227 21.9545 12.5455 21.9545 12C21.9545 6.54545 17.5227 2.04545 12 2.04545C11.4545 2.04545 10.9773 2.11364 10.4318 2.18182C9.54545 1.70455 8.59091 1.5 7.63636 1.5C4.22727 1.5 1.5 4.22727 1.5 7.63636C1.5 8.59091 1.70455 9.54545 2.18182 10.4318C2.11364 10.9773 2.04545 11.4545 2.04545 12C2.04545 17.4545 6.47727 21.9545 12 21.9545C12.5455 21.9545 13.0227 21.8864 13.5682 21.8182C14.4545 22.2273 15.4091 22.5 16.3636 22.5C19.7727 22.5 22.5 19.7727 22.5 16.3636C22.5 15.4091 22.2273 14.4545 21.8182 13.5682ZM16.1591 15.6136C15.9545 16.0227 15.6818 16.3636 15.2727 16.6364C14.8636 16.9091 14.4545 17.1136 13.9091 17.25C13.3636 17.3864 12.75 17.4545 12.0682 17.4545C10.6364 17.4545 9.47727 17.1136 8.65909 16.5C8.18182 16.0909 7.77273 15.6136 7.56818 15C7.29545 14.4545 7.77273 13.7727 8.45455 13.7727H8.65909C9.06818 13.7727 9.47727 14.0455 9.61364 14.3864C9.75 14.7273 9.95455 15 10.2273 15.2045C10.6364 15.5455 11.25 15.6818 12 15.6818C12.6818 15.6818 13.2273 15.5455 13.6364 15.3409C14.0455 15.1364 14.25 14.7273 14.25 14.3182C14.25 14.1136 14.1818 13.9773 14.1136 13.8409C14.0455 13.7045 13.8409 13.5682 13.7045 13.5C13.5 13.3636 13.2955 13.2955 12.9545 13.2273C12.6818 13.1591 12.3409 13.0227 11.9318 12.9545L11.5227 12.8182C11.0455 12.6818 10.5 12.5455 10.0909 12.4091C9.61364 12.2727 9.20455 12.0682 8.86364 11.8636C8.52273 11.6591 8.25 11.3864 8.04545 10.9773C7.84091 10.6364 7.77273 10.1591 7.77273 9.61364C7.77273 9.06818 7.90909 8.59091 8.11364 8.18182C8.31818 7.77273 8.65909 7.43182 9 7.22727C9.40909 6.95455 9.81818 6.75 10.3636 6.68182C10.8409 6.54545 11.3864 6.47727 12 6.47727C12.6818 6.47727 13.2273 6.54545 13.7727 6.68182C14.3182 6.81818 14.7273 7.02273 15.1364 7.36364C15.5455 7.63636 15.8182 7.97727 16.0227 8.45455C16.3636 9.06818 15.8864 9.88636 15.1364 9.88636H14.9318C14.5227 9.88636 14.1818 9.68182 13.9773 9.34091C13.8409 9.13636 13.7045 8.93182 13.5 8.72727C13.1591 8.45455 12.6136 8.31818 12 8.31818C11.3864 8.31818 10.9091 8.45455 10.5682 8.65909C10.2273 8.86364 10.0909 9.20455 10.0909 9.54545C10.0909 9.75 10.1591 9.88636 10.2273 10.0227C10.2955 10.1591 10.4318 10.2955 10.6364 10.3636C10.8409 10.4318 11.0455 10.5682 11.3182 10.6364C11.5909 10.7045 11.9318 10.7727 12.3409 10.9091C12.75 10.9773 13.0909 11.1136 13.5 11.1818C13.8409 11.25 14.1818 11.3864 14.5227 11.4545C14.8636 11.5909 15.1364 11.7273 15.4091 11.8636C15.6818 12 15.8864 12.2045 16.0909 12.4091C16.2955 12.6136 16.4318 12.8864 16.5 13.1591C16.6364 13.4318 16.6364 13.8409 16.6364 14.25C16.5 14.7273 16.3636 15.2045 16.1591 15.6136Z" fill="#469AFC"/>
        </g>
    </symbol>

    <symbol viewBox="0 0 26 26" id="yearsArrow">
        <g xmlns="http://www.w3.org/2000/svg">
            <path d="M1 12.4984C0.723858 12.4984 0.5 12.7222 0.5 12.9984C0.5 13.2745 0.723858 13.4984 1 13.4984V12.4984ZM25.3536 13.3519C25.5488 13.1567 25.5488 12.8401 25.3536 12.6448L22.1716 9.46285C21.9763 9.26759 21.6597 9.26759 21.4645 9.46285C21.2692 9.65811 21.2692 9.9747 21.4645 10.17L24.2929 12.9984L21.4645 15.8268C21.2692 16.0221 21.2692 16.3387 21.4645 16.5339C21.6597 16.7292 21.9763 16.7292 22.1716 16.5339L25.3536 13.3519ZM1 13.4984H25V12.4984H1V13.4984Z" />
        </g>
    </symbol>

    <symbol viewBox="0 0 18 18" id="checkboxIcon">
        <g xmlns="http://www.w3.org/2000/svg">
            <path opacity="0.5" d="M9.0013 0.666748C4.40964 0.666748 0.667969 4.40841 0.667969 9.00008C0.667969 13.5917 4.40964 17.3334 9.0013 17.3334C13.593 17.3334 17.3346 13.5917 17.3346 9.00008C17.3346 4.40841 13.593 0.666748 9.0013 0.666748ZM12.9846 7.08342L8.25964 11.8084C8.14297 11.9251 7.98464 11.9917 7.81797 11.9917C7.6513 11.9917 7.49297 11.9251 7.3763 11.8084L5.01797 9.45008C4.7763 9.20842 4.7763 8.80841 5.01797 8.56675C5.25964 8.32508 5.65964 8.32508 5.9013 8.56675L7.81797 10.4834L12.1013 6.20008C12.343 5.95842 12.743 5.95842 12.9846 6.20008C13.2263 6.44175 13.2263 6.83342 12.9846 7.08342Z" />
        </g>
    </symbol>

    <symbol viewBox="0 0 20 20" id="closeModal">
        <g xmlns="http://www.w3.org/2000/svg">
            <path d="M19 2.05882L17.9412 1L10 8.94118L2.05882 1L1 2.05882L8.94118 10L1 17.9412L2.05882 19L10 11.0588L17.9412 19L19 17.9412L11.0588 10L19 2.05882Z" fill="#848484"/>
        </g>
    </symbol>

    <symbol viewBox="0 0 18 18" id="hidePassIcon">
        <g xmlns="http://www.w3.org/2000/svg">
            <path d="M10.8974 7.10244L7.10244 10.8974C6.61494 10.4099 6.31494 9.74244 6.31494 8.99994C6.31494 7.51494 7.51494 6.31494 8.99994 6.31494C9.74244 6.31494 10.4099 6.61494 10.8974 7.10244Z" stroke="#A3A3A3" stroke-width="1.5" stroke-linecap="round" stroke-linejoin="round"/>
            <path d="M13.3649 4.32761C12.0524 3.33761 10.5524 2.79761 8.99988 2.79761C6.35238 2.79761 3.88488 4.35761 2.16738 7.05761C1.49238 8.11511 1.49238 9.89261 2.16738 10.9501C2.75988 11.8801 3.44988 12.6826 4.19988 13.3276" stroke="#A3A3A3" stroke-width="1.5" stroke-linecap="round" stroke-linejoin="round"/>
            <path d="M6.31494 14.6475C7.16994 15.0075 8.07744 15.2025 8.99994 15.2025C11.6474 15.2025 14.1149 13.6425 15.8324 10.9425C16.5074 9.88501 16.5074 8.10751 15.8324 7.05001C15.5849 6.66001 15.3149 6.29251 15.0374 5.94751" stroke="#A3A3A3" stroke-width="1.5" stroke-linecap="round" stroke-linejoin="round"/>
            <path d="M11.6326 9.5249C11.4376 10.5824 10.5751 11.4449 9.51758 11.6399" stroke="#A3A3A3" stroke-width="1.5" stroke-linecap="round" stroke-linejoin="round"/>
            <path d="M7.1025 10.8975L1.5 16.5" stroke="#A3A3A3" stroke-width="1.5" stroke-linecap="round" stroke-linejoin="round"/>
            <path d="M16.5 1.5L10.8975 7.1025" stroke="#A3A3A3" stroke-width="1.5" stroke-linecap="round" stroke-linejoin="round"/>
        </g>
    </symbol>

    <symbol viewBox="0 0 18 18" id="showPassIcon">
        <g xmlns="http://www.w3.org/2000/svg">
            <path d="M11.6825 9.00141C11.6825 10.4864 10.4825 11.6864 8.9975 11.6864C7.5125 11.6864 6.3125 10.4864 6.3125 9.00141C6.3125 7.51641 7.5125 6.31641 8.9975 6.31641C10.4825 6.31641 11.6825 7.51641 11.6825 9.00141Z" stroke="#A3A3A3" stroke-width="1.5" stroke-linecap="round" stroke-linejoin="round"/>
            <path d="M9.00281 15.2015C11.6503 15.2015 14.1178 13.6415 15.8353 10.9415C16.5103 9.88406 16.5103 8.10656 15.8353 7.04906C14.1178 4.34906 11.6503 2.78906 9.00281 2.78906C6.35531 2.78906 3.88781 4.34906 2.17031 7.04906C1.49531 8.10656 1.49531 9.88406 2.17031 10.9415C3.88781 13.6415 6.35531 15.2015 9.00281 15.2015Z" stroke="#A3A3A3" stroke-width="1.5" stroke-linecap="round" stroke-linejoin="round"/>
        </g>
    </symbol>

    <symbol viewBox="0 0 24 24" id="checkIcon">
        <g xmlns="http://www.w3.org/2000/svg">
            <path d="M20.3341 7.51769L19.2734 6.45703L9.31316 16.4173L4.71691 11.8211L3.65625 12.8817L9.3131 18.5386L20.3341 7.51769Z" />
        </g>
    </symbol>

</svg>