<svg width="64" height="64" viewBox="0 0 64 64" fill="none" xmlns="http://www.w3.org/2000/svg">
<path d="M31.6667 0C14.2183 0 0 14.2183 0 31.6667C0 49.115 14.2183 63.3333 31.6667 63.3333C49.115 63.3333 63.3333 49.115 63.3333 31.6667C63.3333 14.2183 49.115 0 31.6667 0ZM46.8033 24.3833L28.8483 42.3383C28.405 42.7817 27.8033 43.035 27.17 43.035C26.5367 43.035 25.935 42.7817 25.4917 42.3383L16.53 33.3767C15.6117 32.4583 15.6117 30.9383 16.53 30.02C17.4483 29.1017 18.9683 29.1017 19.8867 30.02L27.17 37.3033L43.4467 21.0267C44.365 20.1083 45.885 20.1083 46.8033 21.0267C47.7217 21.945 47.7217 23.4333 46.8033 24.3833Z" fill="#46CE95"/>
</svg>
