<svg width="48" height="16" viewBox="0 0 48 16" fill="none" xmlns="http://www.w3.org/2000/svg">
<path d="M44.2545 1.11328H41.2844C40.3864 1.11328 39.6957 1.38958 39.2812 2.28754L33.6172 15.2043H37.6235C37.6235 15.2043 38.3142 13.4775 38.4524 13.063C38.8668 13.063 42.804 13.063 43.3566 13.063C43.4947 13.5466 43.8401 15.1353 43.8401 15.1353H47.4319L44.2545 1.11328ZM39.5575 10.1619C39.9029 9.33306 41.0772 6.22474 41.0772 6.22474C41.0772 6.29381 41.4225 5.39586 41.5607 4.91234L41.837 6.15567C41.837 6.15567 42.5968 9.54028 42.7349 10.231H39.5575V10.1619Z" fill="#3362AB"/>
<path d="M33.8968 10.5766C33.8968 13.4777 31.272 15.4117 27.1966 15.4117C25.4698 15.4117 23.812 15.0664 22.9141 14.6519L23.4667 11.4745L23.9502 11.6818C25.1935 12.2344 26.0224 12.4416 27.542 12.4416C28.6472 12.4416 29.8214 12.0271 29.8214 11.0601C29.8214 10.4384 29.3379 10.024 27.8183 9.33325C26.3678 8.64251 24.4337 7.53733 24.4337 5.53419C24.4337 2.77124 27.1276 0.90625 30.9266 0.90625C32.3772 0.90625 33.6205 1.18255 34.3803 1.52791L33.8277 4.56716L33.5514 4.29087C32.8607 4.01457 31.9627 3.73828 30.6503 3.73828C29.1998 3.80735 28.509 4.42901 28.509 4.9816C28.509 5.60327 29.3379 6.08678 30.6503 6.70845C32.8607 7.74455 33.8968 8.91881 33.8968 10.5766Z" fill="#3362AB"/>
<path d="M0.1875 1.25286L0.256574 0.976562H6.19692C7.0258 0.976562 7.64747 1.25286 7.85469 2.15082L9.16709 8.36746C7.85469 5.05192 4.81544 2.35804 0.1875 1.25286Z" fill="#F9B50B"/>
<path d="M17.5228 1.11204L11.5134 15.134H7.43806L3.98438 3.39148C6.47103 4.98017 8.54324 7.46683 9.30306 9.19368L9.7175 10.6442L13.4475 1.04297H17.5228V1.11204Z" fill="#3362AB"/>
<path d="M19.1129 1.04297H22.912L20.4944 15.134H16.6953L19.1129 1.04297Z" fill="#3362AB"/>
</svg>
