<svg width="18" height="18" viewBox="0 0 18 18" fill="none" xmlns="http://www.w3.org/2000/svg">
<circle cx="9" cy="9" r="9" fill="#48C95F"/>
<path d="M12.5671 5.42793C11.678 4.54199 10.4927 4.0498 9.24146 4.0498C6.64024 4.0498 4.53293 6.1498 4.53293 8.74199C4.53293 9.5623 4.76341 10.3826 5.15854 11.0717L4.5 13.4998L7.00244 12.8436C7.6939 13.2045 8.45122 13.4014 9.24146 13.4014C11.8427 13.4014 13.95 11.3014 13.95 8.70918C13.9171 7.49512 13.4561 6.31387 12.5671 5.42793ZM11.5134 10.4154C11.4146 10.6779 10.9537 10.9404 10.7232 10.9732C10.5256 11.0061 10.2622 11.0061 9.99878 10.9404C9.83415 10.8748 9.60366 10.8092 9.34024 10.6779C8.15488 10.1857 7.39756 9.00449 7.33171 8.90605C7.26585 8.84043 6.83781 8.28262 6.83781 7.69199C6.83781 7.10137 7.13415 6.83887 7.23293 6.70762C7.33171 6.57637 7.46341 6.57637 7.5622 6.57637C7.62805 6.57637 7.72683 6.57637 7.79268 6.57637C7.85854 6.57637 7.95732 6.54355 8.0561 6.77324C8.15488 7.00293 8.38537 7.59355 8.41829 7.62637C8.45122 7.69199 8.45122 7.75762 8.41829 7.82324C8.38537 7.88887 8.35244 7.95449 8.28658 8.02012C8.22073 8.08574 8.15488 8.18418 8.12195 8.21699C8.0561 8.28262 7.99024 8.34824 8.0561 8.44668C8.12195 8.57793 8.35244 8.93887 8.71463 9.26699C9.17561 9.66074 9.53781 9.79199 9.66951 9.85762C9.80122 9.92324 9.86707 9.89043 9.93293 9.8248C9.99878 9.75918 10.2293 9.49668 10.2951 9.36543C10.361 9.23418 10.4598 9.26699 10.5585 9.29981C10.6573 9.33262 11.25 9.62793 11.3488 9.69356C11.4805 9.75918 11.5463 9.79199 11.5793 9.8248C11.6122 9.92324 11.6122 10.1529 11.5134 10.4154Z" fill="white"/>
</svg>
